<svg xmlns="http://www.w3.org/2000/svg" width="20" height="20"><path d="M18 4v5.612a4.515 4.515 0 0 0-1-.112h-1a3.5 3.5 0 0 0-2.8 1.4L12 12.5a2.5 2.5 0 0 1-4 0l-1.2-1.6A3.5 3.5 0 0 0 4 9.5H3c-.344 0-.678.039-1 .112V4a4 4 0 0 1 4-4h8a4 4 0 0 1 4 4ZM7 7.25a.75.75 0 0 0 0 1.5h3a.75.75 0 0 0 0-1.5H7ZM6.25 4A.75.75 0 0 1 7 3.25h6a.75.75 0 0 1 0 1.5H7A.75.75 0 0 1 6.25 4ZM20 14v3a3 3 0 0 1-3 3H3a3 3 0 0 1-3-3v-3a3 3 0 0 1 3-3h1a2 2 0 0 1 1.6.8l1.2 1.6a4 4 0 0 0 6.4 0l1.2-1.6A2 2 0 0 1 16 11h1a3 3 0 0 1 3 3Z" fill="#0d3657" fill-rule="evenodd" data-name="Combo shape"/></svg>