<svg xmlns="http://www.w3.org/2000/svg" width="20" height="20.75" viewBox="2 1.625 20 20.75"><g data-name="briefcase"><path d="M2.704 12.285a.514.514 0 0 0-.704.482v5.504c0 2.267 1.79 4.104 4 4.104h12c2.21 0 4-1.837 4-4.104v-5.504c0-.37-.37-.619-.704-.482a24.746 24.746 0 0 1-4.792 1.404c-.705.131-1.216.752-1.544 1.405-.499.99-1.506 1.666-2.667 1.666h-.586c-1.161 0-2.168-.676-2.667-1.666-.329-.653-.84-1.274-1.544-1.405a24.748 24.748 0 0 1-4.792-1.404Z" fill="#0d3657" fill-rule="evenodd" data-name="Subtract"/><path d="M18 6.375H6a4 4 0 0 0-4 4c0 .217.107.419.295.528.848.495 3.472 1.866 7.203 2.33v.456a2 2 0 0 0 2 2h1.004a2 2 0 0 0 2-2v-.457c3.73-.463 6.355-1.834 7.203-2.33a.604.604 0 0 0 .295-.527 4 4 0 0 0-4-4Zm-6.925 6.094a.2.2 0 0 0-.2.2v.99a.8.8 0 0 0 .8.8h.65a.8.8 0 0 0 .8-.8v-.99a.2.2 0 0 0-.2-.2h-1.85Z" fill="#0d3657" fill-rule="evenodd" data-name="Subtract"/><path d="M11 3.125a2.25 2.25 0 0 0-2.25 2.25v1a.75.75 0 0 1-1.5 0v-1A3.75 3.75 0 0 1 11 1.625h2a3.75 3.75 0 0 1 3.75 3.75v1a.75.75 0 0 1-1.5 0v-1A2.25 2.25 0 0 0 13 3.125h-2Z" fill="#0d3657" fill-rule="evenodd" data-name="Vector 994 (Stroke)"/></g></svg>