<svg xmlns="http://www.w3.org/2000/svg" width="21.5" height="21.5"><path d="M6 4.75a.75.75 0 0 0 1.5 0H6Zm8 0a.75.75 0 0 0 1.5 0H14ZM1.166 8.473a.75.75 0 1 0-.832 1.249l.832-1.249Zm20 1.249a.75.75 0 0 0-.832-1.249l.832 1.249ZM8.653 12.407a.75.75 0 1 0 .15-1.492l-.15 1.492Zm4.045-1.492a.75.75 0 1 0 .15 1.492l-.15-1.492ZM4.75 5.5h12V4h-12v1.5ZM20 8.75v8h1.5v-8H20ZM16.75 20h-12v1.5h12V20ZM1.5 16.75v-8H0v8h1.5ZM4.75 20a3.25 3.25 0 0 1-3.25-3.25H0a4.75 4.75 0 0 0 4.75 4.75V20ZM20 16.75A3.25 3.25 0 0 1 16.75 20v1.5a4.75 4.75 0 0 0 4.75-4.75H20ZM16.75 5.5A3.25 3.25 0 0 1 20 8.75h1.5A4.75 4.75 0 0 0 16.75 4v1.5ZM4.75 4A4.75 4.75 0 0 0 0 8.75h1.5A3.25 3.25 0 0 1 4.75 5.5V4Zm2.75.75v-1H6v1h1.5ZM9.75 1.5h2V0h-2v1.5ZM14 3.75v1h1.5v-1H14ZM11.75 1.5A2.25 2.25 0 0 1 14 3.75h1.5A3.75 3.75 0 0 0 11.75 0v1.5ZM7.5 3.75A2.25 2.25 0 0 1 9.75 1.5V0A3.75 3.75 0 0 0 6 3.75h1.5ZM.75 9.097l-.415.625.001.001a.319.319 0 0 0 .013.009 4.188 4.188 0 0 0 .154.096c.104.063.255.152.45.259.388.214.954.5 1.674.802a21.176 21.176 0 0 0 6.026 1.518l.15-1.492a19.674 19.674 0 0 1-5.597-1.41 16.12 16.12 0 0 1-1.532-.733 10.131 10.131 0 0 1-.51-.3h.001v.001l-.415.624Zm12.097 3.31a21.176 21.176 0 0 0 6.026-1.518c.72-.302 1.286-.588 1.675-.802a11.601 11.601 0 0 0 .613-.362l.003-.002h.001v-.001l-.415-.625-.415-.624-.004.002a2.525 2.525 0 0 1-.115.072 10.1 10.1 0 0 1-.39.225c-.348.191-.865.454-1.532.733a19.675 19.675 0 0 1-5.596 1.41l.15 1.492Z" fill="#a6a6a6" fill-rule="evenodd" data-name="Vector"/></svg>