<svg width="20" height="16" viewBox="0 0 20 16" fill="none" xmlns="http://www.w3.org/2000/svg">
<path d="M19 9C19 6.33333 18.5 4 18 3.66667C17.6796 3.45303 16.1268 3.2394 14 3.11352C12.8083 3.04298 15 1 10 1C5 1 7.19168 3.04298 6 3.11352C3.87316 3.2394 2.32045 3.45303 2 3.66667C1.5 4 1 6.33333 1 9C1 11.6667 1.5 14 2 14.3333C2.5 14.6667 6 15 10 15C14 15 17.5 14.6667 18 14.3333C18.5 14 19 11.6667 19 9Z" stroke="#A68B5C" stroke-width="1.5" stroke-linecap="round" stroke-linejoin="round"/>
<path d="M10 12C11.6569 12 13 10.6569 13 9C13 7.34315 11.6569 6 10 6C8.34315 6 7 7.34315 7 9C7 10.6569 8.34315 12 10 12Z" stroke="#A68B5C" stroke-width="1.5" stroke-linecap="round" stroke-linejoin="round"/>
</svg>
