<svg xmlns="http://www.w3.org/2000/svg" width="34" height="34" viewBox="0 0 34 34">
  <g id="Group_10517" data-name="Group 10517" transform="translate(-35 -96)">
    <circle id="Ellipse_15" data-name="Ellipse 15" cx="17" cy="17" r="17" transform="translate(35 96)" fill="#f0f5fa"/>
    <g id="cancel_1_" data-name="cancel (1)" transform="translate(43.93 105.273)">
      <g id="Group_10516" data-name="Group 10516" transform="translate(0 0)">
        <path id="Path_8666" data-name="Path 8666" d="M9.874,8.107l6.051-6.051a.887.887,0,0,0,0-1.252l-.53-.53a.887.887,0,0,0-1.252,0L8.092,6.325,2.041.274a.887.887,0,0,0-1.252,0L.259.8a.886.886,0,0,0,0,1.252L6.31,8.107.259,14.158a.888.888,0,0,0,0,1.252l.53.53a.887.887,0,0,0,1.252,0L8.092,9.889l6.051,6.051a.878.878,0,0,0,.626.258h0a.878.878,0,0,0,.626-.258l.53-.53a.887.887,0,0,0,0-1.252Z" transform="translate(0 -0.016)" fill="#a7bdd3"/>
      </g>
    </g>
  </g>
</svg>
