<svg xmlns="http://www.w3.org/2000/svg" width="19.5" height="21.5"><path d="m2.22 5.777-.477-.58.477.58Zm5-4.118-.477-.579.477.58Zm5.06 0-.477.58.477-.58Zm5 4.118-.477.579.477-.58ZM18 8.9v7.817h1.5V8.9H18ZM14.75 20h-10v1.5h10V20ZM1.5 16.717V8.9H0v7.817h1.5ZM2.697 6.356l5-4.118-.954-1.158-5 4.118.954 1.158Zm9.106-4.118 5 4.118.954-1.158-5-4.118-.954 1.158Zm-4.106 0a3.225 3.225 0 0 1 4.106 0l.954-1.158a4.725 4.725 0 0 0-6.014 0l.954 1.158ZM4.75 20c-1.79 0-3.25-1.464-3.25-3.283H0C0 19.353 2.12 21.5 4.75 21.5V20ZM18 16.717C18 18.536 16.54 20 14.75 20v1.5c2.63 0 4.75-2.147 4.75-4.783H18ZM19.5 8.9a4.796 4.796 0 0 0-1.743-3.702l-.954 1.158A3.296 3.296 0 0 1 18 8.9h1.5Zm-18 0c0-.988.44-1.922 1.197-2.544l-.954-1.158A4.796 4.796 0 0 0 0 8.9h1.5Z" fill="#a6a6a6" fill-rule="evenodd" data-name="Vector 300"/></svg>