<svg width="100" height="100" viewBox="0 0 100 100" fill="none" xmlns="http://www.w3.org/2000/svg">
<path d="M74.8467 87.9204C74.2871 87.9204 73.725 87.7914 73.203 87.5284C70.506 86.1644 66.962 83.8408 64.634 80.2804H63.3717C54.4017 80.2804 46.8856 73.8567 45.501 65.006L50.2157 64.2667C51.2357 70.7811 56.7673 75.5081 63.3717 75.5081H67.439L68.1097 76.7841C69.312 79.0751 71.311 80.8097 73.2287 82.0494C73.034 80.5277 73.058 78.9617 73.2984 77.3711L73.5624 75.6201L75.3141 75.3661C81.8004 74.4211 86.6921 68.7581 86.6921 62.191C86.6921 55.5627 81.7464 49.892 75.1874 49.0007L75.8301 44.271C84.7427 45.4833 91.4651 53.1863 91.4651 62.191C91.4651 70.4664 85.7424 77.6874 77.8747 79.7127C77.8484 80.9287 78.0037 82.1071 78.3411 83.2311C78.7587 84.6261 78.3067 86.1334 77.1874 87.0681C76.5157 87.6304 75.6851 87.9204 74.8467 87.9204Z" fill="#29888A"/>
<path d="M48.5855 12H33.0515C19.5843 12 8.66699 22.9168 8.66699 36.3835C8.66699 48.6469 17.7193 58.7915 29.5076 60.5083C29.9261 63.2831 29.9438 66.6082 28.8897 70.1179C28.399 71.758 30.1178 73.1928 31.6449 72.4217C35.7023 70.371 41.4421 66.6082 44.5105 60.769H48.5855C62.0527 60.769 72.9695 49.8507 72.9695 36.3835C72.9695 22.9168 62.0527 12 48.5855 12Z" fill="#A9CFD0"/>
<path d="M31.7974 32.688C33.6221 32.688 35.1036 34.1695 35.1036 35.9942C35.1036 37.8189 33.6221 39.3004 31.7974 39.3004C29.9727 39.3004 28.4912 37.8189 28.4912 35.9942C28.4912 34.1695 29.9727 32.688 31.7974 32.688Z" fill="white"/>
<path d="M41.774 32.688C43.5987 32.688 45.0802 34.1695 45.0802 35.9942C45.0802 37.8189 43.5987 39.3004 41.774 39.3004C39.9493 39.3004 38.4678 37.8189 38.4678 35.9942C38.4678 34.1695 39.9493 32.688 41.774 32.688Z" fill="white"/>
<path d="M51.773 32.688C53.5977 32.688 55.0792 34.1695 55.0792 35.9942C55.0792 37.8189 53.5977 39.3004 51.773 39.3004C49.9483 39.3004 48.4668 37.8189 48.4668 35.9942C48.4668 34.1695 49.9483 32.688 51.773 32.688Z" fill="white"/>
</svg>
