<svg xmlns="http://www.w3.org/2000/svg" width="78.338" height="125.333" viewBox="0 0 78.338 125.333">
  <g id="logout" transform="translate(-264.32 -111.45)">
    <path id="Path_2774" data-name="Path 2774" d="M312.83,171.082a12.412,12.412,0,0,0-6.232,1.3,10.315,10.315,0,0,0-5.027,4.409,5.568,5.568,0,0,0,.7,6.33,9.8,9.8,0,0,0-6.413,6.637,19.263,19.263,0,0,0-.15,9.527c.3,1.488.819,3.149,2.193,3.787.882.394,1.968.315,2.795.823a6.491,6.491,0,0,1,1.728,2.228,6.692,6.692,0,0,0,9.55,1.7l6.361-33.807A7.551,7.551,0,0,0,312.83,171.082Z" transform="translate(-18.718 -36.147)" fill="#455a64"/>
    <path id="Path_2775" data-name="Path 2775" d="M328.262,180.36a4.359,4.359,0,0,1-.437.527c-.3.331-.724.787-1.268,1.378a27.084,27.084,0,0,1-4.661,4.051,13.475,13.475,0,0,1-5.747,2.212,9.138,9.138,0,0,1-1.878.039,2.976,2.976,0,0,1-.508-.063.59.59,0,0,1-.173-.039s.248,0,.685.024a10.527,10.527,0,0,0,1.854-.1,13.983,13.983,0,0,0,5.653-2.24,30.253,30.253,0,0,0,4.673-3.96l1.311-1.335A4.332,4.332,0,0,1,328.262,180.36Z" transform="translate(-29.874 -41.783)" fill="#263238"/>
    <path id="Path_2776" data-name="Path 2776" d="M318.887,201.142a1,1,0,0,1-.213-.457,3.074,3.074,0,0,1-.059-1.22,3.008,3.008,0,0,1,.433-1.142,1.305,1.305,0,0,1,.342-.394,5.929,5.929,0,0,0-.571,1.547A5.833,5.833,0,0,0,318.887,201.142Z" transform="translate(-32.9 -52.437)" fill="#263238"/>
    <path id="Path_2777" data-name="Path 2777" d="M316.687,209.28a.848.848,0,0,1,.087.185c.051.122.13.3.213.547a17.082,17.082,0,0,1,.6,2.071,15.39,15.39,0,0,1,0,7.086,11.849,11.849,0,0,1-3.665,6.019,9.377,9.377,0,0,1-1.783,1.22,4.853,4.853,0,0,1-.527.252,1.115,1.115,0,0,1-.193.071,7.208,7.208,0,0,1,.685-.394,10.507,10.507,0,0,0,1.724-1.256,12.105,12.105,0,0,0,3.563-5.964,15.814,15.814,0,0,0,.067-7c-.181-.89-.394-1.575-.531-2.079A6.206,6.206,0,0,1,316.687,209.28Z" transform="translate(-28.559 -59.319)" fill="#263238"/>
    <path id="Path_2778" data-name="Path 2778" d="M308.529,220.56a2.268,2.268,0,0,1-.48-.106c-.307-.083-.752-.193-1.3-.323a31.3,31.3,0,0,0-8.759-.787c-.563.028-1.02.059-1.334.087a2.13,2.13,0,0,1-.492,0,2.169,2.169,0,0,1,.484-.1c.311-.051.768-.1,1.334-.15a26.312,26.312,0,0,1,8.8.787c.551.146.988.28,1.287.394A1.968,1.968,0,0,1,308.529,220.56Z" transform="translate(-19.306 -65.272)" fill="#263238"/>
    <g id="Group_126" data-name="Group 126" transform="translate(283.991 141.057)" opacity="0.3">
      <path id="Path_2779" data-name="Path 2779" d="M314.29,192.305h0a7.466,7.466,0,0,0,7.3.059,10.364,10.364,0,0,0,4.814-5.7C323.439,190.085,319.038,192.569,314.29,192.305Z" transform="translate(-314.29 -186.66)"/>
    </g>
    <g id="Group_127" data-name="Group 127" transform="translate(282.842 159.996)" opacity="0.3">
      <path id="Path_2780" data-name="Path 2780" d="M311.374,242.179a6.058,6.058,0,0,0,4.5-2.519,10.924,10.924,0,0,0,1.645-4.889,23.159,23.159,0,0,1-2.157,4.248,10.527,10.527,0,0,1-1.7,1.7,11.23,11.23,0,0,1-2.3,1.457" transform="translate(-311.37 -234.77)"/>
    </g>
    <path id="Path_2781" data-name="Path 2781" d="M315.837,220.23a3.544,3.544,0,0,1,.28,1.024c.067.323.142.7.256,1.114a1.288,1.288,0,0,1,0,.724.661.661,0,0,1-.634.484.736.736,0,0,1-.606-.524,1.315,1.315,0,0,1,0-.72c.114-.429.236-.787.335-1.106a5.625,5.625,0,0,1,.358-1,5.416,5.416,0,0,1-.22,1.039c-.087.335-.185.7-.287,1.1a1.181,1.181,0,0,0,0,.618.551.551,0,0,0,.429.394.461.461,0,0,0,.433-.346,1.2,1.2,0,0,0,0-.614,9.95,9.95,0,0,1-.217-1.13C315.9,220.632,315.837,220.238,315.837,220.23Z" transform="translate(-30.779 -65.958)" fill="#263238"/>
    <path id="Path_2782" data-name="Path 2782" d="M326.651,182.4a11.711,11.711,0,0,1-1.26-.732A28.93,28.93,0,0,0,322.309,180a14.014,14.014,0,0,0-3.319-1.063c-.882-.161-1.441-.165-1.441-.2a1.472,1.472,0,0,1,.394-.024,7.747,7.747,0,0,1,1.067.079,12.416,12.416,0,0,1,3.385,1.02,21.915,21.915,0,0,1,3.074,1.736c.374.248.673.457.878.606A1.574,1.574,0,0,1,326.651,182.4Z" transform="translate(-32.276 -40.783)" fill="#263238"/>
    <path id="Path_2783" data-name="Path 2783" d="M337.794,187.31c.024,0,.043.134-.067.3a.685.685,0,0,1-.7.291h0l-.13-.024.059-.122a.968.968,0,0,1,.555-.484c.181-.059.3-.035.3,0s-.1.063-.244.146a1.055,1.055,0,0,0-.429.441l-.067-.146h0a.614.614,0,0,0,.543-.181C337.727,187.412,337.762,187.306,337.794,187.31Z" transform="translate(-44.008 -45.954)" fill="#263238"/>
    <path id="Path_2784" data-name="Path 2784" d="M421.215,167.167s-1.575-2.071-1.575-2.909l.653-4.873s.283-.492.724.323a3.483,3.483,0,0,1,.173,1.905l.276,1.146.594-.866.669-3.256s.425-2.362.787-2.106.472.929.287,1.945-.421,2.3-.421,2.3-.047.394.331-.272a35.233,35.233,0,0,0,.941-3.9c.154-.382.2-1.4.787-1.342s.244,1.35.244,1.35l-.559,4.2s.543-1.689.646-1.968.264-1.209.461-1.712.488-.764.744-.732a.48.48,0,0,1,.453.48l-.858,3.59s-.476,1.634-.445,1.74.634-.681.634-.681l.465-1.181s.394-1.649.827-1.7.457.287.457.287l-.728,3.015-1.335,3.441-1.264,2.586a11.668,11.668,0,0,0-1.831-.185A15.667,15.667,0,0,1,421.215,167.167Z" transform="translate(-94.177 -26.567)" fill="#ffbe9d"/>
    <path id="Path_2785" data-name="Path 2785" d="M426.732,175.492a5.234,5.234,0,0,1-.362-.756,2.622,2.622,0,0,0-1.307-1.394,1.409,1.409,0,0,0-.925-.071l-.1.028-.024-.11c-.114-.5-.272-.961-.342-1.275a1.248,1.248,0,0,1-.083-.524,2.566,2.566,0,0,1,.2.484,13.263,13.263,0,0,1,.425,1.287l-.13-.083a1.575,1.575,0,0,1,1.063.063,2.22,2.22,0,0,1,.917.713,3.662,3.662,0,0,1,.449.819A2.477,2.477,0,0,1,426.732,175.492Z" transform="translate(-96.569 -36.344)" fill="#eb996e"/>
    <path id="Path_2786" data-name="Path 2786" d="M386.86,179.51l8.72,13.034,3.937-11.361,5.362,1.319s-2.189,15.274-3.023,16.79a7,7,0,0,1-6.692,3.263c-3.24-.441-9.692-9.129-9.692-9.129Z" transform="translate(-73.458 -41.268)" fill="#23807b"/>
    <path id="Path_2787" data-name="Path 2787" d="M412.061,217.47a9.054,9.054,0,0,0-1.181-5.48,2.362,2.362,0,0,1,.5.685,6.614,6.614,0,0,1,.732,1.917,6.755,6.755,0,0,1,.134,2.047,2.428,2.428,0,0,1-.181.831Z" transform="translate(-88.865 -60.962)" fill="#263238"/>
    <g id="Group_128" data-name="Group 128" transform="translate(313.882 143.675)" opacity="0.3">
      <path id="Path_2788" data-name="Path 2788" d="M390.4,204.565a2.035,2.035,0,0,0,1.063-1.52,5.925,5.925,0,0,0-.059-1.917c-.35-2.571-.842-5.247-1.181-7.818l.138,10.987" transform="translate(-390.22 -193.31)"/>
    </g>
    <g id="Group_129" data-name="Group 129" transform="translate(322.062 151.056)" opacity="0.3">
      <path id="Path_2789" data-name="Path 2789" d="M412.224,216.878a1.067,1.067,0,0,0,.787-.63,2.023,2.023,0,0,0,.138-1.039A3.937,3.937,0,0,0,411,212.06a8.771,8.771,0,0,1,1.212,4.811" transform="translate(-411 -212.06)"/>
    </g>
    <path id="Path_2790" data-name="Path 2790" d="M414.46,390.6l4.984,11.345,14.25-6c-.657-1.323-9.751-.65-9.751-.65l-3.149-7.7Z" transform="translate(-91.036 -167.436)" fill="#23807b"/>
    <g id="Group_130" data-name="Group 130" transform="translate(328.582 228.683)" opacity="0.6">
      <path id="Path_2791" data-name="Path 2791" d="M427.791,409.371a.634.634,0,0,0-.122.835.61.61,0,0,0,.827.126.665.665,0,0,0,.122-.882.63.63,0,0,0-.87-.039" transform="translate(-427.564 -409.255)" fill="#fff"/>
    </g>
    <g id="Group_131" data-name="Group 131" transform="translate(327.959 228.012)" opacity="0.6">
      <path id="Path_2792" data-name="Path 2792" d="M426.429,414.045l-.449-1.181,13.829-5.314s.752,0,.87.484Z" transform="translate(-425.98 -407.55)" fill="#fff"/>
    </g>
    <path id="Path_2793" data-name="Path 2793" d="M437.664,407.22c.028.071-.307.252-.555.618s-.307.736-.394.736-.142-.445.169-.886S437.653,407.153,437.664,407.22Z" transform="translate(-104.49 -179.326)" fill="#263238"/>
    <path id="Path_2794" data-name="Path 2794" d="M443.7,406.881c.047.059-.2.3-.319.7s-.047.736-.118.76-.283-.346-.134-.835S443.673,406.814,443.7,406.881Z" transform="translate(-108.388 -179.125)" fill="#263238"/>
    <path id="Path_2795" data-name="Path 2795" d="M448.148,408.195c-.055.039-.3-.268-.279-.72s.279-.744.331-.7-.059.335-.071.709S448.215,408.159,448.148,408.195Z" transform="translate(-111.292 -179.065)" fill="#263238"/>
    <path id="Path_2796" data-name="Path 2796" d="M434.667,402.412c0,.075-.362.114-.744.307s-.638.445-.7.394.13-.417.583-.638S434.675,402.345,434.667,402.412Z" transform="translate(-102.405 -176.377)" fill="#263238"/>
    <path id="Path_2797" data-name="Path 2797" d="M273.5,398.228l-.61-6.058,5.055-6.365-6.2-3.984-.165.244-3.149,4.755-4.09,3.228,6.5,10.672,6.326-.425S276.595,398.818,273.5,398.228Z" transform="translate(-0.012 -163.937)" fill="#23807b"/>
    <g id="Group_132" data-name="Group 132" transform="translate(264.32 225.425)" opacity="0.6">
      <path id="Path_2798" data-name="Path 2798" d="M264.32,401.665l6.5,10.672,6.326-.425-.775-.9-5.165.063L265.19,400.98Z" transform="translate(-264.32 -400.98)" fill="#fff"/>
    </g>
    <path id="Path_2799" data-name="Path 2799" d="M284.227,415.9c-.039.067-.421-.114-.909-.067s-.835.272-.886.213.268-.445.866-.492S284.29,415.848,284.227,415.9Z" transform="translate(-10.979 -184.388)" fill="#263238"/>
    <path id="Path_2800" data-name="Path 2800" d="M283.686,411.62c-.063.051-.37-.3-.878-.366s-.9.193-.945.13.043-.138.213-.248a1.184,1.184,0,0,1,1.468.193C283.678,411.478,283.713,411.6,283.686,411.62Z" transform="translate(-10.63 -181.608)" fill="#263238"/>
    <path id="Path_2801" data-name="Path 2801" d="M283.758,406.569c-.067.043-.307-.311-.756-.433s-.839.047-.874-.02.055-.126.224-.2a1.1,1.1,0,0,1,1.319.366C283.778,406.435,283.789,406.553,283.758,406.569Z" transform="translate(-10.793 -178.494)" fill="#263238"/>
    <path id="Path_2802" data-name="Path 2802" d="M288.018,402.137c-.075.031-.276-.319-.685-.543s-.787-.24-.815-.319.457-.213.953.075S288.093,402.121,288.018,402.137Z" transform="translate(-13.459 -175.672)" fill="#263238"/>
    <path id="Path_2803" data-name="Path 2803" d="M289.814,396.39c-.031.024-.256-.216-.594-.626-.193-.236-.394-.476-.587-.724a1.876,1.876,0,0,1-.327-.488.488.488,0,0,1,0-.394.394.394,0,0,1,.366-.228,1.181,1.181,0,0,1,.614.268,2.126,2.126,0,0,1,.807,1.3,1.181,1.181,0,0,1-.087.874,7.719,7.719,0,0,0-.106-.831,2.169,2.169,0,0,0-.394-.787,1.968,1.968,0,0,0-.37-.35,1.035,1.035,0,0,0-.453-.209.122.122,0,0,0-.118.067.272.272,0,0,0,0,.177,2.039,2.039,0,0,0,.276.425c.181.26.362.512.539.76A2.617,2.617,0,0,1,289.814,396.39Z" transform="translate(-14.519 -171.28)" fill="#263238"/>
    <path id="Path_2804" data-name="Path 2804" d="M292.725,398.573c-.031,0-.028-.335.287-.736a1.575,1.575,0,0,1,1.854-.464.275.275,0,0,1,.114.216.393.393,0,0,1-.063.209,1.078,1.078,0,0,1-.213.213,2.811,2.811,0,0,1-1.248.575,1.319,1.319,0,0,1-.787,0c0-.047.3-.043.744-.173a3.059,3.059,0,0,0,1.114-.591.838.838,0,0,0,.157-.154c.024-.059,0-.043,0-.059a.548.548,0,0,0-.189-.055,1.57,1.57,0,0,0-.236-.02,1.389,1.389,0,0,0-.449.063,1.516,1.516,0,0,0-.657.394C292.843,398.289,292.768,398.588,292.725,398.573Z" transform="translate(-17.19 -173.289)" fill="#263238"/>
    <g id="Group_133" data-name="Group 133" transform="translate(267.853 224.881)" opacity="0.6">
      <path id="Path_2805" data-name="Path 2805" d="M274.8,400.3a.752.752,0,1,1-.787-.7A.752.752,0,0,1,274.8,400.3Z" transform="translate(-273.294 -399.598)" fill="#fff"/>
    </g>
    <path id="Path_2806" data-name="Path 2806" d="M362.06,117.874a13.1,13.1,0,0,1,1.386-3.712,5.433,5.433,0,0,1,3-2.476,7.255,7.255,0,0,1,4.015.1,6.586,6.586,0,0,1,2.46,1.508,9.045,9.045,0,0,1,2.279,4.086" transform="translate(-59.264 0)" fill="#23807b"/>
    <path id="Path_2807" data-name="Path 2807" d="M374.984,119.106a5.673,5.673,0,0,0-2.149-3.6,7.48,7.48,0,0,0-3.976-1.346,8,8,0,0,0-6.3,2.047,7.768,7.768,0,0,0-2.208,5.779,8.847,8.847,0,0,0,1.622,3.862l12.652-.327C375.381,124.314,375.212,120.519,374.984,119.106Z" transform="translate(-58.213 -1.625)" fill="#23807b"/>
    <path id="Path_2808" data-name="Path 2808" d="M377.093,123.574a6.987,6.987,0,0,0-6.956-6.444h-.362c-3.905.22-5.9,3.657-5.57,7.554l.685,18.006h8.948l-.079-5.862s3.755-.575,3.807-4.33C377.589,130.688,377.337,126.952,377.093,123.574Z" transform="translate(-60.542 -3.444)" fill="#ffbe9d"/>
    <path id="Path_2809" data-name="Path 2809" d="M381.033,164.929a9.113,9.113,0,0,1-4.913-1.449s1.149,2.7,4.893,2.362Z" transform="translate(-67.789 -31.548)" fill="#eb996e"/>
    <path id="Path_2810" data-name="Path 2810" d="M391.591,140.252a.539.539,0,0,1-.52.539.512.512,0,0,1-.551-.484.539.539,0,0,1,.52-.539.512.512,0,0,1,.551.484Z" transform="translate(-76.52 -17.169)" fill="#263238"/>
    <path id="Path_2811" data-name="Path 2811" d="M391.611,137.287c-.067.071-.472-.232-1.047-.232s-1,.287-1.063.217.035-.154.22-.287a1.484,1.484,0,0,1,.85-.264,1.425,1.425,0,0,1,.835.272C391.583,137.129,391.654,137.255,391.611,137.287Z" transform="translate(-75.891 -15.323)" fill="#263238"/>
    <path id="Path_2812" data-name="Path 2812" d="M377.507,140.936a.535.535,0,0,1-.516.539.516.516,0,0,1-.551-.484.535.535,0,0,1,.516-.543.516.516,0,0,1,.551.488Z" transform="translate(-67.983 -17.582)" fill="#263238"/>
    <path id="Path_2813" data-name="Path 2813" d="M377.191,138.023c-.063.071-.472-.232-1.047-.228s-1,.287-1.063.217.039-.157.224-.291a1.445,1.445,0,0,1,.85-.26,1.409,1.409,0,0,1,.835.268C377.164,137.865,377.227,137.991,377.191,138.023Z" transform="translate(-67.148 -15.771)" fill="#263238"/>
    <path id="Path_2814" data-name="Path 2814" d="M385.386,141.876a3.876,3.876,0,0,1,.937-.169c.146,0,.283-.043.311-.142a.747.747,0,0,0-.1-.437l-.433-1.122a19.4,19.4,0,0,1-.972-2.937,19.191,19.191,0,0,1,1.2,2.85c.146.394.283.787.417,1.13a.858.858,0,0,1,.075.579.362.362,0,0,1-.244.213.874.874,0,0,1-.248.035A3.756,3.756,0,0,1,385.386,141.876Z" transform="translate(-73.249 -15.534)" fill="#263238"/>
    <path id="Path_2815" data-name="Path 2815" d="M381.329,150.28c.094,0,.094.622.63,1.067a3.089,3.089,0,0,0,1.2.465c0,.071-.146.122-.429.13a1.575,1.575,0,0,1-1.008-.354,1.343,1.343,0,0,1-.484-.894C381.219,150.433,381.286,150.276,381.329,150.28Z" transform="translate(-70.892 -23.544)" fill="#263238"/>
    <path id="Path_2816" data-name="Path 2816" d="M377.178,134.926c-.055.157-.634.091-1.307.181s-1.22.276-1.315.138c-.039-.067.055-.217.272-.37a2.3,2.3,0,0,1,2-.24C377.088,134.73,377.2,134.852,377.178,134.926Z" transform="translate(-66.836 -13.982)" fill="#263238"/>
    <path id="Path_2817" data-name="Path 2817" d="M391.581,133.182c-.11.142-.61.055-1.181.106s-1.063.2-1.181.075c-.055-.063,0-.2.213-.346a1.933,1.933,0,0,1,.945-.311,1.878,1.878,0,0,1,.976.165C391.546,132.985,391.628,133.111,391.581,133.182Z" transform="translate(-75.72 -12.883)" fill="#263238"/>
    <path id="Path_2818" data-name="Path 2818" d="M361.777,143.2c-.063-.028-2.575-.768-2.5,1.8a1.926,1.926,0,0,0,2.641,1.886C361.923,146.8,361.777,143.2,361.777,143.2Z" transform="translate(-57.576 -19.176)" fill="#ffbe9d"/>
    <path id="Path_2819" data-name="Path 2819" d="M362.688,147.2s-.047.031-.122.071a.437.437,0,0,1-.331,0,1.106,1.106,0,0,1-.543-.976,1.5,1.5,0,0,1,.106-.646.512.512,0,0,1,.327-.35.228.228,0,0,1,.268.114c.035.071.02.122.035.126s.051-.043.028-.15a.287.287,0,0,0-.1-.157.339.339,0,0,0-.252-.059.626.626,0,0,0-.453.413,1.468,1.468,0,0,0-.134.716,1.157,1.157,0,0,0,.685,1.09.468.468,0,0,0,.394-.079C362.684,147.263,362.7,147.2,362.688,147.2Z" transform="translate(-58.931 -20.445)" fill="#eb996e"/>
    <path id="Path_2820" data-name="Path 2820" d="M364.789,118.876l1.268-1.094,4.031.618,2.834-.728.744.815c-.319.429.358-1.4-.287-1.89-1.39-1.055-2.563-1.016-4.33-1.047s-5.295,2.094-6.558,3.3a2.732,2.732,0,0,0-1,1.8c-.161,1.39.614,2.964.921,4.33.161.7.468,2.826.468,2.826h0c.59,0,.787-.468.72-1.051l-.11-2.287a3.456,3.456,0,0,0,1.055-4.035C364.407,120.222,364.081,119.27,364.789,118.876Z" transform="translate(-58.903 -2.486)" fill="#263238"/>
    <path id="Path_2821" data-name="Path 2821" d="M366.557,119.63a1.834,1.834,0,0,1,1.791-1.181,3.149,3.149,0,0,1,2.039.933,2.646,2.646,0,0,0,.461.394.594.594,0,0,0,.567.031c.055-.028.11-.071.169-.055a.185.185,0,0,1,.094.087,1.6,1.6,0,0,0,.594.563.657.657,0,0,0,.76-.114.984.984,0,0,0,1.649-.728.929.929,0,0,0,.933-.354,1.905,1.905,0,0,0-.472-2.909,3.441,3.441,0,0,0-1.24-.358,15.979,15.979,0,0,0-2.031-.154,2.57,2.57,0,0,0-.886.106c-.394.142-.716.461-1.126.512a1.968,1.968,0,0,1-.787-.126,3.075,3.075,0,0,0-1.13-.165,2.986,2.986,0,0,0-1.87,1.181,3.118,3.118,0,0,0-.787,1.362,1.342,1.342,0,0,0,.5,1.409.665.665,0,0,0,.6.079.394.394,0,0,0,.213-.516" transform="translate(-61.194 -2.626)" fill="#263238"/>
    <path id="Path_2822" data-name="Path 2822" d="M362.105,124.991a7.735,7.735,0,0,1,1.484-6.011c1.429-1.681,3.956-2.708,5.629-2.389,1.3.248,4.137.35,5.173,3.078l-.146-2.252a5.261,5.261,0,0,0-4.98-2.48c-3.72.079-5.342.512-7.141,2.7a5.051,5.051,0,0,0-1.027,5,13.354,13.354,0,0,0,1.008,2.354Z" transform="translate(-58.518 -2.114)" fill="#23807b"/>
    <path id="Path_2823" data-name="Path 2823" d="M372.322,115.126a.67.67,0,0,1-.138-.047c-.087-.031-.213-.087-.394-.142a9.174,9.174,0,0,0-1.457-.394,10.413,10.413,0,0,0-2.22-.13,9.055,9.055,0,0,0-2.661.531,8.6,8.6,0,0,0-2.362,1.358,6.3,6.3,0,0,0-.846.835c-.126.138-.228.283-.335.421a3.582,3.582,0,0,0-.276.413,7.9,7.9,0,0,0-.661,1.35c-.067.161-.106.3-.138.394a.6.6,0,0,1-.055.134l.035-.138c.031-.091.063-.224.126-.394a7.264,7.264,0,0,1,.638-1.37c.079-.138.177-.276.272-.421a3.658,3.658,0,0,1,.335-.433,6.691,6.691,0,0,1,.854-.846,8.507,8.507,0,0,1,2.362-1.378,8.882,8.882,0,0,1,2.689-.527,9.727,9.727,0,0,1,2.236.15,8.683,8.683,0,0,1,1.457.394c.169.063.291.126.394.161Z" transform="translate(-58.488 -1.747)" fill="#263238"/>
    <path id="Path_2824" data-name="Path 2824" d="M362.879,127.847a.393.393,0,0,1-.114-.051,2.185,2.185,0,0,1-.279-.2,2.287,2.287,0,0,1-.764-2.063,1.963,1.963,0,0,1,.083-.335c.028-.079.047-.118.051-.114s-.043.173-.071.457a2.516,2.516,0,0,0,.138,1.09,2.476,2.476,0,0,0,.606.917C362.734,127.741,362.887,127.835,362.879,127.847Z" transform="translate(-59.044 -8.264)" fill="#263238"/>
    <path id="Path_2825" data-name="Path 2825" d="M366,122.679a.944.944,0,0,1-.323-.232,2.079,2.079,0,0,1-.516-.819,1.873,1.873,0,0,1-.075-.964.977.977,0,0,1,.13-.394s-.035.15-.071.394a2.114,2.114,0,0,0,.1.925,2.291,2.291,0,0,0,.476.787C365.887,122.581,366.013,122.667,366,122.679Z" transform="translate(-61.083 -5.348)" fill="#263238"/>
    <path id="Path_2826" data-name="Path 2826" d="M370.416,119.231a.937.937,0,0,1-.272-.189,2.244,2.244,0,0,1-.5-.634,1.969,1.969,0,0,1-.209-.787.788.788,0,0,1,.028-.331,2.98,2.98,0,0,0,.26,1.067A4.035,4.035,0,0,0,370.416,119.231Z" transform="translate(-63.735 -3.541)" fill="#263238"/>
    <path id="Path_2827" data-name="Path 2827" d="M376.237,114.84a.764.764,0,0,1,.161.248,3.15,3.15,0,0,1,.256.661,3.4,3.4,0,0,1,.1.7.874.874,0,0,1-.024.3c-.028,0-.028-.449-.165-.976S376.214,114.852,376.237,114.84Z" transform="translate(-67.859 -2.056)" fill="#263238"/>
    <path id="Path_2828" data-name="Path 2828" d="M384.37,114.68a.71.71,0,0,1,.13.264,1.914,1.914,0,0,1,.091.7,1.874,1.874,0,0,1-.169.689.661.661,0,0,1-.161.248,3.15,3.15,0,0,0,.244-.941A3.26,3.26,0,0,0,384.37,114.68Z" transform="translate(-72.725 -1.959)" fill="#263238"/>
    <path id="Path_2829" data-name="Path 2829" d="M389.87,116.18a.839.839,0,0,1,.173.268,1.968,1.968,0,0,1,.177.756,1.857,1.857,0,0,1-.138.76.787.787,0,0,1-.157.279,3.008,3.008,0,0,0,.2-1.039,2.972,2.972,0,0,0-.26-1.024Z" transform="translate(-76.126 -2.868)" fill="#263238"/>
    <path id="Path_2830" data-name="Path 2830" d="M394.163,120.67a.556.556,0,0,1,.043.252,1.72,1.72,0,0,1-.394,1.157c-.106.122-.189.177-.193.169a3.479,3.479,0,0,0,.421-.74A3.364,3.364,0,0,0,394.163,120.67Z" transform="translate(-78.4 -5.591)" fill="#263238"/>
    <path id="Path_2831" data-name="Path 2831" d="M396.541,126.26a1,1,0,0,1-.2.606.964.964,0,0,1-.476.421,4.924,4.924,0,0,0,.394-.472A3.629,3.629,0,0,0,396.541,126.26Z" transform="translate(-79.758 -8.98)" fill="#263238"/>
    <path id="Path_2832" data-name="Path 2832" d="M397.291,132.549c.02,0,0,.154-.138.272s-.283.13-.283.106.114-.071.224-.173S397.264,132.542,397.291,132.549Z" transform="translate(-80.371 -12.793)" fill="#263238"/>
    <path id="Path_2833" data-name="Path 2833" d="M361.835,136.261a1.913,1.913,0,0,1-1.405-.961A3.374,3.374,0,0,0,361.835,136.261Z" transform="translate(-58.276 -14.462)" fill="#263238"/>
    <path id="Path_2834" data-name="Path 2834" d="M363.431,140.885a.445.445,0,0,1-.354.161c-.228.012-.394-.1-.37-.118s.165.043.366.028S363.419,140.865,363.431,140.885Z" transform="translate(-59.655 -17.846)" fill="#263238"/>
    <g id="Group_134" data-name="Group 134" transform="translate(303.469 112.115)" opacity="0.3">
      <path id="Path_2835" data-name="Path 2835" d="M373.828,114.316a7.184,7.184,0,0,0-5.511-1,7.381,7.381,0,0,0-4.547,3.429s2.319-2.933,5.641-3.035S373.828,114.316,373.828,114.316Z" transform="translate(-363.77 -113.139)"/>
    </g>
    <path id="Path_2836" data-name="Path 2836" d="M376.852,138.27a3.748,3.748,0,0,0-.075-.461,1.905,1.905,0,0,0-.7-1.031,1.862,1.862,0,0,0-.787-.346,1.893,1.893,0,0,0-.984.083,1.873,1.873,0,1,0,1.775,3.252,1.917,1.917,0,0,0,.7-1.031,3.6,3.6,0,0,0,.075-.465,1.475,1.475,0,0,1-.043.472,1.9,1.9,0,0,1-.689,1.075,1.968,1.968,0,0,1-.819.366,1.917,1.917,0,0,1-1.024-.079,1.826,1.826,0,0,1-.5-.264,1.87,1.87,0,0,1-.413-.394,1.941,1.941,0,0,1,0-2.311,1.869,1.869,0,0,1,.413-.413,1.826,1.826,0,0,1,.5-.264,1.925,1.925,0,0,1,1.842.287,1.9,1.9,0,0,1,.689,1.075,1.457,1.457,0,0,1,.039.449Z" transform="translate(-65.892 -15.093)" fill="#455a64"/>
    <path id="Path_2837" data-name="Path 2837" d="M391.365,137.67a1.967,1.967,0,0,0-.079-.461,1.905,1.905,0,0,0-.7-1.031,1.838,1.838,0,0,0-.787-.346,1.893,1.893,0,0,0-.984.083,1.843,1.843,0,0,0-.472.256,1.874,1.874,0,0,0,0,3,1.842,1.842,0,0,0,.472.256,1.886,1.886,0,0,0,1.775-.264,1.917,1.917,0,0,0,.7-1.031c.075-.291.063-.465.079-.465a1.64,1.64,0,0,1-.043.472,1.929,1.929,0,0,1-.693,1.075,1.968,1.968,0,0,1-.819.366,1.917,1.917,0,0,1-1.024-.079,1.885,1.885,0,0,1-.5-.264,1.947,1.947,0,1,1,3.031-2.039,1.619,1.619,0,0,1,.039.468Z" transform="translate(-74.688 -14.717)" fill="#455a64"/>
    <path id="Path_2838" data-name="Path 2838" d="M384.453,138.174a2.539,2.539,0,0,0-.3-.165,1.575,1.575,0,0,0-1.575.091c-.181.114-.272.213-.279.2a.72.72,0,0,1,.244-.252,1.472,1.472,0,0,1,.787-.291,1.5,1.5,0,0,1,.827.2A.787.787,0,0,1,384.453,138.174Z" transform="translate(-71.536 -15.95)" fill="#455a64"/>
    <path id="Path_2839" data-name="Path 2839" d="M368.1,140.337c0,.024-.76.283-1.716.583s-1.736.516-1.74.5.76-.283,1.712-.583A17.487,17.487,0,0,1,368.1,140.337Z" transform="translate(-60.828 -17.515)" fill="#455a64"/>
    <path id="Path_2840" data-name="Path 2840" d="M375.363,143.045a.826.826,0,0,1-.335-.043,1.759,1.759,0,0,1-.7-.394,1.8,1.8,0,0,1-.457-.677.787.787,0,0,1-.067-.331,2.977,2.977,0,0,1,.126.307,2.016,2.016,0,0,0,1.134,1.031,3.019,3.019,0,0,1,.3.106Z" transform="translate(-66.382 -18.281)" fill="#fff"/>
    <path id="Path_2841" data-name="Path 2841" d="M388.738,140.806a.528.528,0,0,1-.256-.169,1.394,1.394,0,0,1-.311-.673,1.836,1.836,0,0,1,0-.744.579.579,0,0,1,.122-.279,3.014,3.014,0,0,0-.063.3,2.305,2.305,0,0,0,0,.713,1.575,1.575,0,0,0,.272.65A2.082,2.082,0,0,0,388.738,140.806Z" transform="translate(-75.073 -16.669)" fill="#fff"/>
    <path id="Path_2842" data-name="Path 2842" d="M382.64,150.021a.61.61,0,0,1,.165-.224c.11-.106.2-.181.224-.161s-.055.118-.165.224S382.66,150.037,382.64,150.021Z" transform="translate(-71.742 -23.152)" fill="#263238"/>
    <path id="Path_2843" data-name="Path 2843" d="M383.34,150.29a1.219,1.219,0,0,1,.161-.272c.106-.134.209-.236.224-.22s-.051.138-.157.272S383.36,150.305,383.34,150.29Z" transform="translate(-72.167 -23.251)" fill="#263238"/>
    <path id="Path_2844" data-name="Path 2844" d="M384.051,150.767c-.024,0,.024-.138.1-.283s.157-.252.181-.244-.024.142-.1.287S384.07,150.779,384.051,150.767Z" transform="translate(-72.594 -23.52)" fill="#263238"/>
    <path id="Path_2845" data-name="Path 2845" d="M385.1,150.99c-.024,0-.035-.091-.028-.2s.035-.193.059-.193.035.091.028.2S385.131,150.99,385.1,150.99Z" transform="translate(-73.218 -23.739)" fill="#263238"/>
    <path id="Path_2846" data-name="Path 2846" d="M386.127,151.22c-.028,0-.047-.079-.047-.173s.02-.177.047-.177.043.079.043.177S386.151,151.22,386.127,151.22Z" transform="translate(-73.828 -23.902)" fill="#263238"/>
    <path id="Path_2847" data-name="Path 2847" d="M386.992,151.146c-.024,0-.067-.091-.1-.217s-.031-.236,0-.24.067.094.094.22S387.016,151.143,386.992,151.146Z" transform="translate(-74.307 -23.793)" fill="#263238"/>
    <path id="Path_2848" data-name="Path 2848" d="M362.735,152a.622.622,0,0,1-.114.437.6.6,0,0,1-.417.283.59.59,0,0,1-.559-.244.787.787,0,0,1-.134-.6.689.689,0,0,1,.287-.413.547.547,0,0,1,.437-.106,1,1,0,0,0-.394.157.658.658,0,0,0-.244.394.74.74,0,0,0,.126.531.52.52,0,0,0,.48.213.528.528,0,0,0,.37-.236A1.181,1.181,0,0,0,362.735,152Z" transform="translate(-58.923 -24.191)" fill="#263238"/>
    <path id="Path_2849" data-name="Path 2849" d="M349.454,286.563c.476,0,20.143,20.47,20.143,21.891s2.921,15.841,4.33,18.061,2.256,1.7,2.256,1.7l6.539-3.047s-3.622-22.439-4.417-24.962-15.794-22.368-15.794-22.368l-14.172,2.7Z" transform="translate(-50.945 -100.89)" fill="#263238"/>
    <path id="Path_2850" data-name="Path 2850" d="M301.221,274l-4.086,25.233s-12.782,12.8-13.577,14.223c0,0-1.425-.476-1.9.787a26.628,26.628,0,0,0-.886,3.633l6.346,5.33s16.766-13.9,18.352-15.963,8.231-15.664,9.5-19.151a104.167,104.167,0,0,0,2.756-11.223Z" transform="translate(-9.974 -98.561)" fill="#263238"/>
    <path id="Path_2851" data-name="Path 2851" d="M405.635,344a2.837,2.837,0,0,1-.283.787,10.968,10.968,0,0,1-1.008,1.756,9.475,9.475,0,0,1-1.323,1.539,2.318,2.318,0,0,1-.681.5,6.524,6.524,0,0,1,.579-.6,13.941,13.941,0,0,0,1.256-1.575C405.08,345.144,405.576,343.963,405.635,344Z" transform="translate(-83.687 -141.004)" fill="#455a64"/>
    <path id="Path_2852" data-name="Path 2852" d="M324.777,339.824a2.2,2.2,0,0,1-1.346-.583,2.24,2.24,0,0,1-.85-1.181,11.7,11.7,0,0,0,.98,1.035A11.483,11.483,0,0,0,324.777,339.824Z" transform="translate(-35.326 -137.403)" fill="#455a64"/>
    <path id="Path_2853" data-name="Path 2853" d="M290.933,377.428a4.507,4.507,0,0,1-2.413-3.358,11.507,11.507,0,0,0,.968,1.85A10.838,10.838,0,0,0,290.933,377.428Z" transform="translate(-14.673 -159.238)" fill="#455a64"/>
    <path id="Path_2854" data-name="Path 2854" d="M337.995,283.479a.973.973,0,0,1-.083.283,5.637,5.637,0,0,1-.331.732,8.172,8.172,0,0,1-3.822,3.574,5.571,5.571,0,0,1-.752.283.818.818,0,0,1-.287.063c0-.035.394-.173.976-.476a9.507,9.507,0,0,0,2.126-1.492,9.61,9.61,0,0,0,1.634-2.023A8.63,8.63,0,0,1,337.995,283.479Z" transform="translate(-41.474 -104.309)" fill="#455a64"/>
    <path id="Path_2855" data-name="Path 2855" d="M360.66,299.86a4.687,4.687,0,0,1-.22.646c-.173.441-.394,1.023-.673,1.732-.583,1.453-1.4,3.46-2.382,5.645s-1.937,4.133-2.638,5.535l-.842,1.653a4.409,4.409,0,0,1-.335.594,4.623,4.623,0,0,1,.264-.63l.787-1.681c.669-1.421,1.6-3.374,2.578-5.555s1.819-4.177,2.433-5.621c.3-.693.551-1.268.736-1.7A4.476,4.476,0,0,1,360.66,299.86Z" transform="translate(-54.116 -114.241)" fill="#455a64"/>
    <path id="Path_2856" data-name="Path 2856" d="M343.914,165.977s-4.33,1.744-5.334,4.787c-.512,1.539-3.5,12.794-3.5,12.794s-3.937,21.612-3.393,23.671l22.529,3.46h0a3.468,3.468,0,0,0,.787-2.413l-.366-6.476.264-27.757a3.6,3.6,0,0,0-.043-.618l-.787-5.118.252-2.208-10.1-2.669Z" transform="translate(-40.818 -31.518)" fill="#23807b"/>
    <path id="Path_2857" data-name="Path 2857" d="M361.256,163.858h0a1.248,1.248,0,0,1,1.551-1.012l9.231,2.437a1.252,1.252,0,0,1,.929,1.275l-.024.394a1.248,1.248,0,0,1-1.614,1.118l-9.208-2.826a1.244,1.244,0,0,1-.866-1.386Z" transform="translate(-58.767 -31.139)" fill="#23807b"/>
    <path id="Path_2858" data-name="Path 2858" d="M374.017,168.277a2.448,2.448,0,0,1-.48-.091l-1.279-.323c-1.083-.283-2.571-.685-4.208-1.142l-2.2-.622h0a5.73,5.73,0,0,1-.815-.189,2.012,2.012,0,0,1-.366-.157.63.63,0,0,1-.169-.126,1.031,1.031,0,0,1-.11-.169,1.228,1.228,0,0,1-.087-.689,2.209,2.209,0,0,1,.154-.563,2.468,2.468,0,0,1,.425-.693c.13-.138.217-.193.22-.185a3.235,3.235,0,0,0-.539.921,1.575,1.575,0,0,0-.031,1.138c.087.2.315.272.559.354a5.243,5.243,0,0,0,.787.169h0l2.2.606c1.638.457,3.122.882,4.192,1.181l1.264.394a2.679,2.679,0,0,1,.48.185Z" transform="translate(-60.616 -31.456)" fill="#263238"/>
    <path id="Path_2859" data-name="Path 2859" d="M389.21,179.9a.819.819,0,0,1,.039.2c.02.157.043.35.071.587.055.512.126,1.252.193,2.169.146,1.834.291,4.37.374,7.172s.075,5.346,0,7.184c-.028.917-.067,1.661-.1,2.173-.02.24-.039.433-.051.59a.674.674,0,0,1-.031.2.822.822,0,0,1,0-.2c0-.161,0-.354,0-.594,0-.512.031-1.256.039-2.173.028-1.834,0-4.374-.071-7.176s-.2-5.334-.311-7.165c-.055-.9-.1-1.63-.134-2.173,0-.236-.02-.433-.028-.59A.928.928,0,0,1,389.21,179.9Z" transform="translate(-75.718 -41.504)" fill="#263238"/>
    <path id="Path_2860" data-name="Path 2860" d="M371.641,165.21a7.532,7.532,0,0,0-.366,1.142,8.157,8.157,0,0,0,0,1.181,1.575,1.575,0,0,1-.2-1.228A1.6,1.6,0,0,1,371.641,165.21Z" transform="translate(-64.699 -32.597)" fill="#263238"/>
    <path id="Path_2861" data-name="Path 2861" d="M378.528,166.74a.68.68,0,0,1,.193.339,1.905,1.905,0,0,1-.354,1.791c-.157.181-.291.256-.307.236a3.937,3.937,0,0,0,.512-1.126A4.14,4.14,0,0,0,378.528,166.74Z" transform="translate(-68.965 -33.525)" fill="#263238"/>
    <path id="Path_2862" data-name="Path 2862" d="M385.158,168.54c.02,0,.126.094.22.315a1.7,1.7,0,0,1-.287,1.775c-.161.181-.3.248-.311.228a2.3,2.3,0,0,0,.394-2.319Z" transform="translate(-73.04 -34.616)" fill="#263238"/>
    <path id="Path_2863" data-name="Path 2863" d="M350.835,176.093a7.742,7.742,0,0,0-5.511-5.22,6.8,6.8,0,0,0-6.893,2.2l-2.362,5.019c1.047-.583,2.724-3.988,4.677-5.145s4.126-1.181,5.732.429a6.651,6.651,0,0,1,2.039,4.582c-.055,3.3-1.429,6.393-2.429,9.542-1.283,4.039-2.3,8.346-5.263,11.381-2.382,2.437-5.57,3.889-8.66,5.287-.732.6-2.425,2.791-1.551,3.149s4.051-.787,4.952-1.067c2.248-.685,4.582-1.421,6.3-3.035a15.513,15.513,0,0,0,3.267-5.614c1.575-3.905,2.606-7.976,4.185-11.885C350.654,182.387,351.985,179.494,350.835,176.093Z" transform="translate(-40.048 -35.922)" fill="#455a64"/>
    <path id="Path_2864" data-name="Path 2864" d="M361.212,286.511l-1.8-3.031-6.007,2.094h0s.394,5.338,1.181,5.492a1.649,1.649,0,0,0,1.342-.362s.449,1.394,1.346,1.453l.5.024a2.347,2.347,0,0,0,1.83.543s.693,1.5,1.252,1.346.921-1.968.921-1.968Z" transform="translate(-54.019 -104.309)" fill="#ffbe9d"/>
    <path id="Path_2865" data-name="Path 2865" d="M347.166,174.14a6.3,6.3,0,0,0-4.086,4.661c-1.181,5.657-4,20.47-3.885,22.557.146,2.653,5.2,18.376,5.2,18.376l7.086-2.134-3.216-17.715s5.019-16.573,5.413-19.092C354.114,178.041,351.713,172.565,347.166,174.14Z" transform="translate(-45.398 -37.842)" fill="#23807b"/>
    <path id="Path_2866" data-name="Path 2866" d="M347.05,174.113a4.333,4.333,0,0,1,.551-.177,3.937,3.937,0,0,1,1.677-.087,4.224,4.224,0,0,1,2.342,1.3,8.062,8.062,0,0,1,2.059,5.31,5.542,5.542,0,0,1-.146,1.153c-.079.394-.177.787-.272,1.181-.394,1.575-.882,3.279-1.4,5.082-1.043,3.606-2.256,7.641-3.6,12v-.043l3.224,17.715v.091l-.087.028-3.322,1-3.779,1.138-.1.028-.028-.094c-1.051-3.224-2.043-6.373-2.956-9.42-.453-1.523-.894-3.019-1.291-4.5-.2-.736-.394-1.464-.563-2.193-.091-.362-.165-.728-.236-1.09a7.915,7.915,0,0,1-.122-1.1,17.428,17.428,0,0,1,.193-2.157c.1-.7.2-1.39.307-2.071.213-1.358.445-2.669.669-3.937.453-2.535.9-4.885,1.315-7.023l1.138-5.763a21.872,21.872,0,0,1,.535-2.362,6.861,6.861,0,0,1,.929-1.8,6.3,6.3,0,0,1,2.082-1.838,4.723,4.723,0,0,1,.89-.394s-.075.039-.224.1a5.514,5.514,0,0,0-.646.319,6.341,6.341,0,0,0-2.039,1.846,6.912,6.912,0,0,0-.905,1.779,23.466,23.466,0,0,0-.516,2.338c-.327,1.7-.7,3.63-1.11,5.767s-.842,4.5-1.287,7.027c-.22,1.268-.445,2.578-.657,3.937-.11.677-.209,1.366-.3,2.067a18.224,18.224,0,0,0-.185,2.126,7.776,7.776,0,0,0,.15,1.071c.067.362.146.72.236,1.083.165.724.366,1.453.563,2.185.394,1.472.842,2.968,1.3,4.488.917,3.043,1.909,6.192,2.96,9.416l-.126-.067,3.779-1.134,3.322-1-.071.118c-1.142-6.3-2.224-12.294-3.208-17.715V199.8c1.35-4.358,2.575-8.385,3.63-11.987.524-1.8,1.012-3.492,1.417-5.07a11.28,11.28,0,0,0,.429-2.291,8.05,8.05,0,0,0-2-5.251,4.193,4.193,0,0,0-2.291-1.3,3.976,3.976,0,0,0-1.661.059,3.786,3.786,0,0,0-.413.11A1.393,1.393,0,0,1,347.05,174.113Z" transform="translate(-45.282 -37.804)" fill="#263238"/>
    <path id="Path_2867" data-name="Path 2867" d="M356.528,237.634a6.936,6.936,0,0,0-3.858-1.3A4.33,4.33,0,0,1,356.528,237.634Z" transform="translate(-53.57 -75.685)" fill="#263238"/>
    <g id="Group_135" data-name="Group 135" transform="translate(293.36 160.318)" opacity="0.3">
      <path id="Path_2868" data-name="Path 2868" d="M342.018,252.2c-3.3-4.9-5.039-11.743-3.149-16.612a17.435,17.435,0,0,0,.846,8.412c.87,2.83,1.909,5.653,2.078,8.609" transform="translate(-338.089 -235.59)"/>
    </g>
  </g>
</svg>
