<svg width="230" height="215" viewBox="0 0 230 215" fill="none" xmlns="http://www.w3.org/2000/svg">
<path d="M10.0703 175.672C10.0703 176.264 10.0475 177.199 10.002 178.475C10.002 179.751 9.97917 181.186 9.93359 182.781C9.88802 184.376 9.81966 186.04 9.72852 187.771C9.68294 189.458 9.5918 191.007 9.45508 192.42C9.31836 193.787 9.15885 194.926 8.97656 195.838C8.83984 196.749 8.65755 197.205 8.42969 197.205C7.74609 197.205 7.08529 196.727 6.44727 195.77C5.85482 194.767 5.23958 193.696 4.60156 192.557C4.46484 192.283 4.30534 191.486 4.12305 190.164C3.98633 188.797 3.82682 187.088 3.64453 185.037C3.50781 182.986 3.37109 180.708 3.23438 178.201C3.09766 175.695 2.96094 173.143 2.82422 170.545C2.6875 167.947 2.57357 165.395 2.48242 162.889C2.43685 160.382 2.39128 158.126 2.3457 156.121C2.30013 154.116 2.30013 152.452 2.3457 151.131C2.39128 149.764 2.48242 148.966 2.61914 148.738C2.80143 148.419 3.43945 148.191 4.5332 148.055C5.62695 147.872 6.94857 147.781 8.49805 147.781C10.0931 147.781 11.8021 147.827 13.625 147.918C15.4479 148.009 17.1341 148.146 18.6836 148.328C20.2786 148.465 21.6003 148.624 22.6484 148.807C23.7422 148.989 24.3574 149.148 24.4941 149.285C24.6764 149.467 24.6992 149.969 24.5625 150.789C24.4714 151.564 24.2891 152.43 24.0156 153.387C23.7878 154.298 23.4915 155.164 23.127 155.984C22.8079 156.805 22.5345 157.329 22.3066 157.557C22.0788 157.785 21.0078 157.762 19.0938 157.488C17.2253 157.215 14.2174 156.896 10.0703 156.531V167.947C13.2604 168.221 15.7441 168.471 17.5215 168.699C19.3444 168.927 20.3014 169.087 20.3926 169.178C20.5749 169.36 20.6432 169.725 20.5977 170.271C20.5521 170.818 20.4382 171.411 20.2559 172.049C20.0736 172.641 19.8457 173.211 19.5723 173.758C19.2988 174.259 19.0254 174.601 18.752 174.783C18.6152 174.874 17.7949 175.011 16.291 175.193C14.8327 175.376 12.7591 175.535 10.0703 175.672ZM42.3359 161.043C42.6094 161.362 42.86 161.704 43.0879 162.068C43.3158 162.387 43.5208 162.843 43.7031 163.436C43.8854 163.982 44.0221 164.712 44.1133 165.623C44.25 166.535 44.3184 167.719 44.3184 169.178C44.3184 171.502 44.25 173.849 44.1133 176.219C44.0221 178.543 43.931 180.594 43.8398 182.371C43.7943 183.966 43.7487 185.447 43.7031 186.814C43.6576 188.182 43.612 189.389 43.5664 190.438C43.5208 191.44 43.4525 192.238 43.3613 192.83C43.3158 193.423 43.2702 193.742 43.2246 193.787C43.0423 193.924 42.7461 193.878 42.3359 193.65C41.9714 193.377 41.5612 193.035 41.1055 192.625C40.6953 192.215 40.3079 191.782 39.9434 191.326C39.5788 190.87 39.3509 190.506 39.2598 190.232C39.2598 190.005 39.1914 189.344 39.0547 188.25C37.9609 188.888 36.7533 189.344 35.4316 189.617C34.11 189.845 32.7884 189.936 31.4668 189.891C30.1908 189.799 29.0059 189.549 27.9121 189.139C26.8184 188.729 25.998 188.182 25.4512 187.498C25.2233 187.225 25.0182 186.814 24.8359 186.268C24.6992 185.721 24.5625 185.105 24.4258 184.422C24.3346 183.693 24.2435 182.941 24.1523 182.166C24.0612 181.346 23.9928 180.594 23.9473 179.91C23.8561 178.133 24.084 176.606 24.6309 175.33C25.1777 174.008 26.1803 173.029 27.6387 172.391C28.2767 172.117 29.1198 171.98 30.168 171.98C31.2617 171.935 32.3327 171.98 33.3809 172.117C34.4746 172.208 35.4544 172.345 36.3203 172.527C37.1862 172.664 37.7331 172.778 37.9609 172.869C37.7786 170.545 37.6419 168.54 37.5508 166.854C37.4596 165.122 37.2773 164.005 37.0039 163.504C36.776 163.185 36.5026 162.866 36.1836 162.547C35.9102 162.319 35.5456 162.068 35.0898 161.795C34.6341 161.521 34.0872 161.316 33.4492 161.18C32.9479 161.089 32.4922 161.294 32.082 161.795C31.7174 162.251 31.3757 163.071 31.0566 164.256C30.7832 165.395 30.6237 167.15 30.5781 169.52C28.9831 169.565 27.7526 169.565 26.8867 169.52C26.0664 169.428 25.4512 169.337 25.041 169.246C24.5397 169.155 24.2435 169.041 24.1523 168.904C24.0612 168.722 24.1068 168.061 24.2891 166.922C24.4714 165.737 24.722 164.461 25.041 163.094C25.4056 161.727 25.8158 160.428 26.2715 159.197C26.7728 157.967 27.2969 157.192 27.8438 156.873C28.9375 156.235 30.2363 156.007 31.7402 156.189C33.2897 156.372 34.7936 156.759 36.252 157.352C37.7103 157.944 39.0091 158.605 40.1484 159.334C41.2878 160.063 42.0169 160.633 42.3359 161.043ZM38.0977 181.004C38.0977 180.776 38.1204 180.48 38.166 180.115C38.2116 179.705 38.2344 179.295 38.2344 178.885C38.2344 178.475 38.2116 178.087 38.166 177.723C38.166 177.358 38.1204 177.085 38.0293 176.902C37.8926 176.629 37.4824 176.401 36.7988 176.219C36.1608 176.036 35.4316 175.923 34.6113 175.877C33.791 175.786 33.0163 175.763 32.2871 175.809C31.5579 175.809 31.0566 175.9 30.7832 176.082C30.4186 176.31 30.1452 176.629 29.9629 177.039C29.8262 177.449 29.735 178.087 29.6895 178.953C29.6895 179.363 29.7122 179.796 29.7578 180.252C29.8034 180.708 29.849 181.163 29.8945 181.619C29.9857 182.029 30.0768 182.394 30.168 182.713C30.3047 183.032 30.4414 183.237 30.5781 183.328C30.8971 183.556 31.444 183.761 32.2188 183.943C33.0391 184.08 33.8594 184.126 34.6797 184.08C35.5 183.989 36.252 183.715 36.9355 183.26C37.6191 182.804 38.0065 182.052 38.0977 181.004ZM68.1074 168.357C68.1074 169.087 68.0163 170.135 67.834 171.502C67.6973 172.869 67.4922 174.373 67.2188 176.014C66.9453 177.609 66.6491 179.272 66.3301 181.004C66.0566 182.69 65.7604 184.24 65.4414 185.652C65.168 187.065 64.9173 188.25 64.6895 189.207C64.5072 190.164 64.3932 190.688 64.3477 190.779C64.2565 190.916 64.0059 191.007 63.5957 191.053C63.2311 191.053 62.7982 191.007 62.2969 190.916C61.8411 190.825 61.4082 190.688 60.998 190.506C60.6335 190.324 60.4056 190.096 60.3145 189.822C60.2689 189.64 60.2461 189.002 60.2461 187.908C60.2917 186.814 60.3372 185.516 60.3828 184.012C60.474 182.462 60.5651 180.822 60.6562 179.09C60.7474 177.312 60.8385 175.672 60.9297 174.168C61.0664 172.618 61.1576 171.297 61.2031 170.203C61.2943 169.109 61.3398 168.449 61.3398 168.221C61.3398 167.4 61.2487 166.626 61.0664 165.896C60.9297 165.122 60.7474 164.461 60.5195 163.914C60.2917 163.367 60.0182 162.957 59.6992 162.684C59.4258 162.365 59.1751 162.251 58.9473 162.342C58.3548 162.433 57.8535 162.592 57.4434 162.82C57.0332 163.003 56.6914 163.208 56.418 163.436C56.099 163.709 55.8483 164.028 55.666 164.393C55.6204 164.484 55.5293 164.757 55.3926 165.213C55.3014 165.669 55.2559 166.193 55.2559 166.785C55.2559 166.967 55.2559 167.628 55.2559 168.768C55.2559 169.861 55.2331 171.183 55.1875 172.732C55.1875 174.282 55.1647 175.968 55.1191 177.791C55.1191 179.568 55.0964 181.232 55.0508 182.781C55.0508 184.285 55.028 185.584 54.9824 186.678C54.9368 187.771 54.8913 188.387 54.8457 188.523C54.7546 188.797 54.5267 189.184 54.1621 189.686C53.7975 190.141 53.3874 190.574 52.9316 190.984C52.4759 191.395 52.043 191.714 51.6328 191.941C51.2227 192.124 50.9492 192.078 50.8125 191.805C50.6758 191.668 50.5391 191.007 50.4023 189.822C50.2656 188.592 50.1061 187.111 49.9238 185.379C49.7871 183.602 49.6276 181.688 49.4453 179.637C49.263 177.54 49.1035 175.535 48.9668 173.621C48.8301 171.707 48.7161 169.975 48.625 168.426C48.5339 166.876 48.4655 165.76 48.4199 165.076C48.3743 164.119 48.3288 163.048 48.2832 161.863C48.2376 160.633 48.1921 159.493 48.1465 158.445C48.1465 157.352 48.1465 156.417 48.1465 155.643C48.1921 154.822 48.2832 154.321 48.4199 154.139C48.5111 153.956 48.8073 153.911 49.3086 154.002C49.8555 154.093 50.4251 154.275 51.0176 154.549C51.6556 154.777 52.248 155.073 52.7949 155.438C53.3418 155.757 53.7064 156.076 53.8887 156.395C53.9798 156.668 54.0938 156.987 54.2305 157.352C54.3672 157.671 54.4811 158.217 54.5723 158.992C55.347 158.536 56.1901 158.126 57.1016 157.762C58.013 157.352 58.9017 157.055 59.7676 156.873C60.679 156.645 61.5449 156.577 62.3652 156.668C63.1855 156.714 63.9147 156.941 64.5527 157.352C64.9629 157.671 65.373 158.217 65.7832 158.992C66.2389 159.767 66.6263 160.678 66.9453 161.727C67.3099 162.775 67.5833 163.891 67.7656 165.076C67.9935 166.215 68.1074 167.309 68.1074 168.357ZM79.1816 167.605C79.2728 167.833 79.3184 168.562 79.3184 169.793C79.3639 170.978 79.3639 172.436 79.3184 174.168C79.3184 175.854 79.2728 177.677 79.1816 179.637C79.0905 181.551 78.9766 183.374 78.8398 185.105C78.7487 186.792 78.6348 188.25 78.498 189.48C78.3613 190.665 78.2246 191.372 78.0879 191.6C77.6777 192.238 77.0625 192.648 76.2422 192.83C75.4219 192.967 74.8294 192.99 74.4648 192.898C74.2826 192.898 74.0775 192.374 73.8496 191.326C73.6673 190.278 73.485 188.956 73.3027 187.361C73.1204 185.766 72.9609 184.035 72.8242 182.166C72.6875 180.298 72.5736 178.52 72.4824 176.834C72.3913 175.102 72.3457 173.598 72.3457 172.322C72.3457 171.046 72.3913 170.226 72.4824 169.861C72.6191 169.269 73.0065 168.745 73.6445 168.289C74.3281 167.833 75.0345 167.492 75.7637 167.264C76.5384 167.036 77.2448 166.945 77.8828 166.99C78.5664 166.99 78.9993 167.195 79.1816 167.605ZM79.5234 156.531C79.7057 156.896 79.7741 157.397 79.7285 158.035C79.7285 158.673 79.6602 159.334 79.5234 160.018C79.3867 160.701 79.2044 161.362 78.9766 162C78.7487 162.638 78.5208 163.139 78.293 163.504C77.8372 164.142 77.1536 164.552 76.2422 164.734C75.3763 164.871 74.7383 164.894 74.3281 164.803C74.0091 164.757 73.6901 164.552 73.3711 164.188C73.0521 163.777 72.7786 163.299 72.5508 162.752C72.3229 162.16 72.1634 161.521 72.0723 160.838C71.9811 160.154 72.0039 159.516 72.1406 158.924C72.2773 158.331 72.7103 157.807 73.4395 157.352C74.1686 156.85 74.9434 156.486 75.7637 156.258C76.584 155.984 77.3587 155.87 78.0879 155.916C78.8171 155.916 79.2956 156.121 79.5234 156.531ZM114.318 160.838C114.774 161.111 115.23 161.613 115.686 162.342C116.187 163.025 116.62 163.846 116.984 164.803C117.395 165.76 117.714 166.785 117.941 167.879C118.169 168.927 118.283 169.93 118.283 170.887C118.283 171.57 118.192 172.527 118.01 173.758C117.873 174.943 117.668 176.264 117.395 177.723C117.121 179.135 116.825 180.617 116.506 182.166C116.187 183.67 115.868 185.06 115.549 186.336C115.275 187.612 115.025 188.706 114.797 189.617C114.569 190.483 114.41 191.007 114.318 191.189C114.09 191.736 113.885 192.215 113.703 192.625C113.566 192.99 113.384 193.263 113.156 193.445C112.655 193.81 112.017 194.083 111.242 194.266C110.467 194.402 109.67 194.493 108.85 194.539C108.029 194.585 107.232 194.585 106.457 194.539C105.728 194.448 105.158 194.334 104.748 194.197C104.566 194.152 104.361 194.106 104.133 194.061C103.951 193.969 103.745 193.878 103.518 193.787C103.062 194.562 102.538 195.268 101.945 195.906C101.353 196.499 100.806 196.749 100.305 196.658C100.122 196.613 99.9173 195.861 99.6895 194.402C99.5072 192.944 99.3021 191.03 99.0742 188.66C98.8464 186.245 98.6185 183.51 98.3906 180.457C98.1628 177.404 97.9577 174.282 97.7754 171.092C97.5931 167.856 97.4336 164.689 97.2969 161.59C97.1602 158.491 97.0462 155.734 96.9551 153.318C96.9095 150.857 96.9095 148.852 96.9551 147.303C97.0007 145.708 97.1146 144.842 97.2969 144.705C97.4792 144.568 97.8893 144.682 98.5273 145.047C99.2109 145.366 99.9401 145.867 100.715 146.551C101.49 147.189 102.196 147.964 102.834 148.875C103.518 149.786 103.973 150.721 104.201 151.678C104.338 152.407 104.429 153.66 104.475 155.438C104.566 157.215 104.611 159.311 104.611 161.727C106.617 160.952 108.462 160.451 110.148 160.223C111.88 159.995 113.27 160.2 114.318 160.838ZM111.379 170.887C111.379 170.158 111.265 169.451 111.037 168.768C110.809 168.038 110.536 167.423 110.217 166.922C109.898 166.375 109.556 165.965 109.191 165.691C108.827 165.418 108.508 165.327 108.234 165.418C107.733 165.509 107.255 165.646 106.799 165.828C106.343 165.965 105.956 166.102 105.637 166.238C105.227 166.421 104.885 166.58 104.611 166.717C104.566 169.406 104.497 172.14 104.406 174.92C104.361 177.7 104.338 180.298 104.338 182.713C104.338 183.898 104.361 184.946 104.406 185.857C104.452 186.723 104.475 187.27 104.475 187.498C104.611 188.592 104.908 189.367 105.363 189.822C105.5 189.913 105.705 190.05 105.979 190.232C106.298 190.369 106.617 190.506 106.936 190.643C107.3 190.734 107.642 190.802 107.961 190.848C108.28 190.848 108.553 190.757 108.781 190.574C108.827 190.529 108.918 190.027 109.055 189.07C109.237 188.068 109.419 186.86 109.602 185.447C109.784 184.035 109.966 182.508 110.148 180.867C110.376 179.181 110.581 177.632 110.764 176.219C110.946 174.76 111.083 173.53 111.174 172.527C111.311 171.525 111.379 170.978 111.379 170.887ZM139.475 161.043C139.748 161.362 139.999 161.704 140.227 162.068C140.454 162.387 140.66 162.843 140.842 163.436C141.024 163.982 141.161 164.712 141.252 165.623C141.389 166.535 141.457 167.719 141.457 169.178C141.457 171.502 141.389 173.849 141.252 176.219C141.161 178.543 141.07 180.594 140.979 182.371C140.933 183.966 140.887 185.447 140.842 186.814C140.796 188.182 140.751 189.389 140.705 190.438C140.66 191.44 140.591 192.238 140.5 192.83C140.454 193.423 140.409 193.742 140.363 193.787C140.181 193.924 139.885 193.878 139.475 193.65C139.11 193.377 138.7 193.035 138.244 192.625C137.834 192.215 137.447 191.782 137.082 191.326C136.717 190.87 136.49 190.506 136.398 190.232C136.398 190.005 136.33 189.344 136.193 188.25C135.1 188.888 133.892 189.344 132.57 189.617C131.249 189.845 129.927 189.936 128.605 189.891C127.329 189.799 126.145 189.549 125.051 189.139C123.957 188.729 123.137 188.182 122.59 187.498C122.362 187.225 122.157 186.814 121.975 186.268C121.838 185.721 121.701 185.105 121.564 184.422C121.473 183.693 121.382 182.941 121.291 182.166C121.2 181.346 121.132 180.594 121.086 179.91C120.995 178.133 121.223 176.606 121.77 175.33C122.316 174.008 123.319 173.029 124.777 172.391C125.415 172.117 126.258 171.98 127.307 171.98C128.4 171.935 129.471 171.98 130.52 172.117C131.613 172.208 132.593 172.345 133.459 172.527C134.325 172.664 134.872 172.778 135.1 172.869C134.917 170.545 134.781 168.54 134.689 166.854C134.598 165.122 134.416 164.005 134.143 163.504C133.915 163.185 133.641 162.866 133.322 162.547C133.049 162.319 132.684 162.068 132.229 161.795C131.773 161.521 131.226 161.316 130.588 161.18C130.087 161.089 129.631 161.294 129.221 161.795C128.856 162.251 128.514 163.071 128.195 164.256C127.922 165.395 127.762 167.15 127.717 169.52C126.122 169.565 124.891 169.565 124.025 169.52C123.205 169.428 122.59 169.337 122.18 169.246C121.678 169.155 121.382 169.041 121.291 168.904C121.2 168.722 121.245 168.061 121.428 166.922C121.61 165.737 121.861 164.461 122.18 163.094C122.544 161.727 122.954 160.428 123.41 159.197C123.911 157.967 124.436 157.192 124.982 156.873C126.076 156.235 127.375 156.007 128.879 156.189C130.428 156.372 131.932 156.759 133.391 157.352C134.849 157.944 136.148 158.605 137.287 159.334C138.426 160.063 139.156 160.633 139.475 161.043ZM135.236 181.004C135.236 180.776 135.259 180.48 135.305 180.115C135.35 179.705 135.373 179.295 135.373 178.885C135.373 178.475 135.35 178.087 135.305 177.723C135.305 177.358 135.259 177.085 135.168 176.902C135.031 176.629 134.621 176.401 133.938 176.219C133.299 176.036 132.57 175.923 131.75 175.877C130.93 175.786 130.155 175.763 129.426 175.809C128.697 175.809 128.195 175.9 127.922 176.082C127.557 176.31 127.284 176.629 127.102 177.039C126.965 177.449 126.874 178.087 126.828 178.953C126.828 179.363 126.851 179.796 126.896 180.252C126.942 180.708 126.988 181.163 127.033 181.619C127.124 182.029 127.215 182.394 127.307 182.713C127.443 183.032 127.58 183.237 127.717 183.328C128.036 183.556 128.583 183.761 129.357 183.943C130.178 184.08 130.998 184.126 131.818 184.08C132.639 183.989 133.391 183.715 134.074 183.26C134.758 182.804 135.145 182.052 135.236 181.004ZM161.486 158.719C161.623 158.81 161.737 159.402 161.828 160.496C161.919 161.59 161.988 163.025 162.033 164.803C162.124 166.535 162.17 168.517 162.17 170.75C162.17 172.983 162.17 175.285 162.17 177.654C162.17 180.024 162.147 182.371 162.102 184.695C162.102 186.974 162.056 189.07 161.965 190.984C161.919 192.853 161.851 194.448 161.76 195.77C161.714 197.091 161.646 197.934 161.555 198.299C161.464 198.572 161.19 198.982 160.734 199.529C160.324 200.122 159.823 200.714 159.23 201.307C158.638 201.899 158.023 202.423 157.385 202.879C156.792 203.38 156.291 203.699 155.881 203.836C155.061 204.109 154.149 204.064 153.146 203.699C152.144 203.335 151.187 202.856 150.275 202.264C149.41 201.671 148.635 201.033 147.951 200.35C147.313 199.712 146.926 199.256 146.789 198.982C146.652 198.709 146.516 198.299 146.379 197.752C146.288 197.251 146.219 196.749 146.174 196.248C146.128 195.701 146.128 195.245 146.174 194.881C146.265 194.471 146.424 194.266 146.652 194.266C146.835 194.266 147.313 194.471 148.088 194.881C148.908 195.291 149.774 195.724 150.686 196.18C151.597 196.59 152.44 196.932 153.215 197.205C153.99 197.479 154.468 197.456 154.65 197.137C154.833 196.772 155.015 195.792 155.197 194.197C155.38 192.557 155.562 190.574 155.744 188.25C154.149 188.797 152.691 189.161 151.369 189.344C150.093 189.48 149.022 189.253 148.156 188.66C147.746 188.387 147.313 187.908 146.857 187.225C146.447 186.541 146.06 185.766 145.695 184.9C145.376 183.989 145.103 183.032 144.875 182.029C144.647 180.981 144.533 180.001 144.533 179.09C144.533 178.452 144.602 177.54 144.738 176.355C144.921 175.171 145.148 173.872 145.422 172.459C145.695 171.046 145.969 169.588 146.242 168.084C146.561 166.58 146.857 165.213 147.131 163.982C147.45 162.752 147.701 161.727 147.883 160.906C148.111 160.04 148.247 159.562 148.293 159.471C148.384 159.334 148.612 159.266 148.977 159.266C149.341 159.22 149.729 159.243 150.139 159.334C150.549 159.38 150.936 159.493 151.301 159.676C151.665 159.858 151.893 160.063 151.984 160.291C152.03 160.473 152.03 161.043 151.984 162C151.984 162.957 151.916 164.096 151.779 165.418C151.688 166.74 151.574 168.175 151.438 169.725C151.346 171.229 151.232 172.664 151.096 174.031C151.005 175.353 150.913 176.492 150.822 177.449C150.731 178.406 150.686 178.976 150.686 179.158C150.686 179.887 150.754 180.594 150.891 181.277C151.073 181.915 151.278 182.485 151.506 182.986C151.779 183.442 152.053 183.807 152.326 184.08C152.6 184.354 152.85 184.445 153.078 184.354C153.853 184.217 154.559 184.035 155.197 183.807C155.516 183.67 155.812 183.533 156.086 183.396C156.223 181.163 156.359 178.885 156.496 176.561C156.633 174.191 156.747 172.026 156.838 170.066C156.929 168.107 156.997 166.443 157.043 165.076C157.134 163.709 157.18 162.843 157.18 162.479C157.18 162.068 157.362 161.613 157.727 161.111C158.091 160.564 158.501 160.086 158.957 159.676C159.413 159.266 159.868 158.969 160.324 158.787C160.826 158.559 161.213 158.536 161.486 158.719ZM181.516 161.863C181.561 162 181.561 162.387 181.516 163.025C181.47 163.618 181.379 164.301 181.242 165.076C181.151 165.805 181.037 166.489 180.9 167.127C180.764 167.719 180.65 168.084 180.559 168.221C180.103 168.266 179.647 168.289 179.191 168.289C178.736 168.243 178.303 168.221 177.893 168.221H176.457C176.411 171.229 176.343 174.214 176.252 177.176C176.161 180.138 176.047 182.804 175.91 185.174C175.773 187.498 175.614 189.389 175.432 190.848C175.295 192.306 175.158 193.058 175.021 193.104C174.702 193.149 174.338 193.012 173.928 192.693C173.518 192.374 173.107 191.987 172.697 191.531C172.333 191.03 171.991 190.529 171.672 190.027C171.398 189.48 171.239 189.002 171.193 188.592C170.965 185.812 170.76 183.169 170.578 180.662C170.396 178.11 170.259 175.854 170.168 173.895C169.986 171.616 169.872 169.497 169.826 167.537C169.325 167.492 168.824 167.423 168.322 167.332C167.867 167.241 167.388 167.15 166.887 167.059C166.431 166.967 165.952 166.876 165.451 166.785C165.36 166.694 165.246 166.489 165.109 166.17C164.973 165.805 164.836 165.418 164.699 165.008C164.608 164.598 164.517 164.21 164.426 163.846C164.335 163.436 164.289 163.139 164.289 162.957C164.289 162.82 164.79 162.684 165.793 162.547C166.841 162.41 168.117 162.296 169.621 162.205C169.53 159.79 169.462 157.693 169.416 155.916C169.416 154.093 169.484 152.863 169.621 152.225C169.758 151.359 170.122 150.538 170.715 149.764C171.353 148.943 172.014 148.237 172.697 147.645C173.426 147.052 174.087 146.619 174.68 146.346C175.318 146.027 175.728 145.936 175.91 146.072C176.047 146.163 176.161 146.642 176.252 147.508C176.343 148.328 176.411 149.445 176.457 150.857C176.503 152.27 176.525 153.934 176.525 155.848C176.525 157.716 176.525 159.699 176.525 161.795C177.893 161.704 179.055 161.681 180.012 161.727C180.969 161.727 181.47 161.772 181.516 161.863ZM201.75 161.043C202.023 161.362 202.274 161.704 202.502 162.068C202.73 162.387 202.935 162.843 203.117 163.436C203.299 163.982 203.436 164.712 203.527 165.623C203.664 166.535 203.732 167.719 203.732 169.178C203.732 171.502 203.664 173.849 203.527 176.219C203.436 178.543 203.345 180.594 203.254 182.371C203.208 183.966 203.163 185.447 203.117 186.814C203.072 188.182 203.026 189.389 202.98 190.438C202.935 191.44 202.867 192.238 202.775 192.83C202.73 193.423 202.684 193.742 202.639 193.787C202.456 193.924 202.16 193.878 201.75 193.65C201.385 193.377 200.975 193.035 200.52 192.625C200.109 192.215 199.722 191.782 199.357 191.326C198.993 190.87 198.765 190.506 198.674 190.232C198.674 190.005 198.605 189.344 198.469 188.25C197.375 188.888 196.167 189.344 194.846 189.617C193.524 189.845 192.202 189.936 190.881 189.891C189.605 189.799 188.42 189.549 187.326 189.139C186.232 188.729 185.412 188.182 184.865 187.498C184.637 187.225 184.432 186.814 184.25 186.268C184.113 185.721 183.977 185.105 183.84 184.422C183.749 183.693 183.658 182.941 183.566 182.166C183.475 181.346 183.407 180.594 183.361 179.91C183.27 178.133 183.498 176.606 184.045 175.33C184.592 174.008 185.594 173.029 187.053 172.391C187.691 172.117 188.534 171.98 189.582 171.98C190.676 171.935 191.747 171.98 192.795 172.117C193.889 172.208 194.868 172.345 195.734 172.527C196.6 172.664 197.147 172.778 197.375 172.869C197.193 170.545 197.056 168.54 196.965 166.854C196.874 165.122 196.691 164.005 196.418 163.504C196.19 163.185 195.917 162.866 195.598 162.547C195.324 162.319 194.96 162.068 194.504 161.795C194.048 161.521 193.501 161.316 192.863 161.18C192.362 161.089 191.906 161.294 191.496 161.795C191.132 162.251 190.79 163.071 190.471 164.256C190.197 165.395 190.038 167.15 189.992 169.52C188.397 169.565 187.167 169.565 186.301 169.52C185.48 169.428 184.865 169.337 184.455 169.246C183.954 169.155 183.658 169.041 183.566 168.904C183.475 168.722 183.521 168.061 183.703 166.922C183.885 165.737 184.136 164.461 184.455 163.094C184.82 161.727 185.23 160.428 185.686 159.197C186.187 157.967 186.711 157.192 187.258 156.873C188.352 156.235 189.65 156.007 191.154 156.189C192.704 156.372 194.208 156.759 195.666 157.352C197.124 157.944 198.423 158.605 199.562 159.334C200.702 160.063 201.431 160.633 201.75 161.043ZM197.512 181.004C197.512 180.776 197.535 180.48 197.58 180.115C197.626 179.705 197.648 179.295 197.648 178.885C197.648 178.475 197.626 178.087 197.58 177.723C197.58 177.358 197.535 177.085 197.443 176.902C197.307 176.629 196.896 176.401 196.213 176.219C195.575 176.036 194.846 175.923 194.025 175.877C193.205 175.786 192.43 175.763 191.701 175.809C190.972 175.809 190.471 175.9 190.197 176.082C189.833 176.31 189.559 176.629 189.377 177.039C189.24 177.449 189.149 178.087 189.104 178.953C189.104 179.363 189.126 179.796 189.172 180.252C189.217 180.708 189.263 181.163 189.309 181.619C189.4 182.029 189.491 182.394 189.582 182.713C189.719 183.032 189.855 183.237 189.992 183.328C190.311 183.556 190.858 183.761 191.633 183.943C192.453 184.08 193.273 184.126 194.094 184.08C194.914 183.989 195.666 183.715 196.35 183.26C197.033 182.804 197.421 182.052 197.512 181.004ZM218.498 173.279C218.863 173.917 219.41 174.874 220.139 176.15C220.913 177.426 221.734 178.839 222.6 180.389C223.465 181.938 224.354 183.533 225.266 185.174C226.177 186.814 226.975 188.318 227.658 189.686C228.342 191.053 228.866 192.192 229.23 193.104C229.641 194.015 229.777 194.516 229.641 194.607C229.413 194.744 229.071 194.812 228.615 194.812C228.16 194.767 227.681 194.699 227.18 194.607C226.678 194.471 226.2 194.311 225.744 194.129C225.334 193.901 225.038 193.696 224.855 193.514C223.306 191.417 221.916 189.48 220.686 187.703C219.501 185.926 218.452 184.376 217.541 183.055C216.493 181.551 215.559 180.161 214.738 178.885C214.602 181.027 214.465 183.055 214.328 184.969C214.191 186.883 214.055 188.592 213.918 190.096C213.781 191.554 213.622 192.739 213.439 193.65C213.303 194.516 213.166 194.972 213.029 195.018C212.665 195.063 212.277 194.926 211.867 194.607C211.457 194.243 211.07 193.81 210.705 193.309C210.34 192.762 209.999 192.215 209.68 191.668C209.406 191.076 209.247 190.574 209.201 190.164C208.928 186.017 208.7 182.303 208.518 179.021C208.381 175.695 208.244 172.755 208.107 170.203C208.016 167.651 207.948 165.441 207.902 163.572C207.902 161.658 207.902 160.04 207.902 158.719C207.902 155.574 207.993 153.41 208.176 152.225C208.358 151.313 208.768 150.447 209.406 149.627C210.09 148.761 210.819 148.009 211.594 147.371C212.368 146.733 213.098 146.255 213.781 145.936C214.465 145.617 214.921 145.525 215.148 145.662C215.331 145.799 215.445 146.596 215.49 148.055C215.536 149.513 215.536 151.382 215.49 153.66C215.49 155.893 215.445 158.4 215.354 161.18C215.262 163.96 215.171 166.74 215.08 169.52C215.9 168.289 216.698 167.059 217.473 165.828C218.247 164.552 218.977 163.413 219.66 162.41C220.344 161.362 220.936 160.496 221.438 159.812C221.984 159.129 222.395 158.719 222.668 158.582C222.987 158.4 223.488 158.263 224.172 158.172C224.901 158.035 225.63 157.944 226.359 157.898C227.089 157.853 227.749 157.876 228.342 157.967C228.98 158.058 229.367 158.217 229.504 158.445C229.641 158.582 229.39 159.152 228.752 160.154C228.114 161.111 227.271 162.296 226.223 163.709C225.174 165.122 223.967 166.671 222.6 168.357C221.232 170.044 219.865 171.684 218.498 173.279Z" fill="white"/>
<g clip-path="url(#clip0_93_2889)">
<path d="M69.05 0L64 5.05L72.8962 20.4346L78.6654 19.5885L113.881 54.8077L110.877 57.6923C109.338 59.2308 109.338 61.5615 110.877 63.1L112.438 64.6654C113.977 66.2038 116.331 66.2038 117.485 64.6654L122.054 69.2308C121.669 71.5385 122.054 74.2808 123.977 76.2038L144.769 96.8769C149 101.108 155.923 101.108 160.154 96.8769C165.154 92.2615 165.108 85.3615 160.877 81.1308L140.204 60.3346C138.281 58.4115 135.538 57.6423 133.231 58.4115L128.181 53.8462C129.335 52.3077 129.335 49.9538 128.181 48.7962L126.738 47.3577C126.389 46.9931 125.969 46.703 125.504 46.5048C125.04 46.3066 124.54 46.2044 124.035 46.2044C123.529 46.2044 123.03 46.3066 122.565 46.5048C122.1 46.703 121.68 46.9931 121.331 47.3577L118.808 49.8808L83.5923 14.6654L84.4308 8.89615L69.05 0ZM144.05 0.119231C136.462 -0.511538 126.4 4.51923 121.692 8.89231C115.9 14.6846 116.846 22.2577 121.45 29.5692L113.281 37.7423L119.05 44.2308C122.127 41.5385 126.665 41.5385 129.742 44.2308L131.308 45.7923L131.669 46.1538L135.035 42.7885C141.988 46.8769 149.227 47.4654 154.746 41.9462C160.131 36.9462 165.969 24.6154 163.277 17.3077L152.462 28.4846C150.923 30.0231 148.592 30.0231 147.054 28.4846L135.873 17.3077C135.508 16.9581 135.218 16.5383 135.02 16.0736C134.822 15.609 134.72 15.109 134.72 14.6038C134.72 14.0987 134.822 13.5987 135.02 13.1341C135.218 12.6694 135.508 12.2496 135.873 11.9L147.058 0.723077C146.096 0.384615 145.135 0.211538 144.05 0.119231ZM101.742 48.0769L87.7962 62.0192C86.2975 61.6863 84.7659 61.525 83.2308 61.5385C72.4615 61.5385 64 70 64 80.7692C64 91.5385 72.4615 100 83.2308 100C94 100 102.462 91.5385 102.462 80.7692C102.462 78.7962 102.15 76.9 101.619 75.1192L109.792 66.9462L108.592 65.3846C105.515 62.3077 105.538 57.6462 108.231 54.5654L101.742 48.0769ZM131.55 65.6269C132.031 65.6269 132.485 65.7192 132.869 66.1077L155.588 88.8231C156.358 89.5923 156.358 90.8154 155.588 91.5846C154.819 92.3539 153.588 92.3539 152.819 91.5846L130.108 68.8692C129.338 68.1 129.338 66.8769 130.108 66.1077C130.492 65.7231 131.069 65.6269 131.55 65.6269ZM85.8769 70.7885L93.2077 78.1231L90.5615 88.0962L80.5885 90.7423L73.2538 83.4077L75.9 73.4346L85.8769 70.7885Z" fill="white"/>
</g>
<defs>
<clipPath id="clip0_93_2889">
<rect width="100" height="100" fill="white" transform="translate(64)"/>
</clipPath>
</defs>
</svg>
