<svg xmlns="http://www.w3.org/2000/svg" width="13.532" height="16.625"><path d="m11.59 5.974-.575.065.576-.065Zm.347 3.046.576-.065-.576.065Zm-10.342 0-.576-.065.576.065Zm.346-3.046.576.065-.576-.065Zm-1.015 4.56-.442-.376.442.376Zm11.68 0-.442.376.442-.376ZM8.52 2.415h-.58a.58.58 0 0 0 .392.55l.188-.55Zm-3.51 0 .188.55a.58.58 0 0 0 .392-.55h-.58Zm4.618 12.287a.58.58 0 1 0-1.086-.407l1.086.407Zm-4.64-.407a.58.58 0 1 0-1.086.407l1.086-.407Zm6.244-1.923H2.3v1.16h8.934v-1.16Zm-.218-6.333.345 3.047 1.153-.131-.346-3.047-1.152.131ZM2.172 9.086l.345-3.047-1.152-.13-.346 3.046 1.153.13Zm-.804 1.824a3.406 3.406 0 0 0 .804-1.824l-1.153-.131C.97 9.383.79 9.8.484 10.158l.884.752Zm9.992-1.824c.076.669.358 1.3.804 1.824l.884-.752a2.248 2.248 0 0 1-.535-1.203l-1.153.13ZM2.3 12.372c-.507 0-.865-.25-1.03-.542-.16-.28-.158-.62.099-.92l-.884-.752a1.929 1.929 0 0 0-.224 2.245c.38.669 1.131 1.13 2.039 1.13v-1.16Zm8.934 1.16c.908 0 1.66-.46 2.04-1.13a1.929 1.929 0 0 0-.225-2.244l-.884.752c.257.3.26.64.1.92-.166.292-.524.542-1.03.542v1.16ZM9.101 2.415v-.08h-1.16v.08h1.16Zm3.066 3.493c-.216-1.902-1.627-3.414-3.458-4.041l-.376 1.097c1.483.508 2.525 1.692 2.682 3.075l1.152-.13ZM5.591 2.415v-.08H4.43v.08h1.16ZM2.517 6.04c.157-1.383 1.2-2.567 2.682-3.075l-.376-1.097c-1.831.627-3.242 2.139-3.458 4.041l1.152.131Zm4.249-4.88c.65 0 1.175.527 1.175 1.176h1.16A2.335 2.335 0 0 0 6.766 0v1.16Zm0-1.159a2.335 2.335 0 0 0-2.335 2.335h1.16c0-.649.526-1.175 1.175-1.175V0Zm1.777 14.295c-.25.666-.938 1.17-1.777 1.17v1.16c1.303 0 2.437-.786 2.863-1.923l-1.086-.407Zm-1.777 1.17c-.839 0-1.527-.504-1.777-1.17l-1.086.407c.426 1.137 1.56 1.923 2.863 1.923v-1.16Z" fill="#0d3657" fill-rule="evenodd" data-name="Vector"/></svg>