<svg xmlns="http://www.w3.org/2000/svg" width="437.163" height="244.059" viewBox="-58.102 0 437.163 244.059"><g data-name="Group 9808"><g data-name="Drill_1_"><g data-name="Group 9803"><path d="M6.208 118.11a1.325 1.325 0 0 0-1.736-.701 1.325 1.325 0 0 0-.7 1.735 1.325 1.325 0 0 0 1.735.701 1.325 1.325 0 0 0 .7-1.735Zm-1.478.627a.282.282 0 1 1 .52-.22.282.282 0 0 1-.52.22Z" fill="#fff" fill-rule="evenodd" data-name="Path 64968"/><path d="M8.016 144.416c.303-.454.38-1.048.15-1.587l-1.046-2.467-.403.171-.47-1.106 1.074-.456-.965-2.274 4.17-1.77-.217-.511 2.883-1.224.217.51 8.425-3.575.265.625.96-.407-.266-.626-1.454-3.424-.26-.612-.959.407.26.612-8.425 3.576.222.523-2.146.911-3.505-8.257c-.064-.15-.132-.3-.202-.446l3.377-1.832-.634-1.168 5.196-2.829 2.825 1.15 2.855-1.212-3.747-8.828-22.92 9.729.004.011c-.17.064-.339.131-.508.203l-.48.203 4.863 11.45-.121 1.069 2.664 6.275.703-.299.418.984.407.959.966 2.275 1.074-.456.47 1.106-.404.17 1.047 2.467c.18.422.512.733.906.895l2.13 2.81a.616.616 0 0 0 .272.203l2.947 6.941.959-.407-3.078-7.25-.5-3.212Zm12.89-16.475-1.085.46.407.96 1.085-.46.114.267-7.466 3.169-.114-.268 5.473-2.323-.407-.959-5.473 2.323-.119-.28 7.466-3.17.119.281Zm-8.322 3.82.2.472-2.882 1.224-.2-.473.736-.313 2.146-.91Zm-4.432-11.253.136.25-2.458 1.333c-.048-.08-.098-.16-.148-.24l1.713-.932.757-.41Zm-2.524-5.485-5.969 2.533a10.248 10.248 0 0 0-2.003-.264l16.367-6.948.402.945-8.459 3.59-.338.144Zm-9.425 3.357 1.929 4.544.959-.407-1.784-4.202c.681-.001 1.347.07 1.99.211l1.812 4.269c.82 1.933.049 4.149-1.72 5.18l-4.017-9.464c.278-.055.555-.1.831-.13Zm9.494-2.255 2.78 3.019-1.587.864-1.82.987a9.724 9.724 0 0 0-3.896-2.95l4.523-1.92Zm8.93.078-.914-2.151-.959.407.813 1.914-4.146 2.257-2.705-2.937 8.116-3.445 2.072 4.883-2.278-.928Zm3.95.363-.661.28-2.933-6.91.66-.28 2.934 6.91ZM.25 135.864-1.9 130.8l.121-1.07L-6.337 119c.229-.085.457-.163.686-.232l4.5 10.603.48-.203a5.176 5.176 0 0 0 2.739-6.78l-1.473-3.47c2.163.842 3.95 2.538 4.972 4.945l3.505 8.257-.737.313-8.085 3.432Zm1.528 1.644-.417-.984 7.381-3.133.418.983-3.211 1.364-4.17 1.77Zm.966 2.275-.559-1.316 3.212-1.363.558 1.315-.115.05-2.981 1.265-.115.049Zm1.932 1.566-.451-1.063 1.063-.452.451 1.063-1.063.452Zm.662 2.68-.64-1.507 1.87-.794.64 1.508a.637.637 0 0 1-.337.834l-.699.296a.637.637 0 0 1-.834-.337Zm1.248 1.293.484-.205.166 1.062-.65-.857Z" fill="#fff" fill-rule="evenodd" data-name="Path 64969"/><path d="m7.168 131.983-1.542-3.633.959-.408 1.542 3.634-.96.407z" fill="#fff" fill-rule="evenodd" data-name="Rectangle 3265"/><path d="m4.178 133.252-1.542-3.633.959-.407 1.542 3.633-.959.407z" fill="#fff" fill-rule="evenodd" data-name="Rectangle 3266"/><path d="m5.673 132.617-1.542-3.633.959-.407 1.542 3.633-.959.407z" fill="#fff" fill-rule="evenodd" data-name="Rectangle 3267"/><path d="m-.766 125.52-.663-1.562.959-.407.663 1.563-.959.407z" fill="#fff" fill-rule="evenodd" data-name="Rectangle 3268"/></g></g><g data-name="3802001_fix_mechanic_repair_tools_wrench_icon"><path d="m159.693 41.226-2.068 1.755 3.259 5.879 2.584-.824c.724.72 1.523 1.355 2.384 1.898l-.222 2.702 6.462 1.852 1.244-2.409a13.826 13.826 0 0 0 3.027-.346l1.754 2.069 5.88-3.26-.825-2.583a13.842 13.842 0 0 0 1.883-2.361l2.718.192 1.85-6.449-2.407-1.278a13.855 13.855 0 0 0-.34-2.973l2.06-1.786-3.253-5.868-2.607.799a13.814 13.814 0 0 0-2.341-1.863l.192-2.72-6.45-1.848-1.277 2.407c-.998.005-1.994.119-2.973.34l-1.787-2.06-5.867 3.253.798 2.607a13.859 13.859 0 0 0-1.877 2.364l-2.702-.222-1.853 6.461 2.409 1.244c.003 1.018.12 2.033.345 3.028Zm-1.099-4.986 1.222-4.264 2.43.2.221-.38a12.485 12.485 0 0 1 2.175-2.74l.313-.296-.718-2.345 3.89-2.156 1.608 1.851.418-.108a12.483 12.483 0 0 1 3.446-.393l.432.01 1.149-2.164 4.276 1.226-.172 2.445.372.22c.998.588 1.91 1.315 2.713 2.16l.296.314 2.346-.72 2.157 3.891-1.853 1.608.11.418c.29 1.128.423 2.288.393 3.445l-.01.432 2.164 1.15-1.226 4.276-2.444-.173-.22.372a12.447 12.447 0 0 1-2.183 2.735l-.318.3.74 2.323-3.879 2.15-1.577-1.859-.424.111c-1.147.3-2.327.434-3.507.4l-.438-.013-1.119 2.166-4.263-1.223.199-2.43-.378-.22a12.476 12.476 0 0 1-2.762-2.198l-.301-.319-2.323.742-2.15-3.88 1.86-1.577-.111-.424a12.452 12.452 0 0 1-.4-3.506l.012-.438-2.166-1.12Z" fill="#fff" fill-rule="evenodd" data-name="Path 64970"/><path d="m180.445 49.306-1.252.694-.694-1.253 1.252-.694.694 1.253z" fill="#fff" fill-rule="evenodd" data-name="Rectangle 3269"/><path d="m186.21 41.127-.385 1.34-1.34-.384.384-1.34 1.34.384z" fill="#fff" fill-rule="evenodd" data-name="Rectangle 3270"/><path d="m185.33 32.274-1.253.694-.694-1.252 1.252-.695.694 1.253z" fill="#fff" fill-rule="evenodd" data-name="Rectangle 3271"/><path d="m177.604 25.602-.385 1.34-1.34-.384.384-1.34 1.34.384z" fill="#fff" fill-rule="evenodd" data-name="Rectangle 3272"/><path d="m168.297 27.39-1.252.694-.694-1.252 1.252-.694.694 1.252z" fill="#fff" fill-rule="evenodd" data-name="Rectangle 3273"/><path d="m162.08 34.207-.385 1.34-1.34-.384.384-1.34 1.34.384z" fill="#fff" fill-rule="evenodd" data-name="Rectangle 3274"/><path d="m163.1 44.595-.939.52-.694-1.251.94-.521.693 1.252z" fill="#fff" fill-rule="evenodd" data-name="Rectangle 3275"/><path d="m170.685 49.732-.385 1.34-1.34-.384.384-1.34 1.34.384z" fill="#fff" fill-rule="evenodd" data-name="Rectangle 3276"/><path d="M177.676 46.073c4.372-2.423 5.957-7.951 3.534-12.323-2.423-4.372-7.952-5.957-12.323-3.534-4.372 2.424-5.957 7.952-3.534 12.324 2.423 4.371 7.952 5.956 12.323 3.533Zm-8.113-14.637c3.699-2.05 8.377-.709 10.427 2.99 2.05 3.699.71 8.377-2.99 10.427-3.699 2.05-8.377.71-10.427-2.99-2.05-3.698-.709-8.377 2.99-10.427Z" fill="#fff" fill-rule="evenodd" data-name="Path 64971"/><path d="M175.648 42.414a4.887 4.887 0 0 0 1.903-6.636 4.887 4.887 0 0 0-6.636-1.902 4.887 4.887 0 0 0-1.903 6.635 4.887 4.887 0 0 0 6.636 1.903Zm-4.057-7.319a3.49 3.49 0 0 1 4.74 1.36 3.49 3.49 0 0 1-1.36 4.74 3.49 3.49 0 0 1-4.739-1.36 3.49 3.49 0 0 1 1.36-4.74Z" fill="#fff" fill-rule="evenodd" data-name="Path 64972"/><path d="m154.97 38.051-1.252.694-.694-1.252 1.253-.694.694 1.252z" fill="#fff" fill-rule="evenodd" data-name="Rectangle 3277"/><path d="m153.582 35.546-1.252.695-.694-1.253 1.252-.694.694 1.252z" fill="#fff" fill-rule="evenodd" data-name="Rectangle 3278"/><path d="m153.024 37.493-1.252.694-.694-1.252 1.252-.694.694 1.252z" fill="#fff" fill-rule="evenodd" data-name="Rectangle 3279"/><path d="m155.529 36.105-1.252.694-.695-1.253 1.253-.694.694 1.253z" fill="#fff" fill-rule="evenodd" data-name="Rectangle 3280"/><path d="m185.898 19.27-1.252.695-.695-1.252 1.253-.695.694 1.253z" fill="#fff" fill-rule="evenodd" data-name="Rectangle 3281"/><path d="m184.51 16.766-1.253.694-.694-1.252 1.252-.694.695 1.252z" fill="#fff" fill-rule="evenodd" data-name="Rectangle 3282"/><path d="m183.951 18.713-1.252.694-.694-1.253 1.252-.694.694 1.253z" fill="#fff" fill-rule="evenodd" data-name="Rectangle 3283"/><path d="m186.456 17.324-1.252.694-.694-1.252 1.252-.694.694 1.252z" fill="#fff" fill-rule="evenodd" data-name="Rectangle 3284"/><path d="m163.226 58.85-1.252.695-.695-1.253 1.253-.694.694 1.253z" fill="#fff" fill-rule="evenodd" data-name="Rectangle 3285"/><path d="m161.838 56.346-1.253.694-.694-1.252 1.252-.694.695 1.252z" fill="#fff" fill-rule="evenodd" data-name="Rectangle 3286"/><path d="m161.28 58.292-1.253.695-.694-1.253 1.252-.694.694 1.252z" fill="#fff" fill-rule="evenodd" data-name="Rectangle 3287"/><path d="m163.784 56.904-1.252.694-.694-1.252 1.252-.694.694 1.252z" fill="#fff" fill-rule="evenodd" data-name="Rectangle 3288"/><path d="m195.405 39.376-1.252.694-.694-1.252 1.252-.694.694 1.252z" fill="#fff" fill-rule="evenodd" data-name="Rectangle 3289"/><path d="m194.017 36.871-1.252.695-.695-1.253 1.253-.694.694 1.252z" fill="#fff" fill-rule="evenodd" data-name="Rectangle 3290"/><path d="m193.459 38.818-1.253.694-.694-1.252 1.253-.694.694 1.252z" fill="#fff" fill-rule="evenodd" data-name="Rectangle 3291"/><path d="m195.963 37.43-1.252.694-.694-1.253 1.252-.694.694 1.253z" fill="#fff" fill-rule="evenodd" data-name="Rectangle 3292"/><path d="M193.798 43.515a6.297 6.297 0 0 0-3.206 4.966l-17.718 9.822a6.297 6.297 0 0 0-5.911.087 6.194 6.194 0 0 0-2.759 3.117l-.126.31 1.254 2.26 2.673-1.48 1.929 1.322.099 2.337-2.672 1.48 1.254 2.262.328.057a6.194 6.194 0 0 0 4.106-.687 6.297 6.297 0 0 0 3.206-4.967l17.717-9.82a6.297 6.297 0 0 0 5.911-.088 6.194 6.194 0 0 0 2.76-3.118l.125-.308-1.254-2.262-2.672 1.482-1.93-1.323-.099-2.337 2.673-1.481-1.254-2.262-.328-.057a6.194 6.194 0 0 0-4.106.688Zm3.792 1.087-2.207 1.223.166 3.895 3.215 2.204 2.207-1.223.247.446a4.8 4.8 0 0 1-2.01 2.126 4.9 4.9 0 0 1-4.878-.088l-.345-.207-19.096 10.586-.007.402a4.898 4.898 0 0 1-2.51 4.182 4.8 4.8 0 0 1-2.868.579l-.247-.447 2.206-1.223-.165-3.894-3.215-2.205-2.207 1.223-.247-.446a4.8 4.8 0 0 1 2.01-2.126 4.9 4.9 0 0 1 4.878.088l.345.207 19.095-10.585.008-.402a4.9 4.9 0 0 1 2.51-4.182 4.8 4.8 0 0 1 2.868-.58l.247.447Z" fill="#fff" fill-rule="evenodd" data-name="Path 64973"/></g><g data-name="7231836_water_tool_construction_work_repair_icon"><path d="m91.366 79.296-.744.656a.518.518 0 0 1-.588.068 6.944 6.944 0 0 0-1.39-.564.516.516 0 0 1-.37-.416 7.567 7.567 0 0 1-.045-.327l-.044-.539v-.017a7.912 7.912 0 0 1 4.809-7.636 7.91 7.91 0 0 1 10.367 4.188c2.672 6.296 1.807 21.414 1.681 23.02a.52.52 0 0 1-1.016.094c-.096-.354-.591-.9-1.301-1.626-1.86-1.901-5.201-4.766-8.19-7.798a.517.517 0 0 1 .322-.879c.048-.273.082-.55.102-.827l-.941-.317a.518.518 0 0 1-.352-.475 6.98 6.98 0 0 0-.21-1.503.518.518 0 0 1 .206-.554l.817-.563a8.014 8.014 0 0 0-.326-.769l-.973.197a.518.518 0 0 1-.542-.236 6.98 6.98 0 0 0-.935-1.195.518.518 0 0 1-.097-.584l.426-.897a8.206 8.206 0 0 0-.666-.501ZM104.1 96.157c.22-4.261.537-15.79-1.692-21.043a6.874 6.874 0 0 0-9.01-3.64 6.877 6.877 0 0 0-4.18 6.629l.037.458c.323.107.639.235.945.382l.775-.683a.518.518 0 0 1 .613-.053c.51.312.99.672 1.43 1.077a.519.519 0 0 1 .118.604l-.443.933c.226.254.435.522.627.803l1.013-.204a.52.52 0 0 1 .557.26c.285.526.52 1.079.7 1.65a.52.52 0 0 1-.2.58l-.85.587c.068.333.116.67.142 1.01l.979.329a.519.519 0 0 1 .352.504 9.234 9.234 0 0 1-.219 1.777.639.639 0 0 1-.017.061c2.854 2.844 5.932 5.499 7.688 7.296.236.24.448.469.635.683Z" fill="#fff" fill-rule="evenodd" data-name="Path 64974"/><path d="m91.238 92.669.204 1.012a.517.517 0 0 1-.26.557 9.235 9.235 0 0 1-1.649.7.517.517 0 0 1-.58-.2l-.587-.85c-.333.07-.67.117-1.01.142l-.33.979a.518.518 0 0 1-.503.352 9.285 9.285 0 0 1-1.778-.218.517.517 0 0 1-.403-.464l-.083-1.029a8.036 8.036 0 0 1-.946-.383l-.774.683a.518.518 0 0 1-.613.054 9.3 9.3 0 0 1-1.43-1.078.517.517 0 0 1-.117-.603l.442-.933a7.887 7.887 0 0 1-.627-.804l-1.013.204a.517.517 0 0 1-.556-.26 9.246 9.246 0 0 1-.7-1.649.517.517 0 0 1 .2-.58l.85-.588a7.935 7.935 0 0 1-.143-1.009l-.978-.33a.517.517 0 0 1-.352-.503 9.3 9.3 0 0 1 .217-1.777.518.518 0 0 1 .465-.404l1.029-.083c.107-.323.234-.639.381-.946l-.682-.774a.517.517 0 0 1-.054-.612c.313-.51.674-.99 1.078-1.43a.518.518 0 0 1 .604-.118l.933.443c.253-.227.522-.437.803-.628l-.204-1.013a.517.517 0 0 1 .26-.556 9.235 9.235 0 0 1 1.648-.7.517.517 0 0 1 .582.2l.586.85a7.67 7.67 0 0 1 1.01-.142l.329-.979a.518.518 0 0 1 .504-.352 9.243 9.243 0 0 1 1.778.218.518.518 0 0 1 .404.463l.082 1.03c.323.107.639.235.945.382l.775-.683a.518.518 0 0 1 .613-.053c.51.312.99.672 1.43 1.077a.519.519 0 0 1 .118.604l-.443.933c.226.254.435.522.627.803l1.013-.204a.52.52 0 0 1 .557.26c.285.526.52 1.079.7 1.65a.52.52 0 0 1-.2.58l-.85.587c.068.333.116.67.142 1.01l.979.329a.519.519 0 0 1 .352.504 9.234 9.234 0 0 1-.219 1.777.518.518 0 0 1-.464.404l-1.03.082c-.105.323-.233.64-.38.946l.682.775c.15.17.172.419.053.612-.312.51-.673.99-1.078 1.43a.518.518 0 0 1-.603.118l-.933-.443a7.67 7.67 0 0 1-.803.628Zm-1.656 1.158c.26-.095.517-.204.767-.325l-.196-.974a.518.518 0 0 1 .236-.542c.431-.266.833-.58 1.195-.934a.518.518 0 0 1 .584-.097l.896.425c.179-.213.347-.435.503-.665l-.657-.745a.519.519 0 0 1-.067-.588c.24-.446.43-.919.568-1.407a.518.518 0 0 1 .457-.376l.989-.079c.048-.274.082-.55.102-.827l-.941-.317a.518.518 0 0 1-.352-.475 6.98 6.98 0 0 0-.21-1.503.518.518 0 0 1 .206-.554l.817-.563a8.014 8.014 0 0 0-.326-.769l-.973.197a.518.518 0 0 1-.542-.236 6.98 6.98 0 0 0-.935-1.195.518.518 0 0 1-.097-.584l.426-.897a8.206 8.206 0 0 0-.666-.501l-.744.656a.518.518 0 0 1-.588.068 6.915 6.915 0 0 0-1.407-.569.519.519 0 0 1-.376-.456l-.08-.99a8.213 8.213 0 0 0-.827-.101l-.317.94a.518.518 0 0 1-.475.352 6.898 6.898 0 0 0-1.503.212.518.518 0 0 1-.553-.207l-.564-.817a7.995 7.995 0 0 0-.767.325l.195.973a.517.517 0 0 1-.235.543c-.432.266-.833.58-1.196.933a.516.516 0 0 1-.583.097l-.897-.425a8.048 8.048 0 0 0-.501.666l.656.745c.143.162.17.397.067.588-.24.446-.43.918-.567 1.406a.519.519 0 0 1-.457.376l-.99.08c-.048.274-.082.55-.102.827l.94.317c.207.07.347.26.353.475.015.508.086 1.01.211 1.502a.52.52 0 0 1-.207.555l-.818.563c.097.262.205.517.326.768l.973-.197a.52.52 0 0 1 .544.237c.266.431.579.831.933 1.195.151.154.19.387.097.583l-.425.898c.213.178.435.345.666.501l.745-.657a.519.519 0 0 1 .587-.067c.447.24.918.431 1.406.568.21.059.36.242.376.457l.08.99c.274.048.55.081.828.101l.317-.94a.516.516 0 0 1 .475-.353 6.898 6.898 0 0 0 1.502-.21c.21-.055.431.029.554.206l.564.817Zm-1.374-4.304a3.715 3.715 0 0 0 1.968-4.869 3.715 3.715 0 0 0-4.87-1.967 3.715 3.715 0 0 0-1.967 4.87 3.715 3.715 0 0 0 4.87 1.966Zm-.404-.953a2.68 2.68 0 0 1-3.512-1.418 2.68 2.68 0 0 1 1.419-3.512 2.68 2.68 0 0 1 3.511 1.419 2.68 2.68 0 0 1-1.418 3.511Z" fill="#fff" fill-rule="evenodd" data-name="Path 64975"/><path d="M101.769 78.986s-.43-6.796-6.338-6.102a.518.518 0 0 0 .122 1.028c4.898-.575 5.181 5.133 5.181 5.133a.519.519 0 0 0 1.035-.059Z" fill="#fff" fill-rule="evenodd" data-name="Path 64976"/></g><g data-name="7853743_gear_kashifarif_setting_configuration_preferences_icon"><g data-name="Group 9804"><path d="m227.65 75.984 3.335-2.505 3.518 3.058c1.505-.621 3.135-.942 4.793-.851l2.083-4.172 4.005 1.165-.3 4.564c.644.368 1.4.831 2.06 1.405.659.573 1.113 1.16 1.567 1.748l4.587-.837 1.616 3.914-3.732 2.739a12.53 12.53 0 0 1-.286 4.77l3.518 3.057-2.016 3.651-4.335-1.452c-1.05 1.21-2.432 2.132-3.827 2.85l-.19 4.658-4.177.809-1.74-4.215c-1.658-.09-3.14-.606-4.636-1.328h0l-3.636 2.63-3.188-2.772 2.193-4.077h0c-.923-1.38-1.544-2.886-1.96-4.405l-4.416-1.137.22-4.249 4.491-.727c.516-1.481 1.237-2.977 2.289-4.186l-1.836-4.105Z" stroke-linejoin="round" stroke-linecap="round" stroke-width="1.5" stroke="#fff" fill="transparent" data-name="Path 64977"/></g><path d="M242.802 91.411a5.098 5.098 0 1 1 .066-.075z" stroke-linejoin="round" stroke-linecap="round" stroke-width="1.5" stroke="#fff" fill="transparent" data-name="Ellipse 678"/></g><g data-name="8345453_electronic_repair_service_washing machine_technology_icon"><path d="M182.364 123.847a.913.913 0 0 0 1.285-.112l5.564-6.63a.913.913 0 0 0-1.398-1.174l-5.563 6.63a.914.914 0 0 0 .112 1.286Zm6-7.455a.197.197 0 0 1 .3.252l-5.563 6.63a.197.197 0 0 1-.3-.252l5.563-6.63Z" fill="#fff" fill-rule="evenodd" data-name="Path 64978"/><path d="m187.411 114.345-6.79 8.093a4.602 4.602 0 0 0-4.452 1.563 4.63 4.63 0 0 0-.914 4.202.358.358 0 0 0 .62.136l1.928-2.298 2.109.149-2.726 3.248c-.001.002-.001.004-.003.005l-4.175 4.976a.358.358 0 0 0 .044.504l19.693 16.524a.358.358 0 0 0 .504-.044l4.175-4.976.004-.003 16.523-19.691a.358.358 0 0 0-.044-.505l-17.832-14.963-1.862-1.562a.358.358 0 0 0-.504.044l-2.727 3.25-.512-2.052 1.928-2.298a.358.358 0 0 0-.241-.586 4.632 4.632 0 0 0-3.982 1.632 4.597 4.597 0 0 0-.764 4.652Zm-8.133 16.382-1.314-1.103 2.497-2.975.515 2.054-1.698 2.024Zm13.653 19.941-19.144-16.063 3.717-4.43 19.144 16.063-3.717 4.43Zm20.242-24.121L197.11 145.69l-16.824-14.117c.025-.003.049-.009.073-.012.052-.007.103-.018.154-.027a4.626 4.626 0 0 0 .877-.243c.037-.014.076-.026.113-.042.153-.064.303-.136.45-.216.035-.02.07-.043.104-.063a4.646 4.646 0 0 0 .46-.307c.095-.073.188-.15.278-.23.039-.035.079-.068.117-.104a4.6 4.6 0 0 0 1.122-5.025l6.791-8.094a4.597 4.597 0 0 0 4.752-1.976c.03-.043.056-.088.083-.133a4.546 4.546 0 0 0 .402-.822l.044-.113c.054-.158.099-.319.136-.482.008-.038.013-.077.02-.116.026-.127.046-.255.06-.383.007-.055.011-.11.016-.166.008-.12.013-.24.012-.36V112.43l16.823 14.117Zm-19.146-16.065 1.313 1.102-1.697 2.023-2.113-.15 2.497-2.975Zm-2.67-1.709-1.553 1.852a.358.358 0 0 0-.073.317l.727 2.909c.002.008.007.015.01.023.003.01.004.02.008.03.004.01.011.018.017.027a.352.352 0 0 0 .062.084c.008.007.013.017.02.023l.012.008c.017.013.036.023.055.032l.035.02a.358.358 0 0 0 .103.023l2.994.213a.358.358 0 0 0 .3-.127l1.546-1.843c.003.041.01.083.011.124a3.486 3.486 0 0 1-.006.46c-.003.042-.004.085-.008.127a3.89 3.89 0 0 1-.067.423c-.004.02-.01.039-.015.058-.028.12-.061.24-.1.356-.015.045-.033.089-.05.133a4.001 4.001 0 0 1-.18.41c-.046.089-.096.176-.149.262a3.882 3.882 0 0 1-.72.87 3.89 3.89 0 0 1-3.559.879.358.358 0 0 0-.36.117l-7.07 8.426a.358.358 0 0 0-.054.376 3.891 3.891 0 0 1-.878 4.429c-.033.031-.068.06-.102.09a3.774 3.774 0 0 1-.605.441c-.04.024-.08.049-.12.07-.111.06-.224.115-.34.164-.016.007-.031.016-.048.022-.133.054-.269.1-.407.14l-.12.028a3.913 3.913 0 0 1-.453.087c-.041.005-.084.007-.126.01l1.547-1.843a.359.359 0 0 0 .073-.317l-.73-2.911a.36.36 0 0 0-.044-.104.36.36 0 0 0-.062-.071l-.01-.013a.351.351 0 0 0-.133-.065c-.007-.002-.011-.008-.018-.009l-.03-.003c-.009 0-.016-.005-.024-.005l-2.992-.21a.358.358 0 0 0-.3.126l-1.553 1.851a3.908 3.908 0 0 1 4.85-4.11.358.358 0 0 0 .36-.116l7.071-8.427a.358.358 0 0 0 .053-.375 3.892 3.892 0 0 1 .57-4.11 3.914 3.914 0 0 1 2.636-1.38Z" fill="#fff" fill-rule="evenodd" data-name="Path 64979"/><path d="M189.393 135.446c4.058 3.405 10.13 2.873 13.535-1.185 3.405-4.058 2.873-10.13-1.185-13.534-4.057-3.405-10.13-2.874-13.534 1.184-3.405 4.058-2.874 10.13 1.184 13.535Zm11.89-14.17c3.756 3.15 4.247 8.77 1.096 12.525-3.151 3.756-8.77 4.247-12.526 1.096-3.756-3.15-4.247-8.77-1.096-12.526 3.151-3.755 8.77-4.247 12.526-1.096Z" fill="#fff" fill-rule="evenodd" data-name="Path 64980"/><path d="M199.184 133.079a.358.358 0 0 0 .505-.044l1.468-1.75a.358.358 0 1 0-.548-.46l-1.469 1.75a.358.358 0 0 0 .044.504Z" fill="#fff" fill-rule="evenodd" data-name="Path 64981"/><path d="M190.63 147.256c.742.622 1.851.525 2.474-.217a1.757 1.757 0 0 0-.217-2.472 1.757 1.757 0 0 0-2.473.216 1.757 1.757 0 0 0 .217 2.473Zm1.797-2.141a1.04 1.04 0 0 1 .128 1.464 1.04 1.04 0 0 1-1.592-1.336 1.04 1.04 0 0 1 1.464-.128Z" fill="#fff" fill-rule="evenodd" data-name="Path 64982"/><path d="M186.27 143.596c.741.622 1.85.525 2.472-.216a1.757 1.757 0 0 0-.216-2.473 1.757 1.757 0 0 0-2.473.216 1.757 1.757 0 0 0 .217 2.473Zm1.796-2.14a1.04 1.04 0 0 1 .128 1.464 1.04 1.04 0 0 1-1.592-1.336 1.04 1.04 0 0 1 1.464-.129Z" fill="#fff" fill-rule="evenodd" data-name="Path 64983"/><path d="M181.908 139.937c.742.622 1.85.525 2.473-.217a1.757 1.757 0 0 0-.216-2.472 1.757 1.757 0 0 0-2.473.216 1.757 1.757 0 0 0 .216 2.473Zm1.797-2.141a1.04 1.04 0 0 1 .128 1.464 1.04 1.04 0 0 1-1.593-1.336 1.04 1.04 0 0 1 1.465-.128Z" fill="#fff" fill-rule="evenodd" data-name="Path 64984"/><path d="M177.547 136.277c.742.622 1.851.526 2.473-.216a1.757 1.757 0 0 0-.216-2.473 1.757 1.757 0 0 0-2.473.217 1.757 1.757 0 0 0 .216 2.472Zm1.797-2.14a1.04 1.04 0 0 1 .128 1.464 1.04 1.04 0 0 1-1.592-1.336 1.04 1.04 0 0 1 1.464-.129Z" fill="#fff" fill-rule="evenodd" data-name="Path 64985"/><path d="M190.369 134.282c3.416 2.867 8.528 2.42 11.395-.997 2.867-3.416 2.42-8.528-.997-11.395-3.416-2.867-8.528-2.42-11.395.997-2.866 3.416-2.42 8.528.997 11.395Zm9.938-11.843c3.114 2.613 3.522 7.272.909 10.386-2.614 3.114-7.273 3.522-10.387.909-3.114-2.613-3.521-7.272-.908-10.387 2.613-3.114 7.272-3.521 10.386-.908Z" fill="#fff" fill-rule="evenodd" data-name="Path 64986"/></g><g data-name="8345462_electronic_repair_service_smartphone_device_icon"><path d="m48.746 89.21.093.083-10.251 11.386a.353.353 0 0 0-.076.131l-.559 1.766-1.606 1.784a1.462 1.462 0 0 0 .108 2.062l3.412 3.072 5.813 5.234 3.411 3.072c.599.539 1.524.49 2.063-.108l4.874-5.414.514 2.404-2.252 2.5a.358.358 0 0 0 .22.595 5.12 5.12 0 0 0 4.46-1.65 5.078 5.078 0 0 0 1.016-5.13l7.91-8.785a5.077 5.077 0 0 0 4.995-1.547 5.12 5.12 0 0 0 1.176-4.607.357.357 0 0 0-.615-.157l-2.251 2.5-2.445-.259 2.479-2.753a1.462 1.462 0 0 0-.108-2.063l-1.192-1.073-11.313-10.187-1.903-1.712a1.161 1.161 0 0 0-1.637.086l-.822.912-1.078 1.197-2.622 2.913-1.078 1.197-.821.912a1.16 1.16 0 0 0 .085 1.638Zm2.106-3.003.684.615 1.197 1.078.681.613-.599.665-2.562-2.306.6-.665Zm2.623-2.913.418.376-2.144 2.38-.417-.375 2.143-2.381Zm1.615 1.454-2.144 2.38-.665-.598 2.144-2.381.665.599Zm.947.852-2.144 2.381-.415-.374 2.144-2.38.415.373Zm.479-.532-.681-.613-1.197-1.078-.684-.615.599-.665 2.562 2.306-.6.665Zm-7.324 2.982.582-.646 2.562 2.306-.582.647a.444.444 0 0 1-.627.033l-.356-.321L49.584 89l-.359-.323a.444.444 0 0 1-.033-.627Zm.18 1.722.654.59-10.2 11.327-.976.426.322-1.015 10.2-11.328Zm-8.726 19.46a1.434 1.434 0 0 1 1.749.13l3.152 2.838c.495.446.606 1.161.312 1.726l-5.213-4.694Zm30.66-10.1a.357.357 0 0 0 .305-.116l1.868-2.074a4.405 4.405 0 0 1-1.12 3.244 4.37 4.37 0 0 1-4.485 1.28.358.358 0 0 0-.365.104l-8.201 9.109a.358.358 0 0 0-.066.374 4.37 4.37 0 0 1-.804 4.594 4.404 4.404 0 0 1-3.11 1.453l1.868-2.074a.358.358 0 0 0 .085-.315l-.7-3.269c0-.008-.006-.015-.008-.023-.003-.01-.003-.02-.007-.03-.004-.01-.011-.02-.016-.029a.356.356 0 0 0-.062-.088c-.009-.01-.017-.02-.027-.028a.34.34 0 0 0-.06-.039c-.01-.005-.018-.012-.028-.016a.351.351 0 0 0-.103-.028l-3.324-.353a.357.357 0 0 0-.304.117l-1.867 2.074a4.407 4.407 0 0 1 1.119-3.244 4.372 4.372 0 0 1 4.488-1.277.358.358 0 0 0 .365-.105l8.201-9.108a.358.358 0 0 0 .066-.374 4.372 4.372 0 0 1 1.156-4.945c.04-.035.081-.066.122-.1a4.307 4.307 0 0 1 .692-.467c.052-.028.104-.057.157-.083.102-.05.206-.094.311-.136.047-.019.092-.04.139-.057.153-.055.308-.103.466-.141l.035-.007c.147-.034.296-.06.447-.079.053-.006.106-.009.159-.014.073-.006.146-.009.22-.012l-1.86 2.066a.358.358 0 0 0-.085.314l.698 3.27a.351.351 0 0 0 .039.099c.005.01.013.018.02.027.013.02.027.038.044.055l.03.024a.342.342 0 0 0 .094.052c.011.004.02.01.03.013.01.003.021.002.032.004.008.002.015.006.023.007l3.324.352Zm-.602-4.222-2.48 2.753-.513-2.404 2.012-2.235.925.834c.305.274.33.746.056 1.052Zm-1.97-2.775c-.047.003-.093.012-.14.017a5.02 5.02 0 0 0-.582.091c-.057.013-.115.023-.172.037a5.189 5.189 0 0 0-.517.157l-.018.006a5.13 5.13 0 0 0-.512.226c-.051.025-.1.054-.15.081a5.076 5.076 0 0 0-.816.552c-.046.038-.093.073-.137.113a5.104 5.104 0 0 0-.407.4 5.078 5.078 0 0 0-1.014 5.133l-7.908 8.783a5.078 5.078 0 0 0-4.999 1.545 5.129 5.129 0 0 0-1.176 4.607.359.359 0 0 0 .614.157l2.252-2.5 2.444.259-4.874 5.414a.746.746 0 0 1-1.052.055l-3.17-2.855a2.15 2.15 0 0 0-.374-2.745l-3.152-2.839a2.15 2.15 0 0 0-2.77-.085l-3.17-2.854a.746.746 0 0 1-.055-1.051l1.606-1.784 1.699-.74a.353.353 0 0 0 .123-.09L50.558 90.84l.09.081c.476.428 1.21.39 1.638-.085l.822-.913 1.078-1.197 2.623-2.913 1.078-1.197.821-.912c.053-.06.099-.122.138-.188.015-.026.025-.055.038-.083.02-.04.041-.078.056-.118l9.795 8.82Zm-13.12-11.217a.444.444 0 0 1 .627-.033l1.902 1.713a.444.444 0 0 1 .033.627l-.582.646-2.562-2.306.582-.647Z" fill="#fff" fill-rule="evenodd" data-name="Path 64987"/><path d="m64.805 100.303-7.04 7.82a1.135 1.135 0 0 0 .083 1.6c.465.419 1.183.381 1.601-.083l7.041-7.82a1.135 1.135 0 0 0-.083-1.601 1.135 1.135 0 0 0-1.602.084Zm1.153 1.038-7.04 7.82a.418.418 0 0 1-.622-.56l7.042-7.82a.418.418 0 0 1 .62.56Z" fill="#fff" fill-rule="evenodd" data-name="Path 64988"/><path d="M50.727 102.814c-.053.25.217.494.46.415l8.911-2.895a.357.357 0 0 0 .129-.606l-6.963-6.27a.357.357 0 0 0-.59.192l-1.947 9.164Zm8.56-2.97-7.731 2.513 1.69-7.951 6.041 5.439Z" fill="#fff" fill-rule="evenodd" data-name="Path 64989"/><path d="m53.183 101.085 1.706-1.894a.358.358 0 1 0-.532-.48l-1.706 1.895a.358.358 0 1 0 .532.479Z" fill="#fff" fill-rule="evenodd" data-name="Path 64990"/><path d="M55.117 98.402c.147.133.373.12.505-.026l.219-.243a.358.358 0 1 0-.533-.479l-.218.243a.358.358 0 0 0 .027.505Z" fill="#fff" fill-rule="evenodd" data-name="Path 64991"/></g><g data-name="8345463_electronic_repair_service_camera_photo_icon"><path d="m-29.8 191.937 5.51 4.462-.928 3.456a.432.432 0 0 0 .146.448l11.308 9.157a.432.432 0 0 0 .468.049l3.187-1.627 5.51 4.462c.19.155.407.275.636.36l-5.69 7.028a.433.433 0 0 0-.083.164l-.577 2.22a.432.432 0 0 0 .611.494l2.051-1.026a.433.433 0 0 0 .143-.114L3.94 207.333l.096.078c.6.486 1.485.393 1.97-.207l.909-1.121 1.204-1.488 2.93-3.617 1.204-1.488.908-1.12c.486-.601.393-1.485-.207-1.971l-2.34-1.894a1.398 1.398 0 0 0-.232-.153 2.356 2.356 0 0 0-.233-.221l-25.2-20.407a2.293 2.293 0 0 0-3.222.338l-11.865 14.653a2.294 2.294 0 0 0 .338 3.222Zm16.361 16.675-10.872-8.804.755-2.811 12.71 10.292-2.593 1.323Zm5.319 12.242-1.118.559.315-1.21L2.465 206.14l.804.65-11.389 14.065Zm12.7-14.114-.433-.35-1.474-1.194-.433-.35a.538.538 0 0 1-.079-.756l.636-.786 3.175 2.571-.636.786a.538.538 0 0 1-.756.079Zm3.14-3.024-.508-.41 2.386-2.947.508.411-2.386 2.946Zm-1.205 1.488-3.174-2.57.661-.817.844.683 1.487 1.205.844.682-.662.817Zm.416-7.004.508.411-2.385 2.946-.508-.411L6.93 198.2Zm-.39 4.562-.816-.661 2.385-2.946.817.66-2.386 2.947Zm4.108-2.663-.843-.683-1.488-1.204-.843-.683.661-.817 3.174 2.57-.661.817Zm1.841-2.273-.636.785-3.174-2.57.636-.786a.537.537 0 0 1 .557-.178c.065.07.148.114.237.13l2.3 1.863c.23.187.266.526.08.756Zm-30.091-23.22a1.428 1.428 0 0 1 2.006-.21l24.66 19.968c-.157.085-.301.2-.42.348l-.908 1.121-1.205 1.488-2.929 3.617-1.205 1.488-.908 1.12c-.486.601-.393 1.485.208 1.971l.096.079-5.162 6.375a1.43 1.43 0 0 1-.687-.298l-25.201-20.407a1.428 1.428 0 0 1-.21-2.007l11.865-14.653Z" fill="#fff" fill-rule="evenodd" data-name="Path 64992"/><path d="M-14.614 198.948c3.26 2.64 8.062 2.136 10.703-1.125 2.64-3.261 2.135-8.062-1.125-10.703-3.261-2.64-8.062-2.136-10.703 1.125-2.64 3.261-2.136 8.062 1.125 10.703Zm9.034-11.157a6.754 6.754 0 0 1 .997 9.488 6.754 6.754 0 0 1-9.488.997 6.754 6.754 0 0 1-.997-9.487 6.754 6.754 0 0 1 9.488-.998Z" fill="#fff" fill-rule="evenodd" data-name="Path 64993"/><path d="M-13.203 197.205a5.373 5.373 0 0 0 7.549-.793 5.373 5.373 0 0 0-.794-7.549 5.373 5.373 0 0 0-7.548.793 5.373 5.373 0 0 0 .793 7.549Zm6.212-7.67a4.509 4.509 0 0 1 .666 6.333 4.509 4.509 0 0 1-6.334.666 4.509 4.509 0 0 1-.666-6.334 4.509 4.509 0 0 1 6.334-.666Z" fill="#fff" fill-rule="evenodd" data-name="Path 64994"/><path d="M-11.763 195.427a.432.432 0 1 0 .543-.67 2.219 2.219 0 0 1-.327-3.118.432.432 0 1 0-.671-.543 3.083 3.083 0 0 0 .455 4.331Z" fill="#fff" fill-rule="evenodd" data-name="Path 64995"/><path d="m-24.401 191.022 1.978 1.602a.432.432 0 1 0 .543-.671l-1.978-1.602a.432.432 0 1 0-.543.671Z" fill="#fff" fill-rule="evenodd" data-name="Path 64996"/></g><g data-name="8345465_electronic_repair_service_exhaust_fan_icon"><path d="m76.546 131.648-.596 11.371a4.917 4.917 0 0 0-2.806 4.201 4.966 4.966 0 0 0 1.92 4.178.359.359 0 0 0 .577-.264l.17-3.235 1.962-1.273-.202 3.853a1.113 1.113 0 0 0 1.052 1.17l1.855.097 24.227 1.27a1.113 1.113 0 0 0 1.169-1.053l1.366-26.081a1.113 1.113 0 0 0-1.052-1.17l-24.226-1.269-1.855-.097a1.113 1.113 0 0 0-1.169 1.052l-.202 3.854-1.817-1.472.17-3.234a.359.359 0 0 0-.547-.323 4.965 4.965 0 0 0-2.347 3.954 4.917 4.917 0 0 0 2.351 4.471Zm1.74 18.869.202-3.854 1.82 1.472-.15 2.877-1.497-.078a.397.397 0 0 1-.375-.417Zm27.865-25.09a.397.397 0 0 1 .374.417l-1.366 26.081a.397.397 0 0 1-.416.375l-23.263-1.219c.03-.027.055-.058.083-.085.045-.045.087-.09.13-.136a5.09 5.09 0 0 0 .246-.283c.037-.046.075-.09.11-.138.094-.125.182-.255.263-.389.012-.02.027-.039.04-.06.09-.154.172-.314.246-.478.021-.048.04-.097.06-.146a4.904 4.904 0 0 0 .279-.916c.01-.055.024-.11.033-.166a4.917 4.917 0 0 0-2.29-5.018l.179-3.399c.786 5.391 5.292 9.671 10.936 9.967 6.426.337 11.927-4.617 12.264-11.043.337-6.426-4.617-11.927-11.043-12.264-5.643-.296-10.573 3.49-11.918 8.768l.178-3.4a4.917 4.917 0 0 0 2.802-4.75c-.004-.057-.01-.112-.016-.168a4.79 4.79 0 0 0-.183-.943c-.014-.05-.026-.099-.042-.147a4.957 4.957 0 0 0-.197-.505c-.008-.019-.02-.036-.028-.056a5.01 5.01 0 0 0-.225-.421c-.03-.05-.062-.097-.093-.145a5.077 5.077 0 0 0-.33-.457c-.026-.032-.049-.065-.075-.096l23.262 1.22Zm-24.684 12.18c.316-6.031 5.48-10.681 11.512-10.365 6.031.316 10.681 5.48 10.365 11.512-.316 6.031-5.48 10.681-11.512 10.365-6.032-.316-10.681-5.48-10.365-11.512Zm-1.815-13.171a.397.397 0 0 1 .417-.375l1.497.078-.15 2.877-1.966 1.274.202-3.854Zm-3.32-.168-.139 2.657a.359.359 0 0 0 .132.297l2.506 2.028c.007.006.015.008.022.013.008.006.015.014.024.02.01.005.02.007.03.011a.32.32 0 0 0 .101.03c.01 0 .02.005.03.006l.012-.002a.345.345 0 0 0 .067-.007c.012-.002.024-.002.036-.006a.37.37 0 0 0 .098-.043l2.707-1.755a.357.357 0 0 0 .163-.281l.138-2.646c.042.045.084.09.124.138.034.04.069.08.101.123.079.101.151.206.22.314l.048.072c.082.134.155.272.221.413.018.038.032.078.048.116.046.105.088.212.125.32.018.052.033.105.049.158a4.225 4.225 0 0 1 .153.789c.004.05.011.099.014.149a4.21 4.21 0 0 1-2.573 4.148.358.358 0 0 0-.217.31l-.619 11.807a.358.358 0 0 0 .184.332 4.21 4.21 0 0 1 2.126 4.395c-.008.05-.02.098-.03.147a4.186 4.186 0 0 1-.127.478 4.061 4.061 0 0 1-.109.291 4.206 4.206 0 0 1-.223.458c-.02.036-.037.073-.058.108a4.24 4.24 0 0 1-.263.389c-.017.022-.037.042-.054.064-.08.1-.165.199-.254.292-.035.038-.074.073-.11.11-.046.043-.093.083-.14.125l.139-2.646a.358.358 0 0 0-.133-.297l-2.509-2.028a.357.357 0 0 0-.206-.08.362.362 0 0 0-.146.028c-.006.002-.013 0-.018.003-.01.004-.017.012-.026.016-.008.005-.016.006-.024.01l-2.704 1.756a.358.358 0 0 0-.162.282l-.14 2.657a4.24 4.24 0 0 1-1.107-3.08 4.21 4.21 0 0 1 2.577-3.672.358.358 0 0 0 .218-.31l.619-11.807a.358.358 0 0 0-.184-.331 4.21 4.21 0 0 1-2.18-3.922 4.24 4.24 0 0 1 1.424-2.947Z" fill="#fff" fill-rule="evenodd" data-name="Path 64997"/><path d="m78.314 143.053.042.002a1.133 1.133 0 0 0 1.19-1.07l.468-8.932a1.133 1.133 0 0 0-1.071-1.19l-.043-.002a1.133 1.133 0 0 0-1.19 1.072l-.467 8.93a1.133 1.133 0 0 0 1.07 1.19Zm.111-10.083a.416.416 0 0 1 .437-.394l.043.003c.229.012.406.208.394.437l-.469 8.93a.416.416 0 0 1-.437.394l-.042-.002a.416.416 0 0 1-.394-.437l.468-8.931Z" fill="#fff" fill-rule="evenodd" data-name="Path 64998"/><path d="m87.564 140.478 3.289-1c.032.039.065.075.1.111l-1.338 3.166a2.678 2.678 0 0 0-.21.909 2.71 2.71 0 0 0 2.564 2.842c.893.046 1.72-.33 2.272-1.033.551-.702.72-1.596.462-2.451l-1-3.289c.039-.032.075-.065.111-.1l3.166 1.338a2.71 2.71 0 0 0 3.75-2.354 2.675 2.675 0 0 0-1.032-2.272 2.677 2.677 0 0 0-2.45-.462l-3.29 1a2.097 2.097 0 0 0-.1-.111l1.338-3.166c.123-.29.193-.595.21-.91a2.71 2.71 0 0 0-2.564-2.841 2.675 2.675 0 0 0-2.272 1.033 2.674 2.674 0 0 0-.461 2.45l1 3.29a1.957 1.957 0 0 0-.112.1l-3.166-1.338a2.673 2.673 0 0 0-.908-.21 2.71 2.71 0 0 0-2.842 2.564c-.047.892.33 1.72 1.032 2.272.703.551 1.595.72 2.451.462Zm3.805-3.104c.093-.12.215-.229.342-.308a1.341 1.341 0 0 1 1.5.078 1.31 1.31 0 0 1 .478 1.304 1.303 1.303 0 0 1-.59.847 1.339 1.339 0 0 1-1.5-.079 1.304 1.304 0 0 1-.503-1.105c.013-.27.108-.525.273-.737Zm2.309 7.657a1.968 1.968 0 0 1-1.671.76 1.992 1.992 0 0 1-1.733-2.757l1.274-3.015c.033.016.07.023.103.036.037.015.074.028.112.04.173.057.35.1.536.11.185.01.366-.014.543-.053.04-.008.08-.017.12-.029.035-.01.07-.013.104-.024l.951 3.13c.19.629.066 1.286-.339 1.802Zm3.777-8.462a1.967 1.967 0 0 1 1.801.34 1.992 1.992 0 0 1-1.997 3.404l-3.015-1.275c.009-.018.013-.039.02-.058.034-.077.061-.156.084-.237.01-.034.022-.068.03-.104.027-.115.046-.232.053-.352.006-.12-.001-.24-.016-.357-.004-.035-.012-.07-.018-.106a2 2 0 0 0-.059-.244c-.006-.02-.007-.041-.014-.06l3.13-.951Zm-6.322-5.24a1.968 1.968 0 0 1 1.671-.759 1.992 1.992 0 0 1 1.886 2.09c-.012.23-.063.454-.154.667l-1.273 3.015c-.02-.01-.04-.013-.059-.02a2.013 2.013 0 0 0-.25-.088c-.028-.008-.054-.017-.082-.024a2.033 2.033 0 0 0-.36-.054 2.063 2.063 0 0 0-.363.016c-.03.004-.058.01-.087.015a2.044 2.044 0 0 0-.255.06c-.02.007-.042.008-.062.015l-.95-3.13a1.965 1.965 0 0 1 .338-1.802Zm-6.338 6.453a1.992 1.992 0 0 1 2.757-1.732l3.015 1.273c-.01.02-.013.041-.022.06a2.08 2.08 0 0 0-.082.233c-.01.036-.022.07-.03.106a2.05 2.05 0 0 0-.053.353c-.006.12.001.238.015.356.005.037.013.072.02.109.014.08.032.16.057.24.006.02.008.041.015.062l-3.13.95a1.964 1.964 0 0 1-1.802-.338 1.969 1.969 0 0 1-.76-1.672Z" fill="#fff" fill-rule="evenodd" data-name="Path 64999"/><path d="M91.866 148.473c5.676.298 10.535-4.077 10.832-9.753.298-5.676-4.078-10.535-9.753-10.832-5.676-.298-10.535 4.077-10.832 9.753-.298 5.676 4.077 10.535 9.753 10.832Zm1.041-19.87c5.281.276 9.353 4.798 9.076 10.08-.277 5.28-4.799 9.352-10.08 9.075-5.28-.277-9.352-4.799-9.075-10.08.276-5.28 4.798-9.352 10.08-9.075Z" fill="#fff" fill-rule="evenodd" data-name="Path 65000"/></g><g data-name="Outline"><path d="M128.958 89.704a.66.66 0 1 1-.04-.092z" fill="#fff" fill-rule="evenodd" data-name="Ellipse 679"/><path d="M125.02 99.751a15.196 15.196 0 1 0 12.833-5.713c7.504-4.035 10.7-7.432 9.509-10.106-1.881-4.225-12.129-.748-20.392 2.931-8.263 3.68-17.712 8.95-15.823 13.193 1.19 2.674 5.853 2.572 13.873-.305Zm24.568 3.801a13.875 13.875 0 1 1-23.07-3.541.568.568 0 0 0 .118-.205l2.596-6.79a.66.66 0 0 1 .767-.341l6.824 2.624a.568.568 0 0 0 .231.05c5.42.06 10.31 3.261 12.534 8.203Zm-22.08-15.482c10.423-4.64 17.569-6.021 18.647-3.6.881 1.979-2.837 5.276-10.188 9.07l-1.708-.686c3.71-1.869 8.46-4.73 7.67-6.504-.894-2.01-7.538.32-11.45 1.895a.66.66 0 1 0 .537 1.207c5.867-2.366 8.912-2.724 9.652-2.54-.343.659-2.595 2.602-8.05 5.327l-2.183-.843a1.93 1.93 0 0 0-1.373.083c-.443.204-.798.56-1 1.003l-.822 2.151c-5.706 2.274-8.662 2.62-9.387 2.437.346-.668 2.655-2.694 8.346-5.473a.66.66 0 0 0-.537-1.208c-3.76 1.84-9.966 5.233-9.07 7.243.79 1.774 6.102.175 9.979-1.319l-.634 1.728c-7.777 2.87-12.701 3.457-13.583 1.477-1.077-2.42 4.73-6.807 15.154-11.448Z" fill="#fff" fill-rule="evenodd" data-name="Path 65001"/><path d="M125.445 114.302c2.82 6.333 10.24 9.182 16.574 6.362 6.334-2.82 9.182-10.24 6.362-16.574-2.82-6.334-10.24-9.182-16.574-6.362-6.333 2.82-9.182 10.24-6.362 16.574Zm21.73-9.675c2.522 5.667-.026 12.307-5.693 14.83-5.667 2.523-12.307-.026-14.83-5.693-2.523-5.667.026-12.306 5.693-14.83 5.667-2.522 12.306.026 14.83 5.693Z" fill="#fff" fill-rule="evenodd" data-name="Path 65002"/><path d="M133.916 109.807c-.874.31-2.94 1.208-3.573 2.857a4.949 4.949 0 0 0 .915 5.06.66.66 0 0 0 1.112-.199l.881-2.309 1.553-.344.916 1.292-.884 2.303a.66.66 0 0 0 .696.898 4.968 4.968 0 0 0 4.063-3.155c.633-1.648-.305-3.69-.741-4.508l1.504-3.931a12.203 12.203 0 0 1 1.967-3.379 3.304 3.304 0 1 0-6.106-2.344 12.196 12.196 0 0 1-.784 3.828l-1.519 3.93Zm3.617-7.584a2.035 2.035 0 0 1 2.529-1.047 1.982 1.982 0 0 1 1.17 2.466 13.597 13.597 0 0 0-2.11 3.66l-1.615 4.218a.66.66 0 0 0 .045.573c.65 1.085 1.194 2.68.807 3.648a3.62 3.62 0 0 1-1.819 1.974l.54-1.404a.66.66 0 0 0-.073-.619l-1.38-1.946a.66.66 0 0 0-.687-.258l-2.324.514a.66.66 0 0 0-.47.405l-.54 1.404a3.634 3.634 0 0 1-.03-2.684c.368-.96 1.831-1.799 3.034-2.168a.66.66 0 0 0 .426-.392l1.614-4.22c.512-1.319.81-2.711.883-4.124Z" fill="#fff" fill-rule="evenodd" data-name="Path 65003"/><path d="M139.996 102.848a.66.66 0 1 1-.04-.091z" fill="#fff" fill-rule="evenodd" data-name="Ellipse 680"/></g><g data-name="Pliers_1_"><g data-name="Group 9802"><path d="M35.835 147.386c-.904.706-1.01 2.084-.241 3.136 2.75 3.765 4.862 7.767 6.459 12.234 1.44 4.033 1.773 8.353 1.784 8.51l.011.212 1.953 2.498.626-.489.264.338A4.87 4.87 0 0 0 45 175.14l-.262-.334.605-.473-1.817-2.327-.125-.169-.209-.064c-.042-.013-4.216-1.385-7.828-3.791-3.95-2.63-7.321-5.648-10.31-9.227-.834-1-2.196-1.23-3.1-.524-.417.325-.68.811-.74 1.368-.07.663.151 1.358.609 1.909 2.343 2.819 4.877 5.328 7.532 7.457l.867-1.081c-2.583-2.071-5.05-4.514-7.334-7.262-.216-.26-.326-.587-.296-.875a.61.61 0 0 1 .215-.424c.306-.24.837-.096 1.184.32 3.074 3.682 6.543 6.787 10.604 9.492 2.552 1.7 5.4 2.914 6.974 3.52l-3.019 2.359c-.88-1.553-2.278-3.046-3.671-3.879a40.37 40.37 0 0 1-3.263-2.178l-.824 1.114a41.73 41.73 0 0 0 3.376 2.254c1.379.824 2.823 2.483 3.513 4.034l.034.078 1.87 2.394 1.032-.805 1.002 1.283 2.453.234a4.847 4.847 0 0 0 1.286 2.174l-.038.022 1.487 2.665 12.943 12.317 1.854-1.449-6.333-8.106-.956-.21.07-1.275-1.305-.287.023-1.002-1.64-2.1c.104-.068.205-.14.305-.217.099-.077.193-.159.284-.242l1.687 2.16.953.204-.113 1.268 1.298.236-.036.98 6.352 8.131 1.854-1.448-8.767-15.447-.052-.092-2.26-2.119-.021.023A4.846 4.846 0 0 0 51.183 174l.368-2.45-1.002-1.284 1.01-.789-1.871-2.394-.068-.052c-1.338-1.045-2.599-2.848-3.064-4.385-1.027-3.389-3.163-8.672-7.51-14.595-.423-.578-1.044-.96-1.704-1.052a1.982 1.982 0 0 0-1.507.386Zm10.204 24.645-.538-.688 3.574-2.792.538.688-3.574 2.792Zm-6.214 4.855-.537-.689 3.573-2.792.538.689-3.574 2.792Zm2.52 1.1-.635-.813 1.937-1.514.597.764a4.91 4.91 0 0 0-.348 1.711l-1.55-.148Zm9.362 6.869-.038 1.647 1.27.28-.071 1.274 1.62.356 4.22 5.404-10.793-10.27-.326-.586c.846.21 1.742.194 2.59-.062l1.529 1.957Zm-5.689-4.473a3.493 3.493 0 0 1 .601-4.897 3.493 3.493 0 0 1 4.898.6 3.493 3.493 0 0 1-.602 4.898 3.493 3.493 0 0 1-4.897-.601Zm8.11-1.69 7.354 12.958-4.237-5.423.062-1.674-1.235-.225.11-1.228-1.659-.357-1.571-2.011c.453-.76.686-1.626.687-2.498l.489.458Zm-4.036-6.758-.233 1.552a4.912 4.912 0 0 0-1.738-.082l-.602-.77 1.938-1.514.635.814Zm-4.862-8.885c.47 1.553 1.581 3.271 2.875 4.501l-3.018 2.358c-.209-1.673-.698-4.731-1.73-7.618-1.641-4.594-3.815-8.711-6.644-12.586-.32-.437-.33-.987-.025-1.226a.61.61 0 0 1 .464-.105c.287.04.578.226.778.499 4.23 5.765 6.304 10.892 7.3 14.177Z" fill="#fff" fill-rule="evenodd" data-name="Path 64966"/><path d="M47.188 176.213a2.568 2.568 0 0 0 .23 4.202l.728-1.179a1.18 1.18 0 0 1-.105-1.932 1.18 1.18 0 0 1 1.655.204 1.18 1.18 0 0 1-.845 1.902l.095 1.382a2.568 2.568 0 0 0 1.842-4.138 2.568 2.568 0 0 0-3.6-.441Z" fill="#fff" fill-rule="evenodd" data-name="Path 64967"/></g></g><g data-name="8345462_electronic_repair_service_smartphone_device_icon"><path d="m326.492 44.612.108-.068 8.312 13.301a.361.361 0 0 0 .109.111l1.58 1.05 1.302 2.083c.437.699 1.36.912 2.06.475l3.986-2.49 6.79-4.243 3.986-2.491c.7-.437.913-1.361.476-2.06l-3.952-6.325 2.51.173 1.826 2.921a.366.366 0 0 0 .647-.049 5.243 5.243 0 0 0-.366-4.853 5.199 5.199 0 0 0-4.762-2.448l-6.412-10.263a5.198 5.198 0 0 0-.113-5.352 5.243 5.243 0 0 0-4.202-2.458.366.366 0 0 0-.328.56l1.826 2.922-.946 2.333-2.01-3.217a1.497 1.497 0 0 0-2.06-.475l-1.392.87-13.218 8.259-2.222 1.388a1.189 1.189 0 0 0-.377 1.636l.666 1.066.874 1.399 2.126 3.402.874 1.399.666 1.066c.346.555 1.08.725 1.636.378Zm-2.36-2.92.798-.5 1.399-.873.795-.497.486.777-2.993 1.87-.486-.777Zm-2.127-3.403.488-.305 1.738 2.781-.488.305-1.738-2.782Zm1.886-1.18 1.738 2.782-.777.486-1.738-2.782.777-.485Zm1.107-.69 1.738 2.781-.485.303-1.738-2.781.485-.303Zm-.389-.622-.796.497-1.398.874-.799.5-.485-.778 2.993-1.87.485.777Zm.868 8.049-.472-.756 2.993-1.87.472.755a.455.455 0 0 1-.145.627l-.416.26-1.386.866-.42.262a.455.455 0 0 1-.626-.144Zm1.745.31.765-.478 8.27 13.234.143 1.08-.908-.602-8.27-13.235Zm16.689 14.077a1.468 1.468 0 0 1 .62-1.684l3.684-2.301a1.468 1.468 0 0 1 1.786.18l-6.09 3.805Zm-1.287-33.023a.366.366 0 0 0-.029-.332l-1.514-2.424a4.51 4.51 0 0 1 2.876 2.018c.919 1.47.917 3.3-.006 4.775a.366.366 0 0 0 0 .388l6.65 10.642c.074.118.21.184.349.17a4.474 4.474 0 0 1 4.294 2.088 4.509 4.509 0 0 1 .553 3.47l-1.515-2.424a.366.366 0 0 0-.285-.172l-3.414-.235c-.009 0-.017.003-.025.003-.011 0-.021-.003-.032-.002-.012.001-.022.005-.033.008a.364.364 0 0 0-.104.036c-.012.006-.024.011-.035.019a.348.348 0 0 0-.056.048c-.008.008-.016.014-.023.023a.36.36 0 0 0-.057.093l-1.285 3.172a.366.366 0 0 0 .029.331l1.514 2.423a4.512 4.512 0 0 1-2.877-2.016 4.475 4.475 0 0 1 .01-4.777.366.366 0 0 0 0-.389l-6.65-10.641a.367.367 0 0 0-.349-.17 4.476 4.476 0 0 1-4.54-2.533c-.023-.05-.042-.099-.064-.148a4.41 4.41 0 0 1-.182-.498 4.577 4.577 0 0 1-.082-.315c-.013-.06-.026-.119-.037-.179a4.554 4.554 0 0 1-.047-.344c-.005-.051-.013-.102-.016-.153a4.483 4.483 0 0 1-.008-.499c0-.012.003-.024.003-.035.009-.155.025-.31.049-.463.008-.053.02-.107.03-.16.015-.074.033-.146.051-.22l1.508 2.414c.062.1.168.164.286.172l3.414.235a.36.36 0 0 0 .108-.01c.012-.003.022-.008.033-.012a.367.367 0 0 0 .066-.028c.012-.007.022-.015.032-.023a.35.35 0 0 0 .079-.078c.006-.01.015-.016.021-.026.006-.009.008-.02.013-.03.004-.007.01-.013.013-.02l1.284-3.172Zm-4.326-.598 2.01 3.216-2.511-.172-1.631-2.61 1.081-.677a.763.763 0 0 1 1.05.243Zm-3.287 1.154c-.01.048-.014.096-.023.144a5.145 5.145 0 0 0-.074.598c-.004.06-.01.12-.012.18-.006.184-.004.369.009.553v.02c.015.19.043.38.078.567.01.057.025.114.038.17a5.194 5.194 0 0 0 .312.96c.025.055.047.111.073.166.084.175.175.347.279.513a5.198 5.198 0 0 0 4.765 2.446l6.412 10.262a5.199 5.199 0 0 0 .11 5.355 5.25 5.25 0 0 0 4.202 2.457.367.367 0 0 0 .328-.56l-1.826-2.921.945-2.332 3.952 6.324a.763.763 0 0 1-.242 1.05l-3.703 2.314a2.2 2.2 0 0 0-2.808-.406l-3.683 2.302a2.2 2.2 0 0 0-.866 2.701l-3.702 2.314a.763.763 0 0 1-1.05-.243l-1.303-2.083-.25-1.88a.361.361 0 0 0-.052-.147l-8.312-13.301.106-.066a1.189 1.189 0 0 0 .377-1.636l-.666-1.066-.874-1.399-2.126-3.403-.874-1.398-.666-1.066a1.2 1.2 0 0 0-.146-.189c-.022-.023-.047-.04-.07-.062-.034-.03-.066-.062-.101-.087l11.443-7.15Zm-14.74 9.747a.455.455 0 0 1 .144-.626l2.222-1.388a.455.455 0 0 1 .626.144l.472.755-2.992 1.87-.472-.755Z" fill="#fff" fill-rule="evenodd" data-name="Path 64987"/><path d="m341.94 31.938 5.71 9.136c.339.543 1.056.708 1.599.37.543-.34.708-1.057.369-1.6l-5.709-9.136a1.162 1.162 0 0 0-1.599-.37 1.162 1.162 0 0 0-.37 1.6Zm1.348-.841 5.708 9.135a.428.428 0 0 1-.725.454l-5.709-9.136a.428.428 0 0 1 .726-.453Z" fill="#fff" fill-rule="evenodd" data-name="Path 64988"/><path d="M340.44 46.502c.23.123.547-.075.538-.337l-.334-9.585a.366.366 0 0 0-.56-.298l-8.135 5.082a.366.366 0 0 0 .022.635l8.469 4.503Zm-.507-9.262.29 8.317-7.348-3.908 7.058-4.41Z" fill="#fff" fill-rule="evenodd" data-name="Path 64989"/><path d="m339.43 43.596-1.382-2.213a.366.366 0 1 0-.622.389l1.383 2.213a.366.366 0 1 0 .622-.389Z" fill="#fff" fill-rule="evenodd" data-name="Path 64990"/><path d="M337.336 40.937a.366.366 0 0 0 .117-.505l-.177-.284a.366.366 0 1 0-.621.389l.176.283a.366.366 0 0 0 .505.117Z" fill="#fff" fill-rule="evenodd" data-name="Path 64991"/></g><g data-name="7231836_water_tool_construction_work_repair_icon"><path d="m254.033 133.154.945.3c.207.066.35.253.361.469.024.501.102.998.233 1.482a.516.516 0 0 1-.166.531c-.085.072-.171.14-.258.207l-.439.315-.015.01a7.912 7.912 0 0 1-9.021-.19 7.91 7.91 0 0 1-1.75-11.043c4.02-5.534 17.425-12.578 18.865-13.297a.52.52 0 0 1 .605.822c-.254.265-.467.97-.723 1.953-.672 2.573-1.407 6.913-2.467 11.036a.517.517 0 0 1-.919.177c-.26.1-.514.213-.762.339l.213.97a.518.518 0 0 1-.225.546 6.98 6.98 0 0 0-1.18.954.518.518 0 0 1-.582.109l-.903-.41a8.014 8.014 0 0 0-.49.674l.669.733c.145.16.177.394.077.587a6.98 6.98 0 0 0-.543 1.416.518.518 0 0 1-.45.384l-.989.097a8.206 8.206 0 0 0-.086.83Zm7.894-19.599c-3.765 2.007-13.811 7.672-17.166 12.288a6.874 6.874 0 0 0 1.52 9.598 6.877 6.877 0 0 0 7.835.169l.374-.268a7.902 7.902 0 0 1-.16-1.007l-.984-.312a.518.518 0 0 1-.36-.498 9.234 9.234 0 0 1 .186-1.78.519.519 0 0 1 .456-.413l1.028-.1c.102-.325.224-.643.365-.952l-.696-.763a.52.52 0 0 1-.064-.611 9.413 9.413 0 0 1 1.053-1.45.52.52 0 0 1 .601-.128l.941.427c.25-.23.515-.444.792-.642l-.222-1.008a.519.519 0 0 1 .251-.562 9.234 9.234 0 0 1 1.636-.728.639.639 0 0 1 .06-.017c.97-3.91 1.66-7.916 2.295-10.347.085-.326.172-.625.26-.896Z" fill="#fff" fill-rule="evenodd" data-name="Path 64974"/><path d="m265.561 126.377.763-.697a.517.517 0 0 1 .612-.064c.515.303 1 .656 1.448 1.053.17.15.222.394.128.6l-.426.942c.23.25.445.514.641.792l1.009-.222a.518.518 0 0 1 .561.25c.296.521.539 1.069.729 1.637a.517.517 0 0 1-.19.584l-.839.601c.074.332.127.669.159 1.008l.984.312c.216.069.363.27.362.498a9.3 9.3 0 0 1-.188 1.78.517.517 0 0 1-.456.412l-1.028.101a7.887 7.887 0 0 1-.366.951l.697.763c.153.168.179.416.064.611a9.246 9.246 0 0 1-1.053 1.45.517.517 0 0 1-.601.128l-.941-.427c-.25.231-.514.445-.792.642l.221 1.008a.517.517 0 0 1-.25.562 9.3 9.3 0 0 1-1.635.728.518.518 0 0 1-.586-.19l-.6-.84a7.902 7.902 0 0 1-1.008.161l-.312.984a.517.517 0 0 1-.497.36 9.285 9.285 0 0 1-1.782-.186.518.518 0 0 1-.411-.457l-.1-1.028a7.715 7.715 0 0 1-.953-.365l-.763.696a.517.517 0 0 1-.611.064c-.516-.303-1-.655-1.449-1.052a.517.517 0 0 1-.128-.602l.427-.94a7.67 7.67 0 0 1-.642-.792l-1.008.222a.518.518 0 0 1-.562-.251 9.243 9.243 0 0 1-.728-1.636.518.518 0 0 1 .189-.585l.84-.6a7.902 7.902 0 0 1-.16-1.008l-.984-.312a.518.518 0 0 1-.36-.498 9.234 9.234 0 0 1 .186-1.78.519.519 0 0 1 .456-.413l1.028-.1c.102-.325.224-.643.365-.952l-.696-.763a.52.52 0 0 1-.064-.611 9.413 9.413 0 0 1 1.053-1.45.52.52 0 0 1 .601-.128l.941.427c.25-.23.515-.444.792-.642l-.222-1.008a.519.519 0 0 1 .251-.562 9.234 9.234 0 0 1 1.636-.728.518.518 0 0 1 .585.19l.601.84a7.773 7.773 0 0 1 1.007-.16l.312-.985a.518.518 0 0 1 .498-.36 9.243 9.243 0 0 1 1.781.187c.222.045.39.23.412.457l.1 1.027c.326.1.643.223.952.366Zm1.846.822a7.994 7.994 0 0 0-.674-.49l-.733.67a.518.518 0 0 1-.586.077 6.898 6.898 0 0 0-1.417-.544.518.518 0 0 1-.384-.45l-.097-.988a8.213 8.213 0 0 0-.83-.088l-.3.947a.519.519 0 0 1-.469.36 6.915 6.915 0 0 0-1.498.238.518.518 0 0 1-.558-.198l-.577-.807c-.26.1-.514.213-.762.339l.213.97a.518.518 0 0 1-.225.546 6.98 6.98 0 0 0-1.18.954.518.518 0 0 1-.582.109l-.903-.41a8.014 8.014 0 0 0-.49.674l.669.733c.145.16.177.394.077.587a6.98 6.98 0 0 0-.543 1.416.518.518 0 0 1-.45.384l-.989.097a8.206 8.206 0 0 0-.086.83l.945.299c.207.066.35.253.361.469.024.506.104 1.01.237 1.498a.519.519 0 0 1-.198.558l-.807.578c.1.26.214.514.34.762l.968-.213a.518.518 0 0 1 .548.226c.273.427.594.822.955 1.179a.518.518 0 0 1 .107.581l-.41.904c.216.175.442.339.675.49l.733-.669a.517.517 0 0 1 .586-.077c.45.232.926.415 1.416.544.21.055.363.234.384.45l.097.987c.275.044.552.073.829.088l.3-.946a.517.517 0 0 1 .47-.36 6.908 6.908 0 0 0 1.498-.239.519.519 0 0 1 .558.198l.577.808c.26-.1.514-.214.762-.339l-.213-.97a.517.517 0 0 1 .226-.547 6.915 6.915 0 0 0 1.179-.954.52.52 0 0 1 .582-.108l.904.41a8.63 8.63 0 0 0 .49-.675l-.67-.732a.52.52 0 0 1-.077-.588c.233-.45.415-.925.544-1.416a.517.517 0 0 1 .45-.383l.988-.097c.043-.275.072-.551.087-.83l-.947-.3a.519.519 0 0 1-.36-.469 6.908 6.908 0 0 0-.237-1.498.517.517 0 0 1 .198-.558l.807-.578c-.1-.26-.213-.513-.34-.761l-.969.212a.516.516 0 0 1-.546-.226 6.898 6.898 0 0 0-.955-1.178.517.517 0 0 1-.108-.582l.41-.904Zm-2.981 3.394a3.715 3.715 0 0 0-5.187.822 3.715 3.715 0 0 0 .821 5.187 3.715 3.715 0 0 0 5.187-.822 3.715 3.715 0 0 0-.821-5.187Zm-.61.838a2.68 2.68 0 0 1 .593 3.74 2.68 2.68 0 0 1-3.74.593 2.68 2.68 0 0 1-.593-3.74 2.68 2.68 0 0 1 3.74-.593Z" fill="#fff" fill-rule="evenodd" data-name="Path 64975"/><path d="M248.41 124.397s-5.605 3.868-1.967 8.575a.518.518 0 0 0 .818-.634c-3.015-3.902 1.732-7.085 1.732-7.085a.519.519 0 0 0-.584-.856Z" fill="#fff" fill-rule="evenodd" data-name="Path 64976"/></g><g data-name="Drill_1_"><g data-name="Group 9803"><path d="M292.136 90.483a1.325 1.325 0 0 0 .033 1.872 1.325 1.325 0 0 0 1.871-.033 1.325 1.325 0 0 0-.032-1.871 1.325 1.325 0 0 0-1.872.032Zm1.155 1.115a.282.282 0 1 1-.405-.392.282.282 0 0 1 .405.392Z" fill="#fff" fill-rule="evenodd" data-name="Path 64968"/><path d="M315.645 78.54a1.677 1.677 0 0 0-1.52.482l-1.862 1.927.315.304-.834.865-.84-.81-1.716 1.777-3.26-3.147-.385.398-2.252-2.175.385-.399-6.584-6.358.473-.489-.75-.723-.472.489-2.585 2.676-.462.478.75.724.462-.478 6.584 6.358.394-.41 1.678 1.62-6.232 6.453c-.113.118-.224.238-.332.36l-3.005-2.393-.828 1.04-4.634-3.678-.045-3.049-2.231-2.155-6.662 6.9 17.91 17.296.01-.009c.124.132.252.261.384.389l.375.362 8.639-8.95 1.032-.306 4.735-4.904-.55-.531.743-.769.723-.75 1.717-1.777-.84-.81.835-.865.315.305 1.862-1.928c.318-.33.474-.757.47-1.183l1.754-3.06a.616.616 0 0 0 .08-.33l5.238-5.423-.75-.724-5.471 5.666-2.76 1.714Zm-20.202-5.428.848.819.723-.75-.847-.818.202-.21 5.834 5.635-.202.209-4.277-4.13-.724.75 4.277 4.13-.211.218-5.834-5.634.21-.219Zm6.767 6.168.357-.37 2.253 2.176-.357.37-.576-.556-1.677-1.62Zm-8.626 8.476.177-.223 2.188 1.742c-.055.076-.11.153-.163.23l-1.528-1.212-.674-.537Zm-4.063 4.467 4.665 4.505c.113.661.294 1.313.539 1.947l-12.791-12.352.713-.738 6.61 6.383.264.255Zm6.773 7.364 3.43-3.55-.75-.724-3.171 3.283a9.206 9.206 0 0 1-.583-1.914l3.221-3.336a4.134 4.134 0 0 1 5.44-.44l-7.141 7.395c-.16-.235-.309-.473-.446-.714Zm-5.785-7.858 1.692-3.739 1.415 1.123 1.62 1.29a9.724 9.724 0 0 0-1.192 4.74l-3.535-3.414Zm-3.417-8.25-1.624 1.681.75.724 1.444-1.496 3.698 2.934-1.647 3.638-6.342-6.125 3.684-3.815.037 2.46Zm-1.21-3.778.517.499-5.215 5.4-.516-.5 5.214-5.4Zm24.925 9.33-3.822 3.957-1.032.307-8.097 8.388a11.398 11.398 0 0 1-.48-.54l8-8.286-.374-.362a5.176 5.176 0 0 0-7.31.128l-2.619 2.711c-.071-2.319.793-4.627 2.609-6.508l6.231-6.453.575.556 6.32 6.102Zm.916-2.05-.742.77-5.769-5.572.742-.768 2.51 2.423 3.259 3.148Zm1.717-1.777-.993 1.028-2.51-2.423.993-1.029.09.087 2.33 2.25.09.087Zm.686-2.39-.802.83-.83-.802.801-.831.831.802Zm2.209-1.658-1.138 1.178-1.46-1.41 1.137-1.178a.637.637 0 0 1 .9-.016l.545.527c.253.244.26.647.016.9Zm.703-1.654-.379-.365.914-.567-.535.932Z" fill="#fff" fill-rule="evenodd" data-name="Path 64969"/><path d="m304.531 84.18-2.742 2.838-.749-.724 2.742-2.839.75.724z" fill="#fff" fill-rule="evenodd" data-name="Rectangle 3265"/><path d="m306.868 86.435-2.742 2.84-.75-.724 2.742-2.84.75.724z" fill="#fff" fill-rule="evenodd" data-name="Rectangle 3266"/><path d="m305.7 85.307-2.742 2.84-.75-.724 2.742-2.84.75.724z" fill="#fff" fill-rule="evenodd" data-name="Rectangle 3267"/><path d="m301.683 94.007-1.18 1.221-.749-.724 1.18-1.22.749.723z" fill="#fff" fill-rule="evenodd" data-name="Rectangle 3268"/></g></g><g data-name="8345463_electronic_repair_service_camera_photo_icon"><path d="m209.347 35.238 4.193 3.395-.706 2.63a.329.329 0 0 0 .11.34l8.604 6.967c.1.082.24.096.356.037l2.425-1.237 4.193 3.395c.145.118.31.209.484.274l-4.33 5.347a.33.33 0 0 0-.063.124l-.439 1.69a.329.329 0 0 0 .465.375l1.56-.78a.33.33 0 0 0 .109-.087l8.71-10.756.074.06c.457.37 1.13.299 1.5-.158l.69-.853.917-1.132 2.228-2.752.917-1.132.69-.853c.37-.457.3-1.13-.157-1.5l-1.78-1.44a1.063 1.063 0 0 0-.177-.117 1.793 1.793 0 0 0-.177-.168L220.568 21.38a1.745 1.745 0 0 0-2.45.257l-9.029 11.15a1.745 1.745 0 0 0 .258 2.45Zm12.448 12.687-8.272-6.699.575-2.139 9.67 7.831-1.973 1.007Zm4.047 9.314-.85.426.24-.92 8.665-10.701.61.495-8.665 10.7Zm9.663-10.738-.329-.267-1.122-.908-.329-.267a.41.41 0 0 1-.06-.575l.484-.598 2.416 1.957-.484.597a.41.41 0 0 1-.576.06Zm2.39-2.3-.387-.314 1.815-2.241.387.313-1.815 2.241Zm-.917 1.131-2.415-1.956.503-.62.642.519 1.132.916.641.52-.503.621Zm.317-5.33.386.314-1.815 2.241-.386-.313 1.815-2.241Zm-.297 3.472-.621-.503 1.815-2.242.62.503-1.814 2.242Zm3.125-2.026-.641-.52-1.132-.916-.642-.52.503-.621 2.416 1.956-.504.621Zm1.401-1.73-.484.598-2.415-1.956.484-.598a.409.409 0 0 1 .424-.135.323.323 0 0 0 .18.099l1.75 1.417a.41.41 0 0 1 .061.575Zm-22.896-17.667a1.087 1.087 0 0 1 1.527-.16l18.763 15.193c-.12.065-.23.153-.32.265l-.69.853-.917 1.132-2.229 2.752-.916 1.132-.691.853c-.37.457-.3 1.13.157 1.5l.074.06-3.928 4.85a1.088 1.088 0 0 1-.523-.227l-19.174-15.527a1.087 1.087 0 0 1-.16-1.527l9.028-11.149Z" fill="#fff" fill-rule="evenodd" data-name="Path 64992"/><path d="M220.901 40.572a5.796 5.796 0 0 0 8.144-.856 5.796 5.796 0 0 0-.856-8.143 5.796 5.796 0 0 0-8.143.856 5.796 5.796 0 0 0 .855 8.143Zm6.874-8.489a5.139 5.139 0 0 1 .759 7.22 5.139 5.139 0 0 1-7.22.758 5.139 5.139 0 0 1-.758-7.219 5.139 5.139 0 0 1 7.22-.759Z" fill="#fff" fill-rule="evenodd" data-name="Path 64993"/><path d="M221.975 39.246a4.088 4.088 0 0 0 5.744-.604 4.088 4.088 0 0 0-.604-5.743 4.088 4.088 0 0 0-5.743.603 4.088 4.088 0 0 0 .603 5.744Zm4.726-5.837a3.43 3.43 0 0 1 .507 4.82 3.43 3.43 0 0 1-4.82.506 3.43 3.43 0 0 1-.506-4.82 3.43 3.43 0 0 1 4.82-.506Z" fill="#fff" fill-rule="evenodd" data-name="Path 64994"/><path d="M223.07 37.893a.328.328 0 1 0 .414-.51 1.688 1.688 0 0 1-.25-2.372.328.328 0 1 0-.51-.413 2.346 2.346 0 0 0 .346 3.295Z" fill="#fff" fill-rule="evenodd" data-name="Path 64995"/><path d="m213.455 34.541 1.505 1.22a.328.328 0 1 0 .413-.512l-1.505-1.218a.328.328 0 1 0-.413.51Z" fill="#fff" fill-rule="evenodd" data-name="Path 64996"/></g><g data-name="8345452_electronic_repair_service_fan_cooler_icon"><path d="M292.374 172.383a.94.94 0 0 0 1.277-.367l3.935-7.098a.94.94 0 0 0-1.643-.91l-3.935 7.098a.94.94 0 0 0 .366 1.277Zm4.195-8.029a.224.224 0 0 1 .39.217l-3.934 7.098a.223.223 0 1 1-.39-.216l3.934-7.099Z" fill="#fff" fill-rule="evenodd" data-name="Path 65025"/><path d="m295.348 162.589-4.858 8.764a4.383 4.383 0 0 0-3.875 2.272 4.424 4.424 0 0 0-.092 4.103.358.358 0 0 0 .634.015l1.378-2.486.406-.05c-2.847 5.538-.796 12.396 4.687 15.435 5.59 3.098 12.658 1.072 15.757-4.519 2.632-4.747 1.565-10.56-2.24-14.102l2.745-3.49 1.077.597c.127.07.284.057.397-.034l4.222-3.37a.358.358 0 0 0-.05-.592l-11.884-6.587a.358.358 0 0 0-.454.094c-.047-.12-.093-.24-.15-.357a.358.358 0 0 0-.634-.015l-1.378 2.486-2.392.293-1.02-2.184 1.378-2.486a.358.358 0 0 0-.349-.53 4.424 4.424 0 0 0-3.43 2.253 4.382 4.382 0 0 0 .125 4.49Zm13.41 23.187c-2.906 5.245-9.538 7.147-14.783 4.24-5.245-2.908-7.146-9.54-4.239-14.784l.072-.13 1.12-.136.123.264c-.11.169-.22.346-.332.547-2.606 4.702-.901 10.649 3.801 13.256 4.703 2.606 10.65.901 13.256-3.802 2.607-4.704.903-10.652-3.8-13.258a9.761 9.761 0 0 0-8.76-.344l.845-1.523c2.85-.874 5.849-.56 8.46.887 5.243 2.907 7.145 9.539 4.238 14.783Zm-13.862-9.805a1.91 1.91 0 0 1 1.008.605l2.086 2.391c-.018.015-.032.034-.05.05-.054.048-.104.1-.153.153-.027.03-.055.058-.08.089a2.006 2.006 0 0 0-.193.283l-.002.004c-.055.1-.1.205-.136.311-.013.036-.021.073-.031.11-.021.073-.038.146-.05.22-.004.023-.012.043-.015.065l-3.134-.502a1.92 1.92 0 0 1-.98-.47c.02-.015.038-.033.058-.048.046-.036.09-.075.135-.114a4.563 4.563 0 0 0 .382-.367c.08-.088.155-.18.229-.274.033-.043.068-.084.1-.129.1-.14.196-.285.28-.436.074-.135.14-.274.2-.415.01-.027.022-.053.033-.08.055-.137.103-.276.144-.417l.021-.078a4.31 4.31 0 0 0 .097-.442l.001-.006c.025-.151.038-.305.046-.458 0-.015.003-.03.004-.045Zm-2.974 1.125a2.501 2.501 0 0 0-.048.186l-1.305 2.353a.358.358 0 0 0 .349.53 4.4 4.4 0 0 0 1.625-.496c.393.416.91.693 1.488.788l3.297.529c.01.043.023.085.036.127l-2.515 2.194c-.231.2-.424.44-.573.708a2.646 2.646 0 0 0 1.034 3.592 2.613 2.613 0 0 0 2.437.067 2.612 2.612 0 0 0 1.454-1.955l.527-3.296a1.96 1.96 0 0 0 .129-.037l2.194 2.516a2.646 2.646 0 0 0 4.3-.46 2.613 2.613 0 0 0 .067-2.437 2.614 2.614 0 0 0-1.955-1.455l-3.296-.528a1.96 1.96 0 0 0-.037-.128l2.515-2.194c.232-.2.424-.44.573-.708a2.646 2.646 0 0 0-1.033-3.592 2.613 2.613 0 0 0-2.437-.067 2.611 2.611 0 0 0-1.454 1.955l-.527 3.296a1.83 1.83 0 0 0-.13.037l-2.194-2.516a2.625 2.625 0 0 0-1.586-.868 4.395 4.395 0 0 0-.635-1.815l.364-.657a9.045 9.045 0 0 1 9.043-.166c4.358 2.415 5.937 7.926 3.52 12.285-2.415 4.357-7.925 5.938-12.282 3.522-4.357-2.415-5.937-7.925-3.522-12.282l.068-.12.51 1.092Zm5.79 4.664c.021.026.048.046.07.07.027.03.055.058.084.085.126.123.263.236.42.323.158.087.325.144.497.185.04.01.078.02.118.027.032.006.063.018.095.022l-.502 3.133a1.903 1.903 0 0 1-1.06 1.425c-.572.278-1.22.26-1.776-.048a1.93 1.93 0 0 1-.338-3.135l2.392-2.087Zm2.095-.118a1.31 1.31 0 0 1-.429.123 1.293 1.293 0 0 1-1.266-.7l-.003-.004a1.267 1.267 0 0 1 .03-1.172c.01-.018.023-.033.033-.05a1.262 1.262 0 0 1 .945-.598 1.296 1.296 0 0 1 1.269.703 1.266 1.266 0 0 1-.03 1.173c-.126.23-.317.41-.55.525Zm.976-2.395c-.012-.015-.028-.026-.04-.041a1.975 1.975 0 0 0-.18-.18c-.022-.02-.042-.04-.064-.058a2.001 2.001 0 0 0-.29-.2 2.005 2.005 0 0 0-.323-.14c-.027-.01-.053-.015-.08-.023a2.004 2.004 0 0 0-.249-.057c-.02-.003-.038-.01-.057-.013l.502-3.134a1.903 1.903 0 0 1 1.06-1.424 1.905 1.905 0 0 1 1.776.048 1.93 1.93 0 0 1 .338 3.135l-2.393 2.087Zm.433 1.508 3.134.502a1.902 1.902 0 0 1 1.424 1.06c.278.572.26 1.22-.048 1.777a1.93 1.93 0 0 1-2.62.754 1.905 1.905 0 0 1-.515-.417l-2.086-2.393c.015-.012.027-.028.042-.041.06-.052.115-.108.169-.167.024-.027.05-.053.072-.081.072-.09.138-.183.195-.285.056-.101.1-.207.138-.316.012-.034.02-.07.03-.104.022-.076.04-.153.052-.231.003-.02.01-.038.013-.058Zm1.286-16.572a.358.358 0 0 0 .183.354l1.076.597-1.506 4.182a11.664 11.664 0 0 0-5.713-.079l2.538-4.58a4.379 4.379 0 0 0 3.576-1.806l-.154 1.332Zm2.365 6.184a11.502 11.502 0 0 0-1.926-.843l1.597-4.435.423-1.168 5.322 2.95-.767.978-2.912 3.701a11.599 11.599 0 0 0-1.737-1.183Zm9.854-4.868-3.616 2.887-.767-.425.768-.979a.356.356 0 0 0-.109-.534l-6.056-3.357a.358.358 0 0 0-.51.19l-.424 1.17-.766-.424.532-4.597 10.948 6.069Zm-16.72-8.795-1.092 1.97a.358.358 0 0 0-.012.325l1.208 2.585c.065.14.213.223.367.204l2.831-.346a.357.357 0 0 0 .27-.182l1.093-1.97a3.703 3.703 0 0 1-.338 2.749 3.676 3.676 0 0 1-3.436 1.897.358.358 0 0 0-.333.184l-3.056 5.513-1.497 2.702-.516.93a.358.358 0 0 0 .02.38c.403.574.634 1.245.668 1.942a3.652 3.652 0 0 1-.731 2.4 3.716 3.716 0 0 1-1.878 1.32l.954-1.72.139-.25c.055-.1.06-.221.011-.325l-.041-.088-.847-1.817-.004-.006-.315-.674a.358.358 0 0 0-.368-.204l-2.831.346a.357.357 0 0 0-.27.182l-1.092 1.97a3.701 3.701 0 0 1 .337-2.749 3.676 3.676 0 0 1 3.437-1.897.358.358 0 0 0 .332-.184l5.07-9.145a.358.358 0 0 0-.02-.38 3.676 3.676 0 0 1-.213-3.92 3.7 3.7 0 0 1 2.153-1.742Z" fill="#fff" fill-rule="evenodd" data-name="Path 65026"/><path d="m307.937 163.66.9.5a.358.358 0 1 0 .347-.627l-.9-.5a.358.358 0 1 0-.347.627Z" fill="#fff" fill-rule="evenodd" data-name="Path 65027"/><path d="m310.492 165.077.9.499a.358.358 0 1 0 .348-.626l-.9-.5a.358.358 0 1 0-.348.627Z" fill="#fff" fill-rule="evenodd" data-name="Path 65028"/><path d="m305.471 162.293.9.5a.358.358 0 1 0 .347-.627l-.9-.499a.358.358 0 1 0-.347.626Z" fill="#fff" fill-rule="evenodd" data-name="Path 65029"/></g><g data-name="8345450_electronic_repair_service_refrigerator_icebox_icon"><path d="m293.252 132.335 6.368 9.806a5.033 5.033 0 0 0 .202 5.174 5.067 5.067 0 0 0 4.104 2.304.358.358 0 0 0 .31-.553l-1.81-2.789.87-2.26 3.204 4.933c.43.662 1.318.85 1.98.42l14.71-9.552c.663-.43.852-1.319.422-1.981l-15.466-23.816a1.429 1.429 0 0 0-1.82-.503l-.353-.542a1.046 1.046 0 0 0-1.444-.307l-1.15.747c-.484.314-.621.962-.308 1.445l.342.526-9.206 5.979-.342-.527a1.046 1.046 0 0 0-1.445-.307l-1.15.748c-.483.313-.621.961-.307 1.444l.351.541a1.429 1.429 0 0 0-.28 1.868l2 3.081-2.42-.124-1.81-2.789a.358.358 0 0 0-.632.059 5.067 5.067 0 0 0 .436 4.687 5.032 5.032 0 0 0 4.644 2.288Zm29.55 6.882-14.711 9.553a.717.717 0 0 1-.99-.21l-3.204-4.933 2.42.124 1.81 2.789a.358.358 0 0 0 .632-.059 5.067 5.067 0 0 0-.435-4.687 5.025 5.025 0 0 0-3.632-2.268l13.479-8.754 4.84 7.455a.717.717 0 0 1-.21.99Zm-15.256-24.806 10.235 15.76-14.182 9.21-6.288-9.681a5.033 5.033 0 0 0-.537-5.629c-.038-.045-.077-.087-.116-.131a5.155 5.155 0 0 0-.41-.416 5.076 5.076 0 0 0-.305-.253c-.044-.033-.086-.068-.131-.1a4.947 4.947 0 0 0-.466-.3l-.04-.02a5.08 5.08 0 0 0-.458-.222c-.054-.023-.11-.042-.164-.064a4.872 4.872 0 0 0-.551-.178c-.043-.011-.085-.026-.128-.036l12.55-8.15a.717.717 0 0 1 .99.21Zm-3.874.06a.329.329 0 0 1 .096-.454l1.151-.748a.328.328 0 0 1 .454.097l.341.525-1.7 1.105-.342-.525Zm-12.109 7.863a.329.329 0 0 1 .097-.454l1.15-.747a.328.328 0 0 1 .455.096l.34.526-1.7 1.104-.342-.525Zm.282 1.42 1.045-.68 1.616 2.49-.87 2.26-2.001-3.08a.716.716 0 0 1 .21-.99Zm-3.23 2.571 1.499 2.308a.357.357 0 0 0 .282.163l3.302.169c.009 0 .016-.003.025-.003.01 0 .02.002.03.001.012-.001.022-.006.032-.008a.347.347 0 0 0 .099-.035c.013-.007.026-.013.038-.022.017-.012.032-.027.047-.042.01-.01.02-.018.029-.029a.376.376 0 0 0 .053-.091l1.188-3.085a.357.357 0 0 0-.034-.324l-1.493-2.3c.068.014.136.027.203.044.053.013.106.025.158.04.136.04.27.085.4.138.019.007.038.012.056.02.148.061.292.132.432.21.043.022.083.05.124.074.097.057.193.118.285.183l.14.105a4.378 4.378 0 0 1 .603.563c.035.039.07.076.104.116a4.325 4.325 0 0 1 .368 5.007.358.358 0 0 0 .007.38l6.605 10.17a.351.351 0 0 0 .094.095c.002 0 .003.001.005.003.07.049.156.074.245.063a4.326 4.326 0 0 1 4.182 1.945c.645.993.851 2.197.593 3.332l-1.499-2.308a.358.358 0 0 0-.282-.162l-3.302-.17a.36.36 0 0 0-.105.012c-.013.003-.024.009-.036.013-.02.008-.041.016-.06.027-.012.007-.023.017-.034.026a.307.307 0 0 0-.073.076c-.007.008-.015.016-.02.025-.005.009-.007.02-.012.03-.003.007-.01.012-.012.02l-1.189 3.086a.357.357 0 0 0 .034.323l1.499 2.308a4.35 4.35 0 0 1-2.803-1.896 4.325 4.325 0 0 1-.075-4.612.358.358 0 0 0-.007-.38l-6.605-10.17a.358.358 0 0 0-.344-.16 4.326 4.326 0 0 1-4.182-1.946 4.349 4.349 0 0 1-.594-3.332Z" fill="#fff" fill-rule="evenodd" data-name="Path 65018"/><path d="M301.959 141.3a1.03 1.03 0 0 0 .302-1.424l-5.863-9.029a1.03 1.03 0 0 0-1.423-.303 1.03 1.03 0 0 0-.303 1.424l5.863 9.029a1.03 1.03 0 0 0 1.424.302Zm-6.687-9.722a.314.314 0 0 1 .526-.341l5.863 9.029a.314.314 0 0 1-.525.34l-5.864-9.028Z" fill="#fff" fill-rule="evenodd" data-name="Path 65019"/><path d="m307.354 122.967-7.825 5.082a.357.357 0 0 0 .033.62l8.313 4.235c.228.116.534-.082.52-.337l-.488-9.318a.36.36 0 0 0-.553-.282Zm.294 9.018-7.209-3.673 6.785-4.406.424 8.079Z" fill="#fff" fill-rule="evenodd" data-name="Path 65020"/><path d="M306.74 130.589a.358.358 0 0 0 .106-.496l-1.382-2.128a.358.358 0 0 0-.6.39l1.382 2.128c.107.166.33.213.495.106Z" fill="#fff" fill-rule="evenodd" data-name="Path 65021"/><path d="M304.764 127.544a.358.358 0 0 0 .105-.495l-.177-.273a.358.358 0 0 0-.6.39l.176.273c.108.165.33.212.496.105Z" fill="#fff" fill-rule="evenodd" data-name="Path 65022"/><path d="M318.857 134.897a.358.358 0 0 0-.105.495l.682 1.05a.358.358 0 0 0 .6-.39l-.682-1.05a.358.358 0 0 0-.495-.105Z" fill="#fff" fill-rule="evenodd" data-name="Path 65023"/><path d="M309.946 121.174a.358.358 0 0 0-.106.495l1.853 2.852a.358.358 0 0 0 .6-.39l-1.852-2.852a.358.358 0 0 0-.495-.105Z" fill="#fff" fill-rule="evenodd" data-name="Path 65024"/></g><g data-name="layer1"><path d="M334.948 216.531c3.127.274 5.663-1.287 5.663-1.287.3-.177.4-.5.244-.777-.156-.278-.528-.436-.897-.383 0 0-2.807.416-4.822-1.378-.113-.1-.336-.64-.308-1.178.028-.538.306-1.05.43-1.138l4.895-3.516h.003c.116.057.248.09.383.096.21.009.414-.049.568-.16l13.448-9.657c.328-.236.35-.645.048-.914l-3.091-2.752a.956.956 0 0 0-1.14-.06l-13.45 9.658c-.26.187-.334.492-.18.752l-6.403 4.597-.84-.747.247-.177c.328-.235.35-.644.048-.913l-2.319-2.065a.956.956 0 0 0-1.14-.06l-4.203 3.019c-.328.235-.35.644-.048.913l2.319 2.065a.956.956 0 0 0 1.14.06l.247-.178.863.77v.002c-.178.241-.136.55.102.764l2.319 2.065c.24.213.622.28.942.163l.637.567a7.38 7.38 0 0 0 4.295 1.85Zm.137-1.288c-1.066-.093-2.161-.45-3.244-1.414l-1.159-1.033a.963.963 0 0 0-.942-.163l-1.274-1.134v-.003c.178-.241.136-.55-.102-.764l-1.932-1.72a.956.956 0 0 0-1.14-.06l-.247.176-1.226-1.09 3.014-2.165 1.226 1.09-.246.178c-.328.236-.35.644-.048.913l1.932 1.72a.956.956 0 0 0 1.14.06l6.97-5.005 1.226 1.09-4.869 3.498c-.717.515-.91 1.273-.95 2.027-.039.753.074 1.528.733 2.115.888.79 1.87 1.182 2.822 1.446-.567.102-1.058.293-1.684.238Zm5.523-9.833-1.998-1.78 12.26-8.803 1.998 1.78-12.26 8.803Z" fill="#fff" fill-rule="evenodd" data-name="Path 65017"/></g><g data-name="Layer 2"><g data-name="Workspace"><path d="m356.713 79.363-16.845 18.064h0l-10.21-9.52h0l16.845-18.065h0l10.21 9.521h0z" stroke-linejoin="round" stroke-linecap="round" stroke="#fff" fill="transparent" data-name="Rectangle 3294"/><path d="m350.686 85.797 2.546 2.374-4.749 5.093-2.546-2.375" stroke-linejoin="round" stroke-linecap="round" stroke="#fff" fill="transparent" data-name="Path 65037"/><path d="m352.787 75.701-16.845 18.064" stroke-linejoin="round" stroke-linecap="round" stroke="#fff" fill="transparent" data-name="Line 187"/><path d="m349.213 82.158-2.618-2.441" stroke-linejoin="round" stroke-linecap="round" stroke="#fff" fill="transparent" data-name="Line 188"/><path d="m342.133 89.75-2.618-2.441" stroke-linejoin="round" stroke-linecap="round" stroke="#fff" fill="transparent" data-name="Line 189"/></g></g><g data-name="8345458_electronic_repair_service_router_network_icon"><path d="M265.63 39.998c.498.555 1.122.976 1.809 1.245l-.34 6.476c-.032.62.446 1.15 1.066 1.183l4.847.254-4.467 10.265a.358.358 0 0 0 .31.5l2.075.11a.359.359 0 0 0 .347-.215l4.574-10.512 1.598.084.229.254a4.763 4.763 0 0 0 .959 4.805 4.817 4.817 0 0 0 4.182 1.548.357.357 0 0 0 .221-.595l-2.092-2.328.561-2.62 2.66-.285 2.097 2.328a.358.358 0 0 0 .614-.157 4.848 4.848 0 0 0-.065-2.46l1.03.055 3.45 10.931a.358.358 0 0 0 .323.25l2.075.109a.358.358 0 0 0 .36-.466l-3.37-10.676 4.848.254c.62.033 1.15-.444 1.183-1.064l.768-14.659a1.127 1.127 0 0 0-1.065-1.183l-1.412-.074.05-.975a1.232 1.232 0 0 0-1.164-1.293l-1.742-.091a1.232 1.232 0 0 0-1.293 1.164l-.051.975-16.144-.846.052-.975a1.232 1.232 0 0 0-1.165-1.293l-1.742-.091a1.232 1.232 0 0 0-1.293 1.164l-.051.975-.55-.029a4.235 4.235 0 0 0-.858-.044l-.005-.001a.526.526 0 0 0-.065 0 .522.522 0 0 0-.147.012l-.065.003c-.059.002-.119.004-.178.01a.358.358 0 0 0-.288.212 1.113 1.113 0 0 0-.439.828l-.249 4.746-.383.041-2.095-2.327a.359.359 0 0 0-.615.157 4.806 4.806 0 0 0 1.106 4.321Zm5.089 19.304-1.312-.069 4.368-10.037 1.312.068-4.368 10.038Zm4.921-10.725-2.075-.11-5.363-.28a.41.41 0 0 1-.388-.43l.33-6.287c.016.004.033.005.05.009.16.034.321.063.483.08.008.002.016.002.025.003.156.016.312.023.468.024h.09c.158-.001.315-.011.472-.029l.092-.012c.162-.021.324-.048.485-.086l6.462 7.177-1.13-.06Zm17.575 11.904-1.312-.069-3.295-10.439 1.312.069 3.295 10.439Zm3.552-25.906L296 49.234a.41.41 0 0 1-.43.387l-5.364-.28-2.075-.11-1.592-.083c-.014-.029-.03-.057-.045-.086a6.043 6.043 0 0 0-.185-.33 4.517 4.517 0 0 0-.22-.329c-.023-.032-.045-.065-.07-.096a4.777 4.777 0 0 0-4.918-1.749l-7.368-8.184a4.781 4.781 0 0 0-1.3-5.143c-.038-.035-.078-.067-.117-.1a4.802 4.802 0 0 0-.257-.203c-.026-.02-.05-.043-.078-.062l2.287.12 16.858.883 3.485.183 1.77.092a.41.41 0 0 1 .387.43Zm-5.196-2.377a.515.515 0 0 1 .541-.487l1.742.091a.516.516 0 0 1 .487.541l-.05.975-2.77-.145.05-.975Zm-20.342-1.066a.515.515 0 0 1 .54-.487l1.743.091a.515.515 0 0 1 .487.541l-.051.975-2.77-.145.051-.975Zm-2.89 6.597.243-4.632a.4.4 0 0 1 .054-.18l1.825 2.027-.56 2.62-1.561.165Zm-1.512.733c.076.086.188.13.304.117l3.103-.33a.357.357 0 0 0 .312-.282l.654-3.052a.358.358 0 0 0-.084-.314l-1.683-1.87.417.023a4.016 4.016 0 0 1 2.39 1.294 4.072 4.072 0 0 1 .748 4.27.358.358 0 0 0 .066.373l7.66 8.507a.356.356 0 0 0 .101.075l.031.014c.031.013.063.02.097.024l.019.005.008-.001a.353.353 0 0 0 .109-.012 4.07 4.07 0 0 1 4.166 1.187c.309.347.554.732.728 1.143.241.57.348 1.195.314 1.817l-1.707-1.897a.354.354 0 0 0-.304-.116l-3.1.33a.358.358 0 0 0-.312.281l-.654 3.053a.356.356 0 0 0 .084.314L282 55.311h-.004a4.088 4.088 0 0 1-2.825-1.343 4.057 4.057 0 0 1-.748-4.269.358.358 0 0 0-.066-.374l-.472-.525-.001-.001-7.187-7.981a.356.356 0 0 0-.1-.075.353.353 0 0 0-.128-.038c-.007-.001-.013-.005-.019-.005h-.008a.345.345 0 0 0-.11.013 4.073 4.073 0 0 1-2.277-.009c-.044-.013-.088-.024-.131-.038h-.003a4.023 4.023 0 0 1-1.756-1.147 4.081 4.081 0 0 1-1.044-2.953l1.707 1.896Z" fill="#fff" fill-rule="evenodd" data-name="Path 65030"/><path d="M277.83 48.048a1.015 1.015 0 0 0 1.43.075l.143-.129a1.015 1.015 0 0 0 .075-1.431l-5.92-6.576a1.01 1.01 0 0 0-.7-.333 1.01 1.01 0 0 0-.732.258l-.143.129a1.015 1.015 0 0 0-.075 1.431l5.921 6.576Zm-5.368-7.475.143-.129c.122-.11.31-.1.42.022l5.921 6.576c.11.122.1.31-.022.42l-.143.129c-.122.11-.31.1-.42-.022l-5.921-6.576a.299.299 0 0 1 .022-.42Z" fill="#fff" fill-rule="evenodd" data-name="Path 65031"/><path d="M285.59 37.802a.36.36 0 0 0-.02.357l4.161 8.165c.116.228.48.247.62.033l4.99-7.686a.36.36 0 0 0-.281-.552l-9.151-.48a.358.358 0 0 0-.32.163Zm8.813 1-4.316 6.645-3.597-7.06 7.913.415Z" fill="#fff" fill-rule="evenodd" data-name="Path 65032"/><path d="m290.548 43.495.13-2.49a.358.358 0 1 0-.714-.037l-.13 2.49a.358.358 0 1 0 .714.037Z" fill="#fff" fill-rule="evenodd" data-name="Path 65033"/><path d="M290.359 40.273a.358.358 0 0 0 .376-.339l.017-.318a.358.358 0 1 0-.715-.038l-.017.319a.358.358 0 0 0 .339.376Z" fill="#fff" fill-rule="evenodd" data-name="Path 65034"/><path d="m277.424 34.746-2.111-.11a.358.358 0 0 0-.376.338l-.092 1.742a.358.358 0 0 0 .339.376l2.111.11a.358.358 0 0 0 .376-.338l.092-1.742a.358.358 0 0 0-.339-.376Zm-.449 1.723-1.396-.073.054-1.027 1.396.073-.054 1.027Z" fill="#fff" fill-rule="evenodd" data-name="Path 65035"/><path d="m281.755 34.973-2.111-.11a.358.358 0 0 0-.377.338l-.091 1.742a.358.358 0 0 0 .339.376l2.111.11a.358.358 0 0 0 .376-.338l.092-1.742a.358.358 0 0 0-.34-.376Zm-.449 1.723-1.396-.073.054-1.027 1.396.073-.054 1.027Z" fill="#fff" fill-rule="evenodd" data-name="Path 65036"/></g><g data-name="layer1"><path d="m86.878 33.02.132.485.211.464.281.42.347.372.274.213c.023.02.046.038.07.056l.06.042 22.079 14.338 10.737 6.973c.158.102.34.16.528.167 0 0 1.354.047 3.052-.594 1.697-.641 3.83-1.989 5.562-4.657a1.044 1.044 0 1 0-1.752-1.137c-1.485 2.287-3.2 3.331-4.547 3.84-1.224.462-1.886.422-2.03.419l-8.657-5.626-.004.001-9.814-6.377.735-1.132.237-.417.189-.445.14-.463.772-6.688.302.032.92 1.56c.167.284.457.473.784.51l1.8.205.92 1.56c.166.284.456.473.783.51l1.8.205.92 1.56c.166.284.457.473.784.51l1.8.205.92 1.564c.167.282.457.47.783.506l1.8.205.92 1.565c.167.283.457.472.784.509l1.799.201.92 1.565c.167.283.458.472.784.509l1.803.2.917 1.566c.166.283.457.472.784.509l2.32.261a1.045 1.045 0 0 0 .234-2.076l-1.803-.205-.916-1.561a1.044 1.044 0 0 0-.784-.51l-1.804-.204-.915-1.561a1.045 1.045 0 0 0-.784-.51l-1.804-.204-.916-1.562a1.045 1.045 0 0 0-.784-.509l-1.803-.204-.916-1.562a1.045 1.045 0 0 0-.784-.509l-1.804-.204-.92-1.56a1.045 1.045 0 0 0-.78-.51l-1.803-.205-.92-1.565a1.045 1.045 0 0 0-.783-.505l-1.8-.205-.92-1.565a1.045 1.045 0 0 0-.785-.509l-.811-.09.074-.654.023-.576-.056-.577-.128-.565-.21-.535-.286-.502-.349-.464-.407-.405-.462-.349-5.522-3.589-.443-.24-.476-.161-.495-.09-.502-.007-.497.073-.484.157-.445.223-.408.3-.358.355-.288.408-.222.451-.918 2.294-.231.5-.307.46-.356.423-.41.366-.46.307-.494.25-.52.182-.545.107-.494.11-.469.187-.437.26-.39.324-.33.387-.266.437-.188.47-.112.494-.03.503.054.51Zm2.054-.383-.01-.281.058-.28.135-.245.194-.204.236-.146.273-.07.72-.145.707-.226.67-.3.632-.385.574-.456.526-.512.46-.581.388-.625.313-.667.91-2.296.13-.228.177-.192.224-.139.255-.079.263-.014.257.05.234.116 5.525 3.585.301.24.253.289.196.333.13.36.065.379-.006.385-1.01 8.944-.061.322-.108.298-.156.283-.732 1.132L89.39 33.32l-.214-.184-.154-.234-.09-.265Zm6.032 1.083.124.39.198.36.263.315.32.253 2.024 1.317.378.19.408.114.427.026.418-.055.4-.14.362-.218.313-.292.248-.345.168-.386.092-.411.394-3.483.01-.386-.064-.379-.131-.364-.2-.329-.253-.292-.297-.237-1.239-.805-.364-.185-.392-.117-.411-.029-.404.04-.39.129-.364.194-.31.266-.257.321-.19.366-1.175 2.965-.117.392-.033.412.044.403Zm2.043-.434 1.183-2.97 1.235.804-.395 3.48-2.023-1.314Z" fill="#fff" fill-rule="evenodd" data-name="Path 65016"/></g><g data-name="outline color"><path d="M347.088 116.575a2.977 2.977 0 0 1 3.235-.114l15.834 9.483a2.977 2.977 0 0 1 1.016 4.086l-7.032 11.756a.595.595 0 0 1-1.022-.607l7.032-11.757c.244-.406.316-.894.2-1.354a1.786 1.786 0 0 0-.794-1.093l-15.835-9.483a1.786 1.786 0 0 0-1.36-.21 1.75 1.75 0 0 0-1.097.812l-1.443 2.464a.595.595 0 1 1-1.022-.607l1.46-2.44c.207-.367.49-.686.828-.936Z" fill="#fff" fill-rule="evenodd" data-name="Path 65004"/><path d="M355.944 125.412a2.084 2.084 0 1 1 .128 3.494l-.027-.039a.595.595 0 1 1 .67-.985.893.893 0 1 0-.318-1.231.595.595 0 0 1-.186.18l-.341-.487-.58-.132.58.132-.585-.129a.643.643 0 0 1 .087-.198c.146-.24.341-.445.572-.605Z" fill="#fff" fill-rule="evenodd" data-name="Path 65005"/><path d="M357.033 131.991a.595.595 0 0 1 .645-.023l2.567 1.539c.135.085.23.22.263.375a.56.56 0 0 1-.066.446l-1.555 2.543a.595.595 0 0 1-1.022-.608l1.235-2.056-2.053-1.23a.595.595 0 0 1-.207-.815.595.595 0 0 1 .193-.17Z" fill="#fff" fill-rule="evenodd" data-name="Path 65006"/><path d="M356.02 127.918a.6.6 0 1 1-.15.149.709.709 0 0 1 .15-.149Z" fill="#fff" fill-rule="evenodd" data-name="Path 65007"/><path d="M347.812 123.14a.548.548 0 0 1 .2-.088l4.27-1.072a2.977 2.977 0 0 1 3.608 2.162l1.03 4.097a.596.596 0 0 1 .035.05l3.431 13.754a2.977 2.977 0 0 1-2.167 3.61l-13.861 3.478a2.977 2.977 0 0 1-3.61-2.154l-1.573-6.4a.595.595 0 0 1 1.122-.276l1.6 6.374a1.786 1.786 0 0 0 2.17 1.293l13.868-3.467a1.786 1.786 0 0 0 1.288-2.188l-3.46-13.765-.027-.039-1.024-4.088a1.786 1.786 0 0 0-2.17-1.293l-4.272 1.072a.595.595 0 0 1-.458-1.06Z" fill="#fff" fill-rule="evenodd" data-name="Path 65008"/><path d="M351.735 132.895c.209-.145.443-.25.691-.31a2.084 2.084 0 1 1-1.521 2.52 2.06 2.06 0 0 1 .231-1.58c.154-.249.358-.463.599-.63Zm1.707 2.439a.881.881 0 0 0 .352-.951.893.893 0 0 0-1.087-.65.899.899 0 0 0-.644 1.084c.05.232.191.435.392.561a.911.911 0 0 0 .99-.04Z" fill="#fff" fill-rule="evenodd" data-name="Path 65009"/><path d="M344.428 141.144a1.786 1.786 0 0 1 2.756 1.029c.12.46.048.95-.201 1.354-.242.406-.635.7-1.093.817a1.786 1.786 0 0 1-2.169-1.302c-.18-.718.1-1.472.707-1.898Zm1.366 1.951a.595.595 0 0 0 .169-.184.595.595 0 1 0-1.087-.161c.079.317.4.512.718.434a.685.685 0 0 0 .203-.084Zm-1.5-.2Z" fill="#fff" fill-rule="evenodd" data-name="Path 65010"/><path d="M348.263 135.203a.548.548 0 0 1 .2-.089.595.595 0 0 1 .745.401l1.448 5.774a.595.595 0 0 1-.434.719l-3.462.869a.595.595 0 1 1-.284-1.153l2.88-.724-1.309-5.181a.595.595 0 0 1 .216-.616Z" fill="#fff" fill-rule="evenodd" data-name="Path 65011"/><path d="M348.263 135.203a.673.673 0 0 1 .196-.094l2.889-.722a.595.595 0 1 1 .292 1.155l-2.889.722a.595.595 0 0 1-.488-1.061Z" fill="#fff" fill-rule="evenodd" data-name="Path 65012"/><path d="m332.671 123.109 2.731-1.913a.595.595 0 0 1 .83.146l1.16 1.659c.208-.059.419-.104.632-.137l.347-1.995a.595.595 0 0 1 .247-.384.595.595 0 0 1 .446-.101l3.317.585a.595.595 0 0 1 .485.692l-.356 1.994c.189.104.371.219.546.344l1.644-1.15a.595.595 0 0 1 .829.146l1.902 2.716c.189.27.123.64-.146.83l-1.658 1.16c.058.208.104.419.136.632l1.995.347a.595.595 0 0 1 .485.693l-.585 3.317a.595.595 0 0 1-.692.485l-1.994-.356a5.359 5.359 0 0 1-.344.546l1.15 1.644c.19.269.124.64-.145.829l-2.732 1.912a.595.595 0 0 1-.829-.146l-1.16-1.658a5.358 5.358 0 0 1-.632.137l-.348 1.995a.595.595 0 0 1-.247.383.595.595 0 0 1-.445.101l-3.317-.584a.595.595 0 0 1-.485-.693l.356-1.993a5.358 5.358 0 0 1-.546-.345l-1.63 1.14a.595.595 0 0 1-.829-.145l-1.912-2.732a.595.595 0 0 1 .146-.829l1.658-1.16a5.358 5.358 0 0 1-.136-.632l-1.995-.348a.595.595 0 0 1-.485-.692l.585-3.317a.595.595 0 0 1 .692-.485l1.994.356c.103-.189.218-.371.344-.546l-1.14-1.63a.595.595 0 0 1 .131-.818Zm2.927-.596-1.756 1.23 1.069 1.526c.166.22.16.524-.015.737a5.585 5.585 0 0 0-.695 1.083.595.595 0 0 1-.64.332l-1.836-.328-.368 2.11 1.832.324a.595.595 0 0 1 .488.53c.046.429.14.85.283 1.256a.595.595 0 0 1-.238.698l-1.497 1.048 1.209 1.727 1.526-1.07a.595.595 0 0 1 .737.015c.333.273.696.506 1.083.696a.595.595 0 0 1 .332.64l-.323 1.832 2.11.376.319-1.837a.595.595 0 0 1 .53-.488c.429-.046.85-.14 1.256-.283a.595.595 0 0 1 .698.238l1.048 1.498 1.727-1.21-1.07-1.526a.595.595 0 0 1 .015-.737c.273-.333.506-.696.696-1.083a.595.595 0 0 1 .64-.332l1.836.328.367-2.11-1.832-.324a.595.595 0 0 1-.488-.53 5.585 5.585 0 0 0-.283-1.256.595.595 0 0 1 .238-.697l1.498-1.049-1.23-1.756-1.526 1.07a.595.595 0 0 1-.737-.015 5.585 5.585 0 0 0-1.083-.696.595.595 0 0 1-.332-.64l.323-1.832-2.11-.376-.32 1.837a.595.595 0 0 1-.53.488c-.428.046-.85.14-1.255.283a.595.595 0 0 1-.698-.238l-.998-1.489Z" fill="#fff" fill-rule="evenodd" data-name="Path 65013"/><path d="M336.769 126.054a4.168 4.168 0 1 1 4.78 6.828 4.168 4.168 0 0 1-4.78-6.828Zm4.098 5.853a2.977 2.977 0 1 0-3.415-4.877 2.977 2.977 0 0 0 3.415 4.877Z" fill="#fff" fill-rule="evenodd" data-name="Path 65014"/></g><g data-name="layer1"><path d="m226.995 148.904.112.412.18.394.239.358.294.317.234.18c.019.017.039.033.06.048l.05.036 18.778 12.194 9.132 5.93c.134.088.289.137.448.143 0 0 1.153.04 2.596-.506 1.443-.545 3.257-1.691 4.73-3.96a.888.888 0 1 0-1.489-.968c-1.263 1.945-2.722 2.834-3.867 3.266-1.042.394-1.605.36-1.727.357l-7.363-4.785-.003.001-8.347-5.423.626-.963.201-.355.16-.378.12-.395.656-5.687.258.027.782 1.327a.888.888 0 0 0 .667.433l1.53.175.782 1.327a.888.888 0 0 0 .667.433l1.53.175.783 1.327a.888.888 0 0 0 .667.433l1.53.174.783 1.331c.142.24.389.399.666.43l1.53.174.784 1.33a.888.888 0 0 0 .666.434l1.53.171.783 1.33a.888.888 0 0 0 .667.434l1.533.17.78 1.332a.888.888 0 0 0 .666.433l1.974.222a.889.889 0 1 0 .199-1.766l-1.534-.174-.779-1.328a.888.888 0 0 0-.667-.433l-1.534-.174-.778-1.328a.888.888 0 0 0-.667-.433l-1.534-.174-.779-1.328a.888.888 0 0 0-.667-.433l-1.533-.174-.78-1.328a.888.888 0 0 0-.666-.433l-1.534-.174-.782-1.327a.888.888 0 0 0-.663-.434l-1.534-.174-.783-1.33a.888.888 0 0 0-.666-.43l-1.53-.175-.784-1.33a.888.888 0 0 0-.667-.433l-.69-.077.063-.556.02-.49-.048-.49-.109-.48-.178-.456-.243-.427-.297-.395-.347-.344-.392-.296-4.697-3.053-.376-.204-.406-.137-.42-.078-.427-.005-.423.062-.412.134-.378.19-.347.254-.304.303-.246.347-.188.384-.78 1.95-.198.425-.26.392-.304.359-.349.312-.391.26-.42.214-.442.154-.463.091-.42.093-.399.16-.372.22-.331.277-.281.329-.227.37-.16.4-.094.421-.027.428.047.434Zm1.747-.326-.009-.24.05-.237.114-.209.166-.173.2-.124.232-.06.613-.123.6-.192.57-.256.538-.327.489-.387.446-.436.392-.495.33-.531.266-.567.774-1.953.11-.194.15-.163.192-.118.216-.067.225-.013.218.043.198.1 4.7 3.048.256.204.215.245.167.284.11.306.055.322-.005.328-.859 7.607-.052.273-.091.254-.133.241-.622.962-10.432-6.771-.182-.157-.131-.199-.076-.225Zm5.13.921.106.332.167.305.224.268.273.215 1.72 1.121.323.162.346.097.363.022.356-.047.34-.119.308-.186.266-.248.211-.293.143-.328.078-.35.336-2.963.008-.328-.054-.322-.112-.31-.17-.279-.216-.249-.252-.201-1.053-.685-.31-.157-.334-.1-.35-.024-.343.034-.332.11-.309.164-.264.226-.218.274-.161.31-1 2.523-.1.333-.028.35.038.343Zm1.737-.37 1.006-2.526 1.05.685-.336 2.959-1.72-1.117Z" fill="#fff" fill-rule="evenodd" data-name="Path 65016"/></g><g data-name="8345450_electronic_repair_service_refrigerator_icebox_icon"><path d="m25.883 51.404 6.368 9.806a5.033 5.033 0 0 0 .201 5.174 5.067 5.067 0 0 0 4.105 2.304.358.358 0 0 0 .31-.553l-1.811-2.789.87-2.26 3.204 4.932c.43.663 1.319.851 1.98.421l14.711-9.553c.663-.43.851-1.318.421-1.98L40.776 33.09a1.429 1.429 0 0 0-1.82-.504l-.352-.541a1.046 1.046 0 0 0-1.445-.307l-1.15.747c-.483.314-.621.962-.307 1.445l.341.526-9.206 5.979-.342-.527a1.046 1.046 0 0 0-1.444-.307l-1.15.748c-.484.313-.622.96-.308 1.444l.352.541a1.429 1.429 0 0 0-.281 1.868l2 3.08-2.419-.123-1.811-2.789a.358.358 0 0 0-.631.059 5.067 5.067 0 0 0 .435 4.687 5.032 5.032 0 0 0 4.645 2.288Zm29.549 6.882-14.71 9.553a.717.717 0 0 1-.991-.21l-3.203-4.934 2.419.124 1.81 2.79a.358.358 0 0 0 .632-.06 5.067 5.067 0 0 0-.435-4.686 5.025 5.025 0 0 0-3.632-2.268l13.48-8.754 4.84 7.454a.717.717 0 0 1-.21.99ZM40.176 33.479l10.235 15.762-14.182 9.21-6.287-9.682a5.033 5.033 0 0 0-.538-5.63c-.037-.045-.077-.087-.116-.13a5.155 5.155 0 0 0-.41-.417 5.076 5.076 0 0 0-.305-.252c-.043-.033-.086-.069-.13-.1a4.947 4.947 0 0 0-.466-.3l-.04-.02a5.08 5.08 0 0 0-.458-.222c-.055-.023-.11-.043-.165-.064a4.872 4.872 0 0 0-.55-.178c-.044-.012-.086-.026-.129-.037l12.55-8.15a.717.717 0 0 1 .991.21Zm-3.874.06a.329.329 0 0 1 .097-.454l1.15-.747a.328.328 0 0 1 .455.097l.34.525-1.7 1.105-.342-.526Zm-12.108 7.864a.329.329 0 0 1 .096-.454l1.151-.748a.328.328 0 0 1 .454.097l.341.525-1.701 1.105-.341-.525Zm.281 1.419 1.045-.679 1.616 2.49-.87 2.26-2.001-3.08a.716.716 0 0 1 .21-.991Zm-3.23 2.572 1.5 2.308a.357.357 0 0 0 .281.163l3.303.168c.008.001.016-.002.024-.002.01 0 .02.002.031 0 .011 0 .021-.005.032-.007a.347.347 0 0 0 .098-.035l.038-.022c.017-.012.032-.027.047-.042.01-.01.02-.018.029-.03a.376.376 0 0 0 .053-.09l1.189-3.086a.357.357 0 0 0-.034-.323l-1.493-2.3c.067.014.135.027.202.044.053.013.106.024.158.04.136.039.27.085.401.137.018.008.037.013.055.02.149.062.292.133.433.21.042.023.082.05.123.074.097.058.193.119.285.184.048.033.094.07.14.104a4.378 4.378 0 0 1 .604.564c.034.038.07.076.103.116a4.325 4.325 0 0 1 .368 5.007.358.358 0 0 0 .007.379l6.606 10.172a.351.351 0 0 0 .094.093l.004.003c.07.05.157.075.245.064a4.326 4.326 0 0 1 4.183 1.945c.644.993.85 2.196.592 3.332l-1.499-2.308a.358.358 0 0 0-.281-.163l-3.302-.169a.36.36 0 0 0-.106.011l-.036.014c-.02.008-.04.016-.06.027-.012.007-.022.016-.034.025a.307.307 0 0 0-.073.076c-.006.009-.014.016-.02.026-.005.009-.007.02-.011.029-.004.007-.01.013-.013.021l-1.189 3.085a.357.357 0 0 0 .034.324l1.5 2.308a4.35 4.35 0 0 1-2.803-1.897 4.325 4.325 0 0 1-.076-4.612.358.358 0 0 0-.007-.379l-6.605-10.17a.358.358 0 0 0-.343-.161 4.326 4.326 0 0 1-4.183-1.945 4.349 4.349 0 0 1-.593-3.332Z" fill="#fff" fill-rule="evenodd" data-name="Path 65018"/><path d="M34.59 60.368a1.03 1.03 0 0 0 .302-1.424l-5.863-9.028a1.03 1.03 0 0 0-1.424-.303 1.03 1.03 0 0 0-.303 1.424l5.864 9.028a1.03 1.03 0 0 0 1.423.303Zm-6.687-9.721a.314.314 0 0 1 .525-.342l5.863 9.03a.314.314 0 0 1-.525.34l-5.863-9.028Z" fill="#fff" fill-rule="evenodd" data-name="Path 65019"/><path d="m39.985 42.036-7.825 5.082a.357.357 0 0 0 .032.619l8.314 4.236c.227.116.533-.082.52-.338l-.489-9.317a.36.36 0 0 0-.552-.282Zm.293 9.018L33.07 47.38l6.785-4.407.423 8.08Z" fill="#fff" fill-rule="evenodd" data-name="Path 65020"/><path d="M39.371 49.657a.358.358 0 0 0 .106-.495l-1.383-2.129a.358.358 0 0 0-.6.39l1.382 2.13c.108.165.33.212.495.104Z" fill="#fff" fill-rule="evenodd" data-name="Path 65021"/><path d="M37.394 46.613a.358.358 0 0 0 .105-.496l-.177-.272a.358.358 0 0 0-.6.39l.177.272c.107.166.33.213.495.106Z" fill="#fff" fill-rule="evenodd" data-name="Path 65022"/><path d="M51.488 53.965a.358.358 0 0 0-.106.495l.683 1.051a.358.358 0 0 0 .6-.39l-.682-1.05a.358.358 0 0 0-.495-.106Z" fill="#fff" fill-rule="evenodd" data-name="Path 65023"/><path d="M42.576 40.243a.358.358 0 0 0-.105.495l1.852 2.852a.358.358 0 0 0 .6-.39l-1.852-2.852a.358.358 0 0 0-.495-.105Z" fill="#fff" fill-rule="evenodd" data-name="Path 65024"/></g><g data-name="8345452_electronic_repair_service_fan_cooler_icon"><path d="M-17.317 62.685a.94.94 0 0 0 1.277-.367l3.935-7.098a.94.94 0 0 0-1.643-.91l-3.935 7.098a.94.94 0 0 0 .366 1.277Zm4.195-8.029a.224.224 0 0 1 .39.217l-3.934 7.098a.223.223 0 1 1-.39-.216l3.934-7.099Z" fill="#fff" fill-rule="evenodd" data-name="Path 65025"/><path d="m-14.343 52.891-4.858 8.764a4.383 4.383 0 0 0-3.875 2.272 4.424 4.424 0 0 0-.092 4.104.358.358 0 0 0 .634.014l1.378-2.486.406-.05c-2.847 5.538-.796 12.396 4.687 15.435 5.59 3.098 12.658 1.072 15.757-4.518 2.632-4.748 1.565-10.56-2.24-14.103l2.745-3.49 1.077.597c.127.07.284.057.397-.034l4.222-3.37a.358.358 0 0 0-.05-.592L-6.04 48.847a.358.358 0 0 0-.454.094c-.047-.12-.093-.24-.15-.357a.358.358 0 0 0-.634-.015l-1.378 2.486-2.392.293-1.02-2.184 1.378-2.486a.358.358 0 0 0-.349-.53 4.424 4.424 0 0 0-3.43 2.253 4.382 4.382 0 0 0 .125 4.49Zm13.41 23.187c-2.906 5.245-9.538 7.147-14.783 4.24-5.245-2.908-7.146-9.54-4.239-14.784l.072-.13 1.12-.136.123.264c-.11.169-.22.346-.332.547-2.606 4.703-.901 10.65 3.801 13.256 4.703 2.606 10.65.901 13.256-3.801 2.607-4.705.903-10.653-3.8-13.26a9.761 9.761 0 0 0-8.76-.343l.845-1.523c2.85-.874 5.849-.56 8.46.887 5.243 2.907 7.145 9.54 4.238 14.783Zm-13.862-9.805a1.91 1.91 0 0 1 1.008.605l2.086 2.392c-.018.014-.032.033-.05.049-.054.048-.104.1-.153.153-.027.03-.055.058-.08.089a2.006 2.006 0 0 0-.193.283l-.002.004c-.055.1-.1.205-.136.311-.013.036-.021.073-.031.11-.021.073-.038.146-.05.22-.004.023-.012.043-.015.065l-3.134-.502a1.92 1.92 0 0 1-.98-.47c.02-.014.038-.032.058-.048.046-.036.09-.075.135-.113a4.563 4.563 0 0 0 .382-.368c.08-.088.155-.18.229-.273.033-.044.068-.085.1-.13.1-.14.195-.284.28-.436.074-.135.14-.274.2-.415.01-.027.022-.053.033-.08.055-.137.103-.276.144-.417l.02-.078a4.31 4.31 0 0 0 .098-.442l.001-.005c.025-.152.038-.305.046-.46 0-.014.003-.029.004-.044Zm-2.974 1.125a2.501 2.501 0 0 0-.048.186l-1.305 2.353a.358.358 0 0 0 .349.53 4.4 4.4 0 0 0 1.625-.495c.393.415.91.692 1.488.787l3.297.529c.01.043.023.085.036.127l-2.515 2.194c-.231.201-.424.44-.573.708a2.646 2.646 0 0 0 1.034 3.592 2.613 2.613 0 0 0 2.437.067 2.612 2.612 0 0 0 1.454-1.955l.527-3.296a1.96 1.96 0 0 0 .129-.037l2.194 2.516c.201.23.44.424.708.573a2.646 2.646 0 0 0 3.592-1.034 2.613 2.613 0 0 0 .067-2.436 2.614 2.614 0 0 0-1.955-1.455l-3.296-.528a1.96 1.96 0 0 0-.037-.128l2.515-2.194c.232-.2.424-.44.573-.708a2.646 2.646 0 0 0-1.033-3.592 2.613 2.613 0 0 0-2.437-.067 2.611 2.611 0 0 0-1.454 1.955l-.527 3.296a1.83 1.83 0 0 0-.13.037l-2.194-2.516a2.625 2.625 0 0 0-1.586-.868 4.395 4.395 0 0 0-.635-1.815l.364-.656a9.045 9.045 0 0 1 9.043-.167c4.358 2.415 5.937 7.926 3.52 12.285-2.415 4.357-7.925 5.938-12.282 3.522-4.357-2.415-5.937-7.925-3.522-12.282l.068-.12.51 1.092Zm5.79 4.664c.021.026.048.046.07.071.027.03.055.057.084.084.126.123.263.236.42.323.158.087.325.144.497.186.04.01.078.019.118.026.032.006.063.018.095.022l-.502 3.134a1.903 1.903 0 0 1-1.06 1.424c-.572.278-1.22.26-1.776-.048a1.93 1.93 0 0 1-.338-3.135l2.392-2.087Zm2.094-.118a1.31 1.31 0 0 1-.428.123 1.293 1.293 0 0 1-1.266-.7l-.003-.004a1.267 1.267 0 0 1 .03-1.172c.01-.018.023-.033.033-.05a1.262 1.262 0 0 1 .945-.597 1.296 1.296 0 0 1 1.269.703 1.266 1.266 0 0 1-.03 1.173c-.126.228-.317.41-.55.524Zm.977-2.395c-.012-.015-.028-.026-.04-.041a1.975 1.975 0 0 0-.18-.18c-.022-.02-.042-.04-.064-.058a2.001 2.001 0 0 0-.29-.2 2.005 2.005 0 0 0-.323-.14c-.027-.009-.053-.014-.08-.023a2.004 2.004 0 0 0-.249-.057c-.02-.003-.038-.01-.057-.013l.502-3.134a1.903 1.903 0 0 1 1.06-1.424 1.905 1.905 0 0 1 1.776.048 1.93 1.93 0 0 1 .338 3.135l-2.393 2.087Zm.433 1.509 3.134.501a1.902 1.902 0 0 1 1.424 1.06c.278.572.26 1.22-.048 1.777a1.93 1.93 0 0 1-2.62.754 1.905 1.905 0 0 1-.515-.417l-2.086-2.392c.015-.013.027-.03.042-.042.06-.052.115-.108.169-.167.024-.027.05-.053.072-.081.072-.089.138-.183.195-.285.056-.101.1-.207.138-.315.012-.035.02-.07.03-.105.022-.076.04-.153.052-.231.003-.02.01-.038.013-.057Zm1.286-16.573a.358.358 0 0 0 .183.354l1.076.597-1.506 4.182a11.664 11.664 0 0 0-5.713-.079l2.538-4.58a4.379 4.379 0 0 0 3.576-1.805l-.154 1.33Zm2.365 6.184a11.502 11.502 0 0 0-1.926-.843l1.597-4.434.423-1.17 5.322 2.951-.767.978-2.912 3.701a11.599 11.599 0 0 0-1.737-1.183ZM5.03 55.8l-3.616 2.887-.767-.425.768-.979a.356.356 0 0 0-.109-.534l-6.057-3.357a.358.358 0 0 0-.51.19l-.423 1.17-.766-.424.532-4.597L5.03 55.801Zm-16.72-8.795-1.092 1.97a.358.358 0 0 0-.012.326l1.208 2.584c.065.14.213.223.367.204l2.831-.346a.357.357 0 0 0 .27-.182l1.093-1.97a3.703 3.703 0 0 1-.338 2.749 3.676 3.676 0 0 1-3.436 1.897.358.358 0 0 0-.333.184l-3.056 5.513-1.497 2.702-.516.93a.358.358 0 0 0 .02.38c.403.574.634 1.245.668 1.942a3.652 3.652 0 0 1-.731 2.4 3.716 3.716 0 0 1-1.878 1.32l.954-1.72.139-.25c.055-.1.06-.221.011-.325l-.041-.088-.847-1.817-.004-.006-.315-.674a.358.358 0 0 0-.368-.204l-2.831.346a.357.357 0 0 0-.27.182l-1.092 1.97a3.701 3.701 0 0 1 .337-2.749 3.676 3.676 0 0 1 3.437-1.897.358.358 0 0 0 .332-.184l5.07-9.145a.358.358 0 0 0-.02-.38 3.676 3.676 0 0 1-.213-3.92 3.7 3.7 0 0 1 2.153-1.742Z" fill="#fff" fill-rule="evenodd" data-name="Path 65026"/><path d="m-1.754 53.962.9.5a.358.358 0 1 0 .347-.627l-.9-.499a.358.358 0 1 0-.347.626Z" fill="#fff" fill-rule="evenodd" data-name="Path 65027"/><path d="m.801 55.379.9.499a.358.358 0 1 0 .348-.626l-.9-.5a.358.358 0 1 0-.348.627Z" fill="#fff" fill-rule="evenodd" data-name="Path 65028"/><path d="m-4.22 52.595.9.5a.358.358 0 1 0 .347-.627l-.9-.499a.358.358 0 1 0-.347.626Z" fill="#fff" fill-rule="evenodd" data-name="Path 65029"/></g><g data-name="layer1"><path d="M-40.851 150.694c3.127.273 5.663-1.287 5.663-1.287.3-.178.4-.5.244-.778-.156-.277-.528-.436-.897-.382 0 0-2.807.416-4.822-1.379-.113-.1-.336-.639-.308-1.177.028-.538.306-1.05.43-1.139l4.895-3.515h.003c.116.057.248.09.383.096.21.008.414-.05.568-.16l13.448-9.658c.328-.236.35-.644.048-.913l-3.091-2.753a.956.956 0 0 0-1.14-.06l-13.45 9.658c-.26.188-.334.493-.18.752l-6.403 4.598-.84-.747.247-.177c.328-.236.35-.645.048-.913l-2.319-2.065a.956.956 0 0 0-1.14-.06l-4.203 3.018c-.328.236-.35.645-.048.914l2.319 2.064a.956.956 0 0 0 1.14.06l.247-.177.863.769v.002c-.178.242-.136.551.102.765l2.318 2.064c.24.214.623.28.943.163l.637.568a7.38 7.38 0 0 0 4.295 1.849Zm.137-1.288c-1.066-.093-2.161-.451-3.244-1.415l-1.159-1.032a.963.963 0 0 0-.942-.163l-1.274-1.135v-.002c.178-.242.136-.551-.102-.765l-1.932-1.72a.956.956 0 0 0-1.14-.06l-.247.177-1.226-1.091 3.014-2.165 1.226 1.092-.246.176c-.328.236-.35.645-.048.914l1.932 1.72a.956.956 0 0 0 1.14.06l6.97-5.006 1.226 1.092-4.869 3.496c-.717.515-.91 1.274-.95 2.028-.039.753.074 1.528.733 2.115.888.79 1.87 1.181 2.822 1.446-.567.101-1.058.293-1.684.238Zm5.523-9.833-1.998-1.78 12.26-8.804 1.998 1.78-12.26 8.804Z" fill="#fff" fill-rule="evenodd" data-name="Path 65017"/></g></g></svg>