<svg xmlns="http://www.w3.org/2000/svg" width="19.832" height="22.493"><path d="M19.832 19.193V6.798c0-1.82-1.434-3.3-3.197-3.3h-.876V3.3c0-1.82-1.433-3.3-3.197-3.3H3.197C1.434 0 0 1.48 0 3.3v12.395c0 1.82 1.434 3.3 3.197 3.3h.876v.198c0 1.82 1.434 3.3 3.197 3.3H16.635c1.763 0 3.197-1.48 3.197-3.3Zm-4.378 2.22H7.27c-1.188 0-2.151-.994-2.151-2.22V6.798c0-1.226.963-2.22 2.15-2.22h9.366c1.188 0 2.15.994 2.15 2.22v12.395c0 1.226-.962 2.22-2.15 2.22h-1.181Z" fill="#0d3657" fill-rule="evenodd" data-name="Path 64955"/></svg>