<svg xmlns="http://www.w3.org/2000/svg" width="17.5" height="21.5" viewBox="122.25 708.566 17.5 21.5"><g data-name="Huge-icon/finance and payment/outline/card-withdraw"><path d="M125 718.066h9v-1.5h-9v1.5Zm9 2.5h-9v1.5h9v-1.5Zm-9 0c-.69 0-1.25-.56-1.25-1.25h-1.5a2.75 2.75 0 0 0 2.75 2.75v-1.5Zm10.25-1.25c0 .69-.56 1.25-1.25 1.25v1.5a2.75 2.75 0 0 0 2.75-2.75h-1.5Zm-1.25-1.25c.69 0 1.25.56 1.25 1.25h1.5a2.75 2.75 0 0 0-2.75-2.75v1.5Zm-9-1.5a2.75 2.75 0 0 0-2.75 2.75h1.5c0-.69.56-1.25 1.25-1.25v-1.5Z" fill="#a6a6a6" fill-rule="evenodd" data-name="Rectangle 924"/><path d="m134.413 721.358.11.742-.11-.742Zm-9.413.708h9v-1.5h-9v1.5Zm0 2.5c-.69 0-1.25-.56-1.25-1.25h-1.5a2.75 2.75 0 0 0 2.75 2.75v-1.5Zm0-4a2.75 2.75 0 0 0-2.75 2.75h1.5c0-.69.56-1.25 1.25-1.25v-1.5Zm14.75 4.75a4.75 4.75 0 0 0-4.75-4.75v1.5a3.25 3.25 0 0 1 3.25 3.25h1.5Zm-9.5 0a4.75 4.75 0 0 0 4.75 4.75v-1.5a3.25 3.25 0 0 1-3.25-3.25h-1.5Zm4.75 4.75a4.75 4.75 0 0 0 4.75-4.75h-1.5a3.25 3.25 0 0 1-3.25 3.25v1.5Zm0-9.5c-.236 0-.468.017-.696.05l.218 1.484c.156-.022.315-.034.478-.034v-1.5Zm-.696.05a4.75 4.75 0 0 0-4.054 4.7h1.5a3.25 3.25 0 0 1 2.772-3.216l-.218-1.484Zm-.304 1.45c.09 0 .176.009.259.026l.308-1.468a2.758 2.758 0 0 0-.567-.058v1.5Zm-9 4h6v-1.5h-6v1.5ZM133.53 713.26a.75.75 0 0 0-1.06-1.06l1.06 1.06Zm-1.823.763.53.53-.53-.53Zm-1.414 0 .53-.53-.53.53Zm-.763-1.823a.75.75 0 0 0-1.06 1.06l1.06-1.06Zm2.22-2.884a.75.75 0 0 0-1.5 0h1.5Zm-1.5 4.414a.75.75 0 0 0 1.5 0h-1.5Zm2.22-1.53-1.293 1.292 1.06 1.061 1.293-1.293-1.06-1.06Zm-1.647 1.292-1.293-1.292-1.06 1.06 1.293 1.293 1.06-1.06Zm.354 0a.25.25 0 0 1-.354 0l-1.06 1.061a1.75 1.75 0 0 0 2.474 0l-1.06-1.06Zm-.927-4.176v4.414h1.5v-4.414h-1.5Z" fill="#a6a6a6" fill-rule="evenodd" data-name="Vector"/></g></svg>