<svg xmlns="http://www.w3.org/2000/svg" width="21.5" height="21.5"><path d="m6.35 12.55-.6.45.6-.45Zm1.2 1.6.6-.45-.6.45Zm6.4 0-.6-.45.6.45Zm1.2-1.6-.6-.45.6.45ZM7.75 8a.75.75 0 0 0 0 1.5V8Zm3 1.5a.75.75 0 0 0 0-1.5v1.5Zm-3-5.5a.75.75 0 0 0 0 1.5V4Zm6 1.5a.75.75 0 0 0 0-1.5v1.5ZM20 14.75v3h1.5v-3H20ZM17.75 20h-14v1.5h14V20ZM1.5 17.75v-3H0v3h1.5Zm2.25-5.25h1V11h-1v1.5Zm2 .5 1.2 1.6 1.2-.9-1.2-1.6-1.2.9Zm11-.5h1V11h-1v1.5Zm-2.2 2.1 1.2-1.6-1.2-.9-1.2 1.6 1.2.9Zm-3.8 1.9a4.75 4.75 0 0 0 3.8-1.9l-1.2-.9a3.25 3.25 0 0 1-2.6 1.3v1.5Zm6-5.5a2.75 2.75 0 0 0-2.2 1.1l1.2.9a1.25 1.25 0 0 1 1-.5V11Zm-9.8 3.6a4.75 4.75 0 0 0 3.8 1.9V15a3.25 3.25 0 0 1-2.6-1.3l-1.2.9Zm-2.2-2.1c.393 0 .764.185 1 .5l1.2-.9a2.75 2.75 0 0 0-2.2-1.1v1.5Zm-1 7.5a2.25 2.25 0 0 1-2.25-2.25H0a3.75 3.75 0 0 0 3.75 3.75V20ZM20 17.75A2.25 2.25 0 0 1 17.75 20v1.5a3.75 3.75 0 0 0 3.75-3.75H20Zm1.5-3A3.75 3.75 0 0 0 17.75 11v1.5A2.25 2.25 0 0 1 20 14.75h1.5Zm-20 0a2.25 2.25 0 0 1 2.25-2.25V11A3.75 3.75 0 0 0 0 14.75h1.5Zm18-3v-7H18v7h1.5ZM14.75 0h-8v1.5h8V0ZM2 4.75v7h1.5v-7H2ZM6.75 0A4.75 4.75 0 0 0 2 4.75h1.5A3.25 3.25 0 0 1 6.75 1.5V0ZM19.5 4.75A4.75 4.75 0 0 0 14.75 0v1.5A3.25 3.25 0 0 1 18 4.75h1.5ZM7.75 9.5h3V8h-3v1.5Zm0-4h6V4h-6v1.5Z" fill="#a6a6a6" fill-rule="evenodd" data-name="Vector"/></svg>